{
.formatVersion = 3;
axes = (
{
name = Weight;
tag = wght;
}
);
classes = (
{
code = "denozero denione denotwo denothree denofour denofive denosix denoseven denieight denonine";
name = dnom;
},
{
code = "zero one two three four five six seven eight nine";
name = dnom_numr;
},
{
code = "numzero numone numtwo numthree numfour numfive numsix numseven numeight numnine";
name = numr;
},
{
code = "percent zero one two three four five six seven eight nine";
name = onum;
},
{
code = "oneoldstyle zerooldstyle twooldstyle threeoldstyle fouroldstyle fiveoldstyle sixoldstyle sevenoldstyle eightoldstyle nineoldstyle";
name = onum2;
},
{
code = "a b c d e f g h i j k l m n o p q r s t u v w x y z";
name = smcp;
},
{
code = "Asmall Bsmall Csmall Dsmall Esmall Fsmall Gsmall Hsmall Ismall Jsmall Ksmall Lsmall Msmall Nsmall Osmall Psmall Qsmall Rsmall Ssmall Tsmall Usmall Vsmall Wsmall Xsmall Ysmall Zsmall";
name = smcp2;
},
{
code = "parenleft.inferior parenright.inferior zero.inferior one.inferior two.inferior three.inferior four.inferior five.inferior six.inferior seven.inferior eight.inferior nine.inferior";
name = subs;
},
{
code = "parenleft parenright zero one two three four five six seven eight nine";
name = subs_sups;
},
{
code = "parenleft.superior parenright.superior zero.superior onesuperior twosuperior threesuperior four.superior five.superior six.superior seven.superior eight.superior nine.superior";
name = sups;
},
{
code = "zero one two three four five six seven eight nine oneoldstyle zerooldstyle twooldstyle threeoldstyle fouroldstyle fiveoldstyle sixoldstyle sevenoldstyle eightoldstyle nineoldstyle";
name = tnum;
},
{
code = "tabularzero tabularone tabulartwo tabularthree tabularfour tabularfive tabularsix tabularseven tabulareight tabularnine tabularoldzero tabularoldone tabularoldtwo tabularoldthree tabularoldfour tabularoldfive tabularoldsix tabularoldseven tabularoldeight tabularoldnine";
name = tnum2;
}
);
familyName = "Goan Sans";
customParameters = (
{

glyphs = (
{
glyphname = .notdef;
layers = (
{
layerId = "A25775AA-C32B-429E-A370-B71F346E2F61";
shapes = (
{
closed = 1;
nodes = (
(0,0,l),
(530,0,l),
(530,698,l),
(0,698,l)
);
},
{
closed = 1;
nodes = (
(265,431,l),
(135,625,l),
(396,625,l)
);
},
{
closed = 1;
nodes = (
(320,349,l),
(434,519,l),
(434,179,l)
);
},
{
closed = 1;
nodes = (
(135,73,l),
(265,266,l),
(396,73,l)
);
},
{
closed = 1;
nodes = (
(98,179,l),
(98,519,l),
(211,349,l)
);
}
);
width = 530;
},
{
layerId = "01F57539-F702-4EC8-9BFC-18F609AC6CA6";
shapes = (
{
closed = 1;
nodes = (
(0,0,l),
(524,0,l),
(524,698,l),
(0,698,l)
);
},
{
closed = 1;
nodes = (
(262,424,l),
(124,630,l),
(401,630,l)
);
},
{
closed = 1;
nodes = (
(312,349,l),
(437,536,l),
(437,162,l)
);
},
{
closed = 1;
nodes = (
(124,68,l),
(262,274,l),
(401,68,l)
);
},
{
closed = 1;
nodes = (
(88,162,l),
(88,536,l),
(213,349,l)
);
}
);
width = 524;
},
{
layerId = "7731FD6D-FAB0-4FA8-8A0E-241F62E50EBE";
shapes = (
{
closed = 1;
nodes = (
(0,0,l),
(500,0,l),
(500,700,l),
(0,700,l)
);
},
{
closed = 1;
nodes = (
(250,395,l),
(80,650,l),
(420,650,l)
);
},
{
closed = 1;
nodes = (
(280,350,l),
(450,605,l),
(450,95,l)
);
},
{
closed = 1;
nodes = (
(80,50,l),
(250,305,l),
(420,50,l)
);
},
{
closed = 1;
nodes = (
(50,95,l),
(50,605,l),
(220,350,l)
);
}
);
width = 500;
},
{
layerId = "34019E5C-CFBD-41F4-A079-921E83AB1F7F";
shapes = (
{
closed = 1;
nodes = (
(0,0,l),
(480,0,l),
(480,700,l),
(0,700,l)
);
},
{
closed = 1;
nodes = (
(240,385,l),
(60,660,l),
(420,660,l)
);
},
{
closed = 1;
nodes = (
(265,350,l),
(440,615,l),
(440,85,l)
);
},
{
closed = 1;
nodes = (
(60,40,l),
(240,315,l),
(420,40,l)
);
},
{
closed = 1;
nodes = (
(40,85,l),
(40,615,l),
(215,350,l)
);
}
);
width = 480;
}
);
},
{
glyphname = exclam;
layers = (
{
layerId = "A25775AA-C32B-429E-A370-B71F346E2F61";
shapes = (
{
closed = 1;
nodes = (
(72,234,l),
(199,234,l),
(221,710,l),
(52,710,l)
);
},
{
closed = 1;
nodes = (
(51,24,o),
(91,-12,o),
(137,-12,cs),
(182,-12,o),
(222,24,o),
(222,75,cs),
(222,124,o),
(182,161,o),
(137,161,cs),
(91,161,o),
(51,124,o),
(51,75,cs)
);
}
);
width = 272;
},
{
layerId = "01F57539-F702-4EC8-9BFC-18F609AC6CA6";
shapes = (
{
closed = 1;
nodes = (
(75,229,l),
(191,229,l),
(211,710,l),
(57,710,l)
);
},
{
closed = 1;
nodes = (
(53,22,o),
(91,-11,o),
(134,-11,cs),
(177,-11,o),
(214,22,o),
(214,71,cs),
(214,117,o),
(177,152,o),
(134,152,cs),
(91,152,o),
(53,117,o),
(53,71,cs)
);
}
);
width = 267;
},
{
layerId = "7731FD6D-FAB0-4FA8-8A0E-241F62E50EBE";
shapes = (
{
closed = 1;
nodes = (
(87,209,l),
(159,209,l),
(171,710,l),
(77,710,l)
);
},
{
closed = 1;
nodes = (
(63,16,o),
(91,-9,o),
(124,-9,cs),
(157,-9,o),
(184,16,o),
(184,54,cs),
(184,89,o),
(157,116,o),
(124,116,cs),
(91,116,o),
(63,89,o),
(63,54,cs)
);
}
);
width = 247;
},
{
layerId = "34019E5C-CFBD-41F4-A079-921E83AB1F7F";
shapes = (
{
closed = 1;
nodes = (
(84,189,l),
(124,189,l),
(133,710,l),
(79,710,l)
);
},
{
closed = 1;
nodes = (
(64,8,o),
(81,-8,o),
(104,-8,cs),
(126,-8,o),
(144,8,o),
(144,36,cs),
(144,62,o),
(126,80,o),
(104,80,cs),
(81,80,o),
(64,62,o),
(64,36,cs)
);
}
);
width = 207;
}
);
unicode = 33;
},
{
glyphname = quotedbl;
layers = (
{
layerId = "A25775AA-C32B-429E-A370-B71F346E2F61";
shapes = (
{
closed = 1;
nodes = (
(236,406,l),
(338,406,l),
(354,648,l),
(221,648,l)
);
},
{
closed = 1;
nodes = (
(55,406,l),
(157,406,l),
(172,648,l),
(39,648,l)
);
}
);
width = 393;
},
{
layerId = "01F57539-F702-4EC8-9BFC-18F609AC6CA6";
shapes = (
{
closed = 1;
nodes = (
(230,410,l),
(322,410,l),
(338,647,l),
(215,647,l)
);
},
{
closed = 1;
nodes = (
(57,410,l),
(149,410,l),
(164,647,l),
(41,647,l)
);
}
);
width = 379;
},
{
layerId = "7731FD6D-FAB0-4FA8-8A0E-241F62E50EBE";
shapes = (
{
closed = 1;
nodes = (
(205,428,l),
(257,428,l),
(273,645,l),
(190,645,l)
);
},
{
closed = 1;
nodes = (
(67,428,l),
(119,428,l),
(134,645,l),
(51,645,l)
);
}
);
width = 324;
},
{
layerId = "34019E5C-CFBD-41F4-A079-921E83AB1F7F";
shapes = (
{
closed = 1;
nodes = (
(200,428,l),
(232,428,l),
(243,645,l),
(190,645,l)
);
},
{
closed = 1;
nodes = (
(62,428,l),
(94,428,l),
(104,645,l),
(51,645,l)
);
}
);
width = 294;
}
);
leftKerningGroup = _quotesingle;
rightKerningGroup = _quotesingle;
unicode = 34;
},
{
glyphname = numbersign;
layers = (
{
layerId = "A25775AA-C32B-429E-A370-B71F346E2F61";
shapes = (
{
closed = 1;
nodes = (
(235,307,l),
(258,444,l),
(376,444,l),
(355,307,l)
);
},
{
closed = 1;
nodes = (
(93,0,l),
(185,0,l),
(220,214,l),
(340,214,l),
(306,0,l),
(399,0,l),
(434,214,l),
(552,214,l),
(552,307,l),
(447,307,l),
(469,444,l),
(586,444,l),
(586,537,l),
(484,537,l),
(517,740,l),
(425,740,l),
(393,536,l),
(272,536,l),
(304,740,l),
(212,740,l),
(181,537,l),
(70,537,l),
(70,444,l),
(166,444,l),
(143,307,l),
(35,307,l),
(35,214,l),
(126,214,l)
);
}
);
width = 616;
},
{
layerId = "01F57539-F702-4EC8-9BFC-18F609AC6CA6";
shapes = (
{
closed = 1;
nodes = (
(234,302,l),
(258,449,l),
(382,449,l),
(359,302,l)
);
},
{
closed = 1;
nodes = (
(98,0,l),
(185,0,l),
(220,214,l),
(345,214,l),
(311,0,l),
(399,0,l),
(434,214,l),
(552,214,l),
(552,302,l),
(446,302,l),
(470,449,l),
(586,449,l),
(586,537,l),
(484,537,l),
(517,740,l),
(430,740,l),
(398,536,l),
(272,536,l),
(304,740,l),
(217,740,l),
(186,537,l),
(70,537,l),
(70,449,l),
(171,449,l),
(147,302,l),
(35,302,l),
(35,214,l),
(131,214,l)
);
}
);
width = 617;
},
{
layerId = "7731FD6D-FAB0-4FA8-8A0E-241F62E50EBE";
shapes = (
{
closed = 1;
nodes = (
(230,282,l),
(260,469,l),
(406,469,l),
(376,282,l)
);
},
{
closed = 1;
nodes = (
(118,0,l),
(185,0,l),
(220,214,l),
(365,214,l),
(331,0,l),
(399,0,l),
(434,214,l),
(552,214,l),
(552,282,l),
(443,282,l),
(474,469,l),
(586,469,l),
(586,537,l),
(484,537,l),
(517,740,l),
(450,740,l),
(418,536,l),
(271,536,l),
(304,740,l),
(237,740,l),
(205,537,l),
(70,537,l),
(70,469,l),
(193,469,l),
(163,282,l),
(35,282,l),
(35,214,l),
(151,214,l)
);
}
);
width = 620;
},
{
layerId = "34019E5C-CFBD-41F4-A079-921E83AB1F7F";
shapes = (
{
closed = 1;
nodes = (
(211,264,l),
(249,489,l),
(431,489,l),
(393,264,l)
);
},
{
closed = 1;
nodes = (
(125,0,l),
(167,0,l),
(204,224,l),
(387,224,l),
(349,0,l),
(391,0,l),
(429,224,l),
(552,224,l),
(552,264,l),
(435,264,l),
(473,489,l),
(586,489,l),
(586,527,l),
(479,527,l),
(515,740,l),
(473,740,l),
(437,526,l),
(255,526,l),
(290,740,l),
(249,740,l),
(213,527,l),
(70,527,l),
(70,489,l),
(207,489,l),
(170,264,l),
(35,264,l),
(35,224,l),
(163,224,l)
);
}
);
width = 620;
}
);
unicode = 35;
},
{
glyphname = percent;
layers = (
{
layerId = "A25775AA-C32B-429E-A370-B71F346E2F61";
shapes = (
{
closed = 1;
nodes = (
(136,0,l),
(226,0,l),
(663,750,l),
(573,750,l)
);
},
{
closed = 1;
nodes = (
(415,80,o),
(477,-12,o),
(589,-12,cs),
(706,-12,o),
(767,80,o),
(767,182,cs),
(767,283,o),
(704,374,o),
(592,374,cs),
(481,374,o),
(415,283,o),
(415,182,cs)
);
},
{
closed = 1;
nodes = (
(537,235,o),
(553,285,o),
(592,285,cs),
(631,285,o),
(645,232,o),
(645,182,cs),
(645,124,o),
(627,78,o),
(589,78,cs),
(550,78,o),
(537,128,o),
(537,182,cs)
);
},
{
closed = 1;
nodes = (
(26,456,o),
(88,365,o),
(201,365,cs),
(318,365,o),
(378,456,o),
(378,558,cs),
(378,659,o),
(315,750,o),
(204,750,cs),
(92,750,o),
(26,659,o),
(26,558,cs)
);
},
{
closed = 1;
nodes = (
(148,605,o),
(165,648,o),
(204,648,cs),
(243,648,o),
(256,602,o),
(256,558,cs),
(256,500,o),
(239,454,o),
(201,454,cs),
(162,454,o),
(148,504,o),
(148,558,cs)
);
}
);
width = 794;
},
{
layerId = "01F57539-F702-4EC8-9BFC-18F609AC6CA6";
shapes = (
{
closed = 1;
nodes = (
(142,0,l),
(227,0,l),
(664,750,l),
(579,750,l)
);
},
{
closed = 1;
nodes = (
(424,79,o),
(485,-11,o),
(596,-11,cs),
(711,-11,o),
(771,79,o),
(771,181,cs),
(771,282,o),
(709,372,o),
(599,372,cs),
(489,372,o),
(424,282,o),
(424,181,cs)
);
},
{
closed = 1;
nodes = (
(536,238,o),
(555,290,o),
(599,290,cs),
(644,290,o),
(659,235,o),
(659,181,cs),
(659,119,o),
(639,71,o),
(596,71,cs),
(552,71,o),
(536,123,o),
(536,181,cs)
);
},
{
closed = 1;
nodes = (
(27,457,o),
(88,367,o),
(199,367,cs),
(314,367,o),
(374,457,o),
(374,559,cs),
(374,660,o),
(312,750,o),
(202,750,cs),
(92,750,o),
(27,660,o),
(27,559,cs)
);
},
{
closed = 1;
nodes = (
(139,611,o),
(158,658,o),
(202,658,cs),
(247,658,o),
(262,608,o),
(262,559,cs),
(262,497,o),
(242,449,o),
(199,449,cs),
(155,449,o),
(139,501,o),
(139,559,cs)
);
}
);
width = 799;
},
{
layerId = "7731FD6D-FAB0-4FA8-8A0E-241F62E50EBE";
shapes = (
{
closed = 1;
nodes = (
(165,0,l),
(230,0,l),
(667,750,l),
(602,750,l)
);
},
{
closed = 1;
nodes = (
(462,76,o),
(519,-9,o),
(624,-9,cs),
(732,-9,o),
(789,76,o),
(789,178,cs),
(789,279,o),
(731,364,o),
(627,364,cs),
(523,364,o),
(462,279,o),
(462,178,cs)
);
},
{
closed = 1;
nodes = (
(534,250,o),
(562,312,o),
(627,312,cs),
(695,312,o),
(717,247,o),
(717,178,cs),
(717,98,o),
(688,43,o),
(624,43,cs),
(559,43,o),
(534,105,o),
(534,178,cs)
);
},
{
closed = 1;
nodes = (
(30,462,o),
(87,377,o),
(192,377,cs),
(300,377,o),
(357,462,o),
(357,564,cs),
(357,665,o),
(299,750,o),
(195,750,cs),
(91,750,o),
(30,665,o),
(30,564,cs)
);
},
{
closed = 1;
nodes = (
(102,636,o),
(130,698,o),
(195,698,cs),
(263,698,o),
(285,633,o),
(285,564,cs),
(285,484,o),
(256,429,o),
(192,429,cs),
(127,429,o),
(102,491,o),
(102,564,cs)
);
}
);
width = 820;
},
{
layerId = "34019E5C-CFBD-41F4-A079-921E83AB1F7F";
shapes = (
{
closed = 1;
nodes = (
(170,0,l),
(215,0,l),
(652,750,l),
(607,750,l)
);
},
{
closed = 1;
nodes = (
(462,77,o),
(514,-8,o),
(619,-8,cs),
(727,-8,o),
(779,77,o),
(779,179,cs),
(779,280,o),
(726,365,o),
(622,365,cs),
(518,365,o),
(462,280,o),
(462,179,cs)
);
},
{
closed = 1;
nodes = (
(508,266,o),
(548,331,o),
(622,329,cs),
(701,327,o),
(733,263,o),
(733,179,cs),
(733,83,o),
(693,28,o),
(619,28,cs),
(545,28,o),
(508,91,o),
(508,179,cs)
);
},
{
closed = 1;
nodes = (
(30,462,o),
(82,377,o),
(187,377,cs),
(295,377,o),
(347,462,o),
(347,564,cs),
(347,665,o),
(294,750,o),
(190,750,cs),
(86,750,o),
(30,665,o),
(30,564,cs)
);
},
{
closed = 1;
nodes = (
(76,651,o),
(116,716,o),
(190,714,cs),
(269,712,o),
(301,648,o),
(301,564,cs),
(301,468,o),
(261,413,o),
(187,413,cs),
(113,413,o),
(76,476,o),
(76,564,cs)
);
}
);
width = 810;
}
);
unicode = 37;
},
{
glyphname = ampersand;
layers = (
{
layerId = "A25775AA-C32B-429E-A370-B71F346E2F61";
shapes = (
{
closed = 1;
nodes = (
(11,77,o),
(93,-12,o),
(257,-12,cs),
(352,-12,o),
(416,24,o),
(452,57,c),
(508,0,l),
(542,0,o),
(665,0,o),
(692,0,c),
(543,155,l),
(564,185,o),
(596,246,o),
(615,303,c),
(500,349,l),
(488,312,o),
(471,272,o),
(455,244,c),
(304,401,ls),
(258,449,o),
(242,478,o),
(242,509,cs),
(242,544,o),
(261,567,o),
(295,567,cs),
(325,567,o),
(352,543,o),
(352,511,cs),
(352,482,o),
(335,461,o),
(316,448,c),
(393,373,l),
(442,394,o),
(491,448,o),
(491,509,cs),
(491,594,o),
(414,670,o),
(297,670,cs),
(168,670,o),
(95,603,o),
(95,500,cs),
(95,452,o),
(124,408,o),
(151,379,c),
(81,350,o),
(11,290,o),
(11,189,cs)
);
},
{
closed = 1;
nodes = (
(166,250,o),
(197,278,o),
(225,291,c),
(369,141,l),
(360,130,o),
(328,106,o),
(277,106,cs),
(210,106,o),
(166,141,o),
(166,194,cs)
);
}
);
width = 679;
},
{
layerId = "01F57539-F702-4EC8-9BFC-18F609AC6CA6";
shapes = (
{
closed = 1;
nodes = (
(15,76,o),
(98,-11,o),
(257,-11,cs),
(355,-11,o),
(420,26,o),
(456,61,c),
(516,0,l),
(547,0,o),
(661,0,o),
(685,0,c),
(539,151,l),
(561,183,o),
(592,243,o),
(612,300,c),
(505,343,l),
(493,305,o),
(475,263,o),
(458,233,c),
(303,393,l),
(254,444,o),
(234,476,o),
(234,513,cs),
(234,550,o),
(255,574,o),
(293,574,cs),
(326,574,o),
(354,549,o),
(354,514,cs),
(354,482,o),
(336,459,o),
(314,445,c),
(384,375,l),
(435,398,o),
(482,450,o),
(482,513,cs),
(482,598,o),
(407,670,o),
(295,670,cs),
(173,670,o),
(100,606,o),
(100,506,cs),
(100,455,o),
(129,410,o),
(158,379,c),
(85,349,o),
(15,289,o),
(15,188,cs)
);
},
{
closed = 1;
nodes = (
(156,251,o),
(191,283,o),
(225,299,c),
(380,139,l),
(366,122,o),
(327,97,o),
(275,97,cs),
(203,97,o),
(156,134,o),
(156,193,cs)
);
}
);
width = 675;
},
{
layerId = "7731FD6D-FAB0-4FA8-8A0E-241F62E50EBE";
shapes = (
{
closed = 1;
nodes = (
(30,74,o),
(120,-8,o),
(258,-8,cs),
(366,-8,o),
(436,36,o),
(474,78,c),
(550,0,l),
(569,0,o),
(644,0,o),
(658,0,c),
(523,136,l),
(550,176,o),
(578,230,o),
(599,289,c),
(527,318,l),
(513,276,o),
(491,226,o),
(469,191,c),
(301,361,l),
(239,423,o),
(204,469,o),
(204,528,cs),
(204,573,o),
(233,604,o),
(284,604,cs),
(331,604,o),
(364,572,o),
(364,525,cs),
(364,484,o),
(342,453,o),
(307,434,c),
(348,385,l),
(406,414,o),
(446,460,o),
(446,530,cs),
(446,613,o),
(378,670,o),
(286,670,cs),
(195,670,o),
(120,617,o),
(120,529,cs),
(120,469,o),
(151,419,o),
(185,380,c),
(100,345,o),
(30,284,o),
(30,186,cs)
);
},
{
closed = 1;
nodes = (
(116,255,o),
(168,302,o),
(227,330,c),
(423,131,l),
(392,89,o),
(324,60,o),
(268,60,cs),
(177,60,o),
(116,105,o),
(116,188,cs)
);
}
);
width = 658;
},
{
layerId = "34019E5C-CFBD-41F4-A079-921E83AB1F7F";
shapes = (
{
closed = 1;
nodes = (
(30,74,o),
(124,-8,o),
(255,-8,cs),
(362,-8,o),
(429,31,o),
(482,90,c),
(570,0,l),
(581,0,o),
(623,0,o),
(632,0,c),
(508,128,l),
(535,169,o),
(566,232,o),
(586,294,c),
(544,311,l),
(526,252,o),
(496,188,o),
(477,159,c),
(260,382,l),
(215,427,o),
(176,467,o),
(176,534,cs),
(176,583,o),
(205,628,o),
(277,628,cs),
(343,628,o),
(380,585,o),
(380,529,cs),
(380,474,o),
(349,439,o),
(297,414,c),
(324,382,l),
(399,418,o),
(434,468,o),
(434,533,cs),
(434,616,o),
(371,670,o),
(280,670,cs),
(197,670,o),
(122,621,o),
(122,533,cs),
(122,469,o),
(160,421,o),
(202,378,c),
(89,336,o),
(30,283,o),
(30,180,cs)
);
},
{
closed = 1;
nodes = (
(84,259,o),
(131,309,o),
(234,346,c),
(451,122,l),
(424,87,o),
(357,34,o),
(262,34,cs),
(157,34,o),
(84,93,o),
(84,182,cs)
);
}
);
width = 622;
}
);
unicode = 38;
},
{
glyphname = quotesingle;
layers = (
{
layerId = "A25775AA-C32B-429E-A370-B71F346E2F61";
shapes = (
{
closed = 1;
nodes = (
(55,406,l),
(157,406,l),
(172,648,l),
(39,648,l)
);
}
);
width = 210;
},
{
layerId = "01F57539-F702-4EC8-9BFC-18F609AC6CA6";
shapes = (
{
closed = 1;
nodes = (
(57,410,l),
(149,410,l),
(164,647,l),
(41,647,l)
);
}
);
width = 205;
},
{
layerId = "7731FD6D-FAB0-4FA8-8A0E-241F62E50EBE";
shapes = (
{
closed = 1;
nodes = (
(66,428,l),
(118,428,l),
(134,645,l),
(51,645,l)
);
}
);
width = 185;
},
{
layerId = "34019E5C-CFBD-41F4-A079-921E83AB1F7F";
shapes = (
{
closed = 1;
nodes = (
(61,428,l),
(93,428,l),
(104,645,l),
(51,645,l)
);
}
);
width = 155;
}
);
leftKerningGroup = _quotesingle;
rightKerningGroup = _quotesingle;
unicode = 39;
},
{
glyphname = parenleft;
layers = (
{
layerId = "A25775AA-C32B-429E-A370-B71F346E2F61";
shapes = (
{
closed = 1;
nodes = (
(38,91,o),
(114,-48,o),
(199,-153,c),
(286,-99,l),
(220,22,o),
(175,132,o),
(175,279,cs),
(175,426,o),
(226,560,o),
(286,664,c),
(201,710,l),
(109,614,o),
(38,466,o),
(38,279,cs)
);
}
);
width = 314;
},
{
layerId = "01F57539-F702-4EC8-9BFC-18F609AC6CA6";
shapes = (
{
closed = 1;
nodes = (
(40,91,o),
(117,-47,o),
(201,-153,c),
(281,-104,l),
(212,18,o),
(167,130,o),
(167,279,cs),
(167,428,o),
(218,561,o),
(281,666,c),
(203,710,l),
(114,614,o),
(40,466,o),
(40,279,cs)
);
}
);
width = 311;
},
{
layerId = "7731FD6D-FAB0-4FA8-8A0E-241F62E50EBE";
shapes = (
{
closed = 1;
nodes = (
(50,91,o),
(131,-43,o),
(211,-153,c),
(261,-124,l),
(182,4,o),
(137,122,o),
(137,279,cs),
(137,436,o),
(188,565,o),
(261,676,c),
(213,710,l),
(134,614,o),
(50,466,o),
(50,279,cs)
);
}
);
width = 301;
},
{
layerId = "34019E5C-CFBD-41F4-A079-921E83AB1F7F";
shapes = (
{
closed = 1;
nodes = (
(50,95,o),
(128,-43,o),
(208,-153,c),
(246,-131,l),
(155,0,o),
(104,118,o),
(104,279,cs),
(104,440,o),
(160,571,o),
(245,685,c),
(210,710,l),
(131,614,o),
(50,466,o),
(50,279,cs)
);
}
);
width = 286;
}
);
leftKerningGroup = _bracketleft;
rightKerningGroup = _bracketleft;
unicode = 40;
},
{
glyphname = parenright;
layers = (
{
layerId = "A25775AA-C32B-429E-A370-B71F346E2F61";
shapes = (
{
closed = 1;
nodes = (
(116,-153,l),
(201,-45,o),
(276,91,o),
(276,279,cs),
(276,466,o),
(204,618,o),
(113,710,c),
(28,662,l),
(87,563,o),
(139,426,o),
(139,279,cs),
(139,132,o),
(96,25,o),
(28,-100,c)
);
}
);
width = 314;
},
{
layerId = "01F57539-F702-4EC8-9BFC-18F609AC6CA6";
shapes = (
{
closed = 1;
nodes = (
(110,-153,l),
(194,-47,o),
(271,91,o),
(271,279,cs),
(271,466,o),
(197,614,o),
(108,710,c),
(30,666,l),
(93,561,o),
(144,428,o),
(144,279,cs),
(144,130,o),
(99,18,o),
(30,-104,c)
);
}
);
width = 311;
},
{
layerId = "7731FD6D-FAB0-4FA8-8A0E-241F62E50EBE";
shapes = (
{
closed = 1;
nodes = (
(88,-153,l),
(167,-57,o),
(251,91,o),
(251,278,cs),
(251,466,o),
(170,600,o),
(90,710,c),
(40,681,l),
(119,553,o),
(164,435,o),
(164,278,cs),
(164,121,o),
(113,-8,o),
(40,-119,c)
);
}
);
width = 301;
},
{
layerId = "34019E5C-CFBD-41F4-A079-921E83AB1F7F";
shapes = (
{
closed = 1;
nodes = (
(76,-153,l),
(155,-57,o),
(236,91,o),
(236,278,cs),
(236,462,o),
(158,600,o),
(78,710,c),
(40,688,l),
(131,557,o),
(182,439,o),
(182,278,cs),
(182,117,o),
(126,-14,o),
(41,-128,c)
);
}
);
width = 286;
}
);
leftKerningGroup = _bracketright;
rightKerningGroup = _bracketright;
unicode = 41;
},
{
glyphname = asterisk;
layers = (
{
layerId = "A25775AA-C32B-429E-A370-B71F346E2F61";
shapes = (
{
closed = 1;
nodes = (
(56,407,l),
(133,350,l),
(179,412,l),
(202,486,l),
(224,413,l),
(269,350,l),
(347,407,l),
(300,470,l),
(239,513,l),
(315,510,l),
(388,535,l),
(359,624,l),
(286,601,l),
(223,559,l),
(251,627,l),
(251,703,l),
(154,703,l),
(154,627,l),
(183,559,l),
(118,602,l),
(45,624,l),
(15,535,l),
(91,511,l),
(164,513,l),
(104,469,l)
);
}
);
width = 393;
},
{
layerId = "01F57539-F702-4EC8-9BFC-18F609AC6CA6";
shapes = (
{
closed = 1;
nodes = (
(56,408,l),
(127,355,l),
(172,415,l),
(197,489,l),
(221,416,l),
(264,355,l),
(336,408,l),
(291,469,l),
(231,514,l),
(307,513,l),
(378,537,l),
(351,619,l),
(281,597,l),
(216,556,l),
(242,626,l),
(242,699,l),
(152,699,l),
(152,626,l),
(179,556,l),
(113,598,l),
(42,619,l),
(15,537,l),
(88,514,l),
(162,514,l),
(102,468,l)
);
}
);
width = 383;
},
{
layerId = "7731FD6D-FAB0-4FA8-8A0E-241F62E50EBE";
shapes = (
{
closed = 1;
nodes = (
(57,412,l),
(104,377,l),
(143,429,l),
(176,500,l),
(209,429,l),
(246,377,l),
(294,412,l),
(256,464,l),
(199,517,l),
(277,527,l),
(338,546,l),
(320,601,l),
(260,583,l),
(189,545,l),
(206,622,l),
(206,684,l),
(146,684,l),
(146,622,l),
(164,545,l),
(92,583,l),
(32,601,l),
(14,546,l),
(75,527,l),
(153,517,l),
(96,464,l)
);
}
);
width = 342;
},
{
layerId = "34019E5C-CFBD-41F4-A079-921E83AB1F7F";
shapes = (
{
closed = 1;
nodes = (
(62,406,l),
(94,383,l),
(133,435,l),
(174,504,l),
(215,435,l),
(252,383,l),
(284,406,l),
(246,458,l),
(192,518,l),
(272,536,l),
(333,555,l),
(321,593,l),
(261,575,l),
(184,540,l),
(194,622,l),
(194,684,l),
(154,684,l),
(154,622,l),
(164,540,l),
(87,574,l),
(27,592,l),
(15,554,l),
(76,535,l),
(156,518,l),
(101,458,l)
);
}
);
width = 338;
}
);
unicode = 42;
},
{
glyphname = plus;
layers = (
{
layerId = "A25775AA-C32B-429E-A370-B71F346E2F61";
shapes = (
{
closed = 1;
nodes = (
(28,249,l),
(224,249,l),
(224,53,l),
(326,53,l),
(326,249,l),
(522,249,l),
(522,351,l),
(326,351,l),
(326,547,l),
(224,547,l),
(224,351,l),
(28,351,l)
);
}
);
width = 550;
},
{
layerId = "01F57539-F702-4EC8-9BFC-18F609AC6CA6";
shapes = (
{
closed = 1;
nodes = (
(30,254,l),
(229,254,l),
(229,55,l),
(323,55,l),
(323,254,l),
(522,254,l),
(522,348,l),
(323,348,l),
(323,547,l),
(229,547,l),
(229,348,l),
(30,348,l)
);
}
);
width = 552;
},
{
layerId = "7731FD6D-FAB0-4FA8-8A0E-241F62E50EBE";
shapes = (
{
closed = 1;
nodes = (
(40,274,l),
(249,274,l),
(249,65,l),
(313,65,l),
(313,274,l),
(522,274,l),
(522,338,l),
(313,338,l),
(313,547,l),
(249,547,l),
(249,338,l),
(40,338,l)
);
}
);
width = 562;
},
{
layerId = "34019E5C-CFBD-41F4-A079-921E83AB1F7F";
shapes = (
{
closed = 1;
nodes = (
(40,285,l),
(258,285,l),
(258,65,l),
(304,65,l),
(304,285,l),
(522,285,l),
(522,327,l),
(304,327,l),
(304,547,l),
(258,547,l),
(258,327,l),
(40,327,l)
);
}
);
width = 562;
}
);
unicode = 43;
},
{
glyphname = comma;
layers = (
{
layerId = "F3DD9027-1EA0-47D2-8A1E-16FEA0668E69";
name = "#instance";
shapes = (
{
closed = 1;
nodes = (
(42,-125,l),
(93,-99,o),
(139,-44,o),
(139,16,cs),
(139,68,o),
(112,82,o),
(91,82,cs),
(67,82,o),
(50,64,o),
(50,40,cs),
(50,12,o),
(67,-4,o),
(90,-8,cs),
(95,-9,l),
(89,-42,o),
(62,-77,o),
(22,-97,c)
);
}
);
width = 162;
},
{
layerId = "A25775AA-C32B-429E-A370-B71F346E2F61";
shapes = (
{
closed = 1;
nodes = (
(75,-191,l),
(147,-154,o),
(224,-64,o),
(224,41,cs),
(224,136,o),
(172,176,o),
(125,176,cs),
(65,176,o),
(32,135,o),
(32,86,cs),
(32,37,o),
(61,0,o),
(112,-12,cs),
(125,-15,l),
(116,-62,o),
(75,-107,o),
(31,-131,c)
);
}
);
width = 254;
},
{
layerId = "01F57539-F702-4EC8-9BFC-18F609AC6CA6";
shapes = (
{
closed = 1;
nodes = (
(75,-182,l),
(145,-146,o),
(216,-61,o),
(216,37,cs),
(216,129,o),
(166,164,o),
(122,164,cs),
(66,164,o),
(35,125,o),
(35,80,cs),
(35,34,o),
(62,-1,o),
(110,-11,cs),
(124,-14,l),
(115,-61,o),
(76,-103,o),
(34,-126,c)
);
}
);
width = 246;
},
{
layerId = "7731FD6D-FAB0-4FA8-8A0E-241F62E50EBE";
shapes = (
{
closed = 1;
nodes = (
(74,-148,l),
(138,-113,o),
(184,-50,o),
(184,22,cs),
(184,101,o),
(143,117,o),
(112,117,cs),
(72,117,o),
(49,87,o),
(49,55,cs),
(49,24,o),
(67,-5,o),
(101,-9,c),
(119,-12,l),
(110,-59,o),
(80,-89,o),
(45,-108,c)
);
}
);
width = 214;
},
{
layerId = "34019E5C-CFBD-41F4-A079-921E83AB1F7F";
shapes = (
{
closed = 1;
nodes = (
(42,-125,l),
(93,-99,o),
(139,-44,o),
(139,16,cs),
(139,68,o),
(112,82,o),
(91,82,cs),
(67,82,o),
(50,64,o),
(50,40,cs),
(50,12,o),
(67,-4,o),
(90,-8,c),
(95,-9,l),
(89,-42,o),
(62,-77,o),
(22,-97,c)
);
}
);
width = 162;
}
);
leftKerningGroup = _period;
rightKerningGroup = _period;
unicode = 44;
},
{
glyphname = hyphen;
layers = (
{
layerId = "A25775AA-C32B-429E-A370-B71F346E2F61";
shapes = (
{
closed = 1;
nodes = (
(30,229,l),
(250,229,l),
(250,346,l),
(30,346,l)
);
}
);
width = 280;
},
{
layerId = "01F57539-F702-4EC8-9BFC-18F609AC6CA6";
shapes = (
{
closed = 1;
nodes = (
(30,234,l),
(250,234,l),
(250,343,l),
(30,343,l)
);
}
);
width = 280;
},
{
layerId = "7731FD6D-FAB0-4FA8-8A0E-241F62E50EBE";
shapes = (
{
closed = 1;
nodes = (
(30,254,l),
(250,254,l),
(250,333,l),
(30,333,l)
);
}
);
width = 280;
},
{
layerId = "34019E5C-CFBD-41F4-A079-921E83AB1F7F";
shapes = (
{
closed = 1;
nodes = (
(30,269,l),
(250,269,l),
(250,313,l),
(30,313,l)
);
}
);
width = 280;
}
);
unicode = 45;
},
{
glyphname = period;
layers = (
{
layerId = "A25775AA-C32B-429E-A370-B71F346E2F61";
shapes = (
{
closed = 1;
nodes = (
(43,25,o),
(86,-12,o),
(135,-12,cs),
(186,-12,o),
(226,25,o),
(226,83,cs),
(226,137,o),
(186,176,o),
(135,176,cs),
(86,176,o),
(43,137,o),
(43,83,cs)
);
}
);
width = 249;
},
{
layerId = "01F57539-F702-4EC8-9BFC-18F609AC6CA6";
shapes = (
{
closed = 1;
nodes = (
(45,23,o),
(85,-11,o),
(131,-11,cs),
(178,-11,o),
(216,23,o),
(216,77,cs),
(216,127,o),
(178,164,o),
(131,164,cs),
(85,164,o),
(45,127,o),
(45,77,cs)
);
}
);
width = 241;
},
{
layerId = "7731FD6D-FAB0-4FA8-8A0E-241F62E50EBE";
shapes = (
{
closed = 1;
nodes = (
(54,16,o),
(82,-9,o),
(115,-9,cs),
(148,-9,o),
(175,16,o),
(175,54,cs),
(175,89,o),
(148,116,o),
(115,116,cs),
(82,116,o),
(54,89,o),
(54,54,cs)
);
}
);
width = 211;
},
{
layerId = "34019E5C-CFBD-41F4-A079-921E83AB1F7F";
shapes = (
{
closed = 1;
nodes = (
(40,8,o),
(57,-8,o),
(80,-8,cs),
(102,-8,o),
(120,8,o),
(120,36,cs),
(120,62,o),
(102,80,o),
(80,80,cs),
(57,80,o),
(40,62,o),
(40,36,cs)
);
}
);
width = 145;
}
);
leftKerningGroup = _period;
rightKerningGroup = _period;
unicode = 46;
},
{
glyphname = slash;
layers = (
{
layerId = "A25775AA-C32B-429E-A370-B71F346E2F61";
shapes = (
{
closed = 1;
nodes = (
(-1,-109,l),
(112,-109,l),
(366,750,l),
(253,750,l)
);
}
);
width = 363;
},
{
layerId = "01F57539-F702-4EC8-9BFC-18F609AC6CA6";
shapes = (
{
closed = 1;
nodes = (
(-1,-109,l),
(104,-109,l),
(368,750,l),
(263,750,l)
);
}
);
width = 365;
},
{
layerId = "7731FD6D-FAB0-4FA8-8A0E-241F62E50EBE";
shapes = (
{
closed = 1;
nodes = (
(-1,-109,l),
(74,-109,l),
(378,750,l),
(303,750,l)
);
}
);
width = 375;
},
{
layerId = "34019E5C-CFBD-41F4-A079-921E83AB1F7F";
shapes = (
{
closed = 1;
nodes = (
(-1,-109,l),
(46,-109,l),
(378,750,l),
(331,750,l)
);
}
);
width = 375;
}
);
unicode = 47;
},
{
glyphname = zero;
layers = (
{
layerId = "A25775AA-C32B-429E-A370-B71F346E2F61";
shapes = (
{
closed = 1;
nodes = (
(31,88,o),
(146,-12,o),
(301,-12,cs),
(443,-12,o),
(571,94,o),
(571,318,cs),
(571,548,o),
(457,643,o),
(302,643,cs),
(159,643,o),
(31,538,o),
(31,318,cs)
);
},
{
closed = 1;
nodes = (
(198,478,o),
(247,524,o),
(302,524,cs),
(357,524,o),
(404,474,o),
(404,318,cs),
(404,158,o),
(357,108,o),
(302,108,cs),
(247,108,o),
(198,160,o),
(198,318,cs)
);
}
);
width = 600;
},
{
layerId = "01F57539-F702-4EC8-9BFC-18F609AC6CA6";
shapes = (
{
closed = 1;
nodes = (
(33,87,o),
(146,-11,o),
(298,-11,cs),
(438,-11,o),
(563,92,o),
(563,317,cs),
(563,547,o),
(451,642,o),
(299,642,cs),
(159,642,o),
(33,537,o),
(33,317,cs)
);
},
{
closed = 1;
nodes = (
(185,485,o),
(239,533,o),
(299,533,cs),
(359,533,o),
(411,484,o),
(411,317,cs),
(411,149,o),
(359,98,o),
(299,98,cs),
(239,98,o),
(185,149,o),
(185,317,cs)
);
}
);
width = 595;
},
{
layerId = "7731FD6D-FAB0-4FA8-8A0E-241F62E50EBE";
shapes = (
{
closed = 1;
nodes = (
(43,85,o),
(148,-9,o),
(288,-9,cs),
(418,-9,o),
(533,85,o),
(533,315,cs),
(533,545,o),
(428,639,o),
(288,639,cs),
(158,639,o),
(43,535,o),
(43,315,cs)
);
},
{
closed = 1;
nodes = (
(135,515,o),
(207,570,o),
(287,570,cs),
(367,570,o),
(441,524,o),
(441,315,cs),
(441,115,o),
(369,60,o),
(289,60,cs),
(209,60,o),
(135,105,o),
(135,315,cs)
);
}
);
width = 575;
},
{
layerId = "34019E5C-CFBD-41F4-A079-921E83AB1F7F";
shapes = (
{
closed = 1;
nodes = (
(53,95,o),
(160,-8,o),
(289,-8,cs),
(416,-8,o),
(523,95,o),
(523,315,cs),
(523,535,o),
(418,638,o),
(289,638,cs),
(160,638,o),
(53,525,o),
(53,315,cs)
);
},
{
closed = 1;
nodes = (
(105,509,o),
(191,596,o),
(286,596,cs),
(381,596,o),
(471,518,o),
(471,315,cs),
(471,121,o),
(386,34,o),
(291,34,cs),
(196,34,o),
(105,111,o),
(105,315,cs)
);
}
);
width = 575;
}
);
unicode = 48;
},
{
glyphname = one;
layers = (
{
layerId = "F3DD9027-1EA0-47D2-8A1E-16FEA0668E69";
name = "#instance";
shapes = (
{
closed = 1;
nodes = (
(67,515,l),
(198,572,l),
(198,0,l),
(249,0,l),
(249,630,l),
(210,630,l),
(55,559,l)
);
}
);
width = 339;
},
{
layerId = "A25775AA-C32B-429E-A370-B71F346E2F61";
shapes = (
{
closed = 1;
nodes = (
(80,430,l),
(201,488,l),
(201,0,l),
(362,0,l),
(362,630,l),
(223,630,l),
(43,547,l)
);
}
);
width = 439;
},
{
layerId = "01F57539-F702-4EC8-9BFC-18F609AC6CA6";
shapes = (
{
closed = 1;
nodes = (
(79,441,l),
(198,498,l),
(198,0,l),
(344,0,l),
(344,630,l),
(220,630,l),
(45,549,l)
);
}
);
width = 424;
},
{
layerId = "7731FD6D-FAB0-4FA8-8A0E-241F62E50EBE";
shapes = (
{
closed = 1;
nodes = (
(75,486,l),
(188,538,l),
(188,0,l),
(274,0,l),
(274,630,l),
(210,630,l),
(55,559,l)
);
}
);
width = 364;
},
{
layerId = "34019E5C-CFBD-41F4-A079-921E83AB1F7F";
shapes = (
{
closed = 1;
nodes = (
(67,515,l),
(198,572,l),
(198,0,l),
(249,0,l),
(249,630,l),
(210,630,l),
(55,559,l)
);
}
);
width = 339;
}
);
unicode = 49;
},
{
glyphname = two;
layers = (
{
layerId = "A25775AA-C32B-429E-A370-B71F346E2F61";
shapes = (
{
closed = 1;
nodes = (
(61,0,l),
(453,0,l),
(453,123,l),
(223,123,l),
(288,184,ls),
(396,284,o),
(450,378,o),
(450,458,cs),
(450,566,o),
(367,643,o),
(248,643,cs),
(144,643,o),
(84,610,o),
(38,572,c),
(103,472,l),
(143,505,o),
(180,521,o),
(220,521,cs),
(252,521,o),
(285,500,o),
(285,443,cs),
(285,381,o),
(253,326,o),
(127,200,cs),
(33,106,l)
);
}
);
width = 496;
},
{
layerId = "01F57539-F702-4EC8-9BFC-18F609AC6CA6";
shapes = (
{
closed = 1;
nodes = (
(61,0,l),
(450,0,l),
(450,113,l),
(209,113,l),
(273,173,ls),
(385,278,o),
(445,373,o),
(445,457,cs),
(445,564,o),
(366,642,o),
(243,642,cs),
(150,642,o),
(91,613,o),
(42,573,c),
(102,481,l),
(143,515,o),
(180,530,o),
(221,530,cs),
(261,530,o),
(295,503,o),
(295,444,cs),
(295,379,o),
(257,319,o),
(127,189,cs),
(35,97,l)
);
}
);
width = 493;
},
{
layerId = "7731FD6D-FAB0-4FA8-8A0E-241F62E50EBE";
shapes = (
{
closed = 1;
nodes = (
(61,0,l),
(440,0,l),
(440,73,l),
(154,73,l),
(213,130,ls),
(343,256,o),
(425,355,o),
(425,452,cs),
(425,558,o),
(362,639,o),
(224,639,cs),
(174,639,o),
(119,627,o),
(60,577,c),
(99,518,l),
(145,554,o),
(181,567,o),
(224,567,cs),
(298,567,o),
(335,517,o),
(335,449,cs),
(335,370,o),
(275,293,o),
(128,146,cs),
(45,63,l)
);
}
);
width = 483;
},
{
layerId = "34019E5C-CFBD-41F4-A079-921E83AB1F7F";
shapes = (
{
closed = 1;
nodes = (
(54,0,l),
(433,0,l),
(433,42,l),
(116,42,l),
(206,130,ls),
(343,270,o),
(408,361,o),
(408,458,cs),
(408,561,o),
(345,638,o),
(221,638,cs),
(171,638,o),
(112,627,o),
(53,577,c),
(76,542,l),
(126,585,o),
(175,596,o),
(221,596,cs),
(309,596,o),
(354,542,o),
(354,456,cs),
(354,356,o),
(297,286,o),
(130,116,cs),
(45,33,l)
);
}
);
width = 476;
}
);
unicode = 50;
},
{
glyphname = three;
layers = (
{
layerId = "F3DD9027-1EA0-47D2-8A1E-16FEA0668E69";
name = "#instance";
shapes = (
{
closed = 1;
nodes = (
(42,24,l),
(82,4,o),
(144,-8,o),
(199,-8,cs),
(305,-8,o),
(417,39,o),
(417,169,cs),
(417,245,o),
(363,303,o),
(289,322,c),
(348,343,o),
(395,396,o),
(395,474,cs),
(395,567,o),
(320,638,o),
(211,638,cs),
(157,638,o),
(104,625,o),
(54,591,c),
(70,556,l),
(121,586,o),
(159,596,o),
(208,596,cs),
(294,596,o),
(345,545,o),
(345,471,cs),
(345,385,o),
(270,337,o),
(180,337,cs),
(122,337,l),
(122,296,l),
(199,296,ls),
(297,296,o),
(365,248,o),
(365,169,cs),
(365,75,o),
(283,34,o),
(198,34,cs),
(142,34,o),
(92,45,o),
(54,64,c)
);
}
);
width = 490;
},
{
layerId = "A25775AA-C32B-429E-A370-B71F346E2F61";
shapes = (
{
closed = 1;
nodes = (
(30,31,l),
(77,5,o),
(140,-12,o),
(216,-12,cs),
(361,-12,o),
(456,53,o),
(456,175,cs),
(456,250,o),
(406,309,o),
(329,325,c),
(386,350,o),
(434,395,o),
(434,473,cs),
(434,566,o),
(352,643,o),
(224,643,cs),
(142,643,o),
(91,626,o),
(47,598,c),
(97,491,l),
(125,511,o),
(158,523,o),
(190,523,cs),
(233,523,o),
(269,503,o),
(269,453,cs),
(269,405,o),
(233,373,o),
(161,373,cs),
(113,373,l),
(113,255,l),
(183,255,ls),
(260,255,o),
(289,219,o),
(289,178,cs),
(289,139,o),
(255,110,o),
(184,110,cs),
(140,110,o),
(102,123,o),
(63,143,c)
);
}
);
width = 506;
},
{
layerId = "01F57539-F702-4EC8-9BFC-18F609AC6CA6";
shapes = (
{
closed = 1;
nodes = (
(32,29,l),
(78,4,o),
(141,-11,o),
(213,-11,cs),
(351,-11,o),
(450,50,o),
(450,175,cs),
(450,250,o),
(399,309,o),
(323,325,c),
(380,349,o),
(428,396,o),
(428,474,cs),
(428,567,o),
(347,642,o),
(222,642,cs),
(146,642,o),
(94,626,o),
(48,597,c),
(94,499,l),
(126,521,o),
(159,532,o),
(193,532,cs),
(240,532,o),
(278,507,o),
(278,456,cs),
(278,402,o),
(238,369,o),
(165,369,cs),
(115,369,l),
(115,261,l),
(186,261,ls),
(263,261,o),
(298,226,o),
(298,178,cs),
(298,130,o),
(257,100,o),
(187,100,cs),
(140,100,o),
(103,113,o),
(63,132,c)
);
}
);
width = 503;
},
{
layerId = "7731FD6D-FAB0-4FA8-8A0E-241F62E50EBE";
shapes = (
{
closed = 1;
nodes = (
(42,22,l),
(84,2,o),
(145,-9,o),
(200,-9,cs),
(311,-9,o),
(427,40,o),
(427,175,cs),
(427,251,o),
(373,309,o),
(300,325,c),
(358,346,o),
(405,400,o),
(405,478,cs),
(405,571,o),
(327,639,o),
(214,639,cs),
(164,639,o),
(105,626,o),
(53,592,c),
(81,531,l),
(132,560,o),
(164,569,o),
(207,569,cs),
(268,569,o),
(315,524,o),
(315,468,cs),
(315,391,o),
(257,354,o),
(180,354,cs),
(122,354,l),
(122,286,l),
(197,286,ls),
(276,286,o),
(335,253,o),
(335,177,cs),
(335,93,o),
(266,62,o),
(199,62,cs),
(139,62,o),
(108,73,o),
(62,90,c)
);
}
);
width = 490;
},
{
layerId = "34019E5C-CFBD-41F4-A079-921E83AB1F7F";
shapes = (
{
closed = 1;
nodes = (
(42,24,l),
(82,4,o),
(144,-8,o),
(199,-8,cs),
(305,-8,o),
(417,39,o),
(417,169,cs),
(417,245,o),
(363,303,o),
(289,322,c),
(348,343,o),
(395,396,o),
(395,474,cs),
(395,567,o),
(320,638,o),
(211,638,cs),
(157,638,o),
(104,625,o),
(54,591,c),
(70,556,l),
(121,586,o),
(159,596,o),
(208,596,cs),
(294,596,o),
(345,545,o),
(345,471,cs),
(345,385,o),
(270,337,o),
(180,337,cs),
(122,337,l),
(122,296,l),
(199,296,ls),
(297,296,o),
(365,248,o),
(365,169,cs),
(365,75,o),
(283,34,o),
(198,34,cs),
(142,34,o),
(92,45,o),
(54,64,c)
);
}
);
width = 490;
}
);
unicode = 51;
},
{
glyphname = four;
layers = (
{
layerId = "A25775AA-C32B-429E-A370-B71F346E2F61";
shapes = (
{
closed = 1;
nodes = (
(20,135,l),
(308,135,l),
(308,0,l),
(465,0,l),
(465,135,l),
(551,135,l),
(551,258,l),
(465,258,l),
(465,630,l),
(261,630,l),
(20,240,l)
);
},
{
closed = 1;
nodes = (
(182,258,l),
(248,369,l),
(312,497,l),
(314,497,l),
(308,365,l),
(308,258,l)
);
}
);
width = 574;
},
{
layerId = "01F57539-F702-4EC8-9BFC-18F609AC6CA6";
shapes = (
{
closed = 1;
nodes = (
(20,140,l),
(310,140,l),
(310,0,l),
(452,0,l),
(452,140,l),
(541,140,l),
(541,253,l),
(452,253,l),
(452,630,l),
(273,630,l),
(20,235,l)
);
},
{
closed = 1;
nodes = (
(169,253,l),
(253,385,l),
(314,504,l),
(316,504,l),
(310,373,l),
(310,253,l)
);
}
);
width = 566;
},
{
layerId = "7731FD6D-FAB0-4FA8-8A0E-241F62E50EBE";
shapes = (
{
closed = 1;
nodes = (
(20,160,l),
(320,160,l),
(320,0,l),
(402,0,l),
(402,160,l),
(501,160,l),
(501,233,l),
(402,233,l),
(402,630,l),
(323,630,l),
(20,215,l)
);
},
{
closed = 1;
nodes = (
(119,233,l),
(274,448,l),
(323,533,l),
(325,533,l),
(320,407,l),
(320,233,l)
);
}
);
width = 536;
},
{
layerId = "34019E5C-CFBD-41F4-A079-921E83AB1F7F";
shapes = (
{
closed = 1;
nodes = (
(20,171,l),
(340,171,l),
(340,0,l),
(392,0,l),
(392,171,l),
(501,171,l),
(501,213,l),
(392,213,l),
(392,630,l),
(333,630,l),
(20,200,l)
);
},
{
closed = 1;
nodes = (
(84,213,l),
(255,448,l),
(343,583,l),
(345,583,l),
(340,442,l),
(340,213,l)
);
}
);
width = 536;
}
);
unicode = 52;
},
{
glyphname = five;
layers = (
{
layerId = "A25775AA-C32B-429E-A370-B71F346E2F61";
shapes = (
{
closed = 1;
nodes = (
(51,25,l),
(89,6,o),
(144,-12,o),
(220,-12,cs),
(405,-12,o),
(484,91,o),
(484,210,cs),
(484,344,o),
(391,409,o),
(268,409,cs),
(254,409,o),
(251,409,o),
(231,407,c),
(243,507,l),
(455,509,l),
(455,632,l),
(123,630,l),
(92,283,l),
(120,288,o),
(155,295,o),
(190,295,cs),
(263,295,o),
(317,261,o),
(317,200,cs),
(317,154,o),
(276,112,o),
(200,112,cs),
(152,112,o),
(119,124,o),
(83,140,c)
);
}
);
width = 538;
},
{
layerId = "01F57539-F702-4EC8-9BFC-18F609AC6CA6";
shapes = (
{
closed = 1;
nodes = (
(53,24,l),
(91,5,o),
(146,-11,o),
(216,-11,cs),
(397,-11,o),
(477,90,o),
(477,209,cs),
(477,344,o),
(379,406,o),
(261,406,cs),
(245,406,o),
(239,406,o),
(220,404,c),
(233,517,l),
(449,519,l),
(449,632,l),
(123,630,l),
(92,290,l),
(122,296,o),
(158,302,o),
(193,302,cs),
(269,302,o),
(325,267,o),
(325,200,cs),
(325,145,o),
(281,102,o),
(200,102,cs),
(153,102,o),
(118,114,o),
(83,130,c)
);
}
);
width = 534;
},
{
layerId = "7731FD6D-FAB0-4FA8-8A0E-241F62E50EBE";
shapes = (
{
closed = 1;
nodes = (
(63,21,l),
(101,2,o),
(154,-9,o),
(201,-9,cs),
(364,-9,o),
(450,86,o),
(450,205,cs),
(450,346,o),
(333,396,o),
(234,396,cs),
(211,396,o),
(191,394,o),
(175,391,c),
(194,557,l),
(427,559,l),
(427,632,l),
(124,630,l),
(93,319,l),
(131,327,o),
(169,332,o),
(205,332,cs),
(292,332,o),
(358,290,o),
(358,202,cs),
(358,111,o),
(300,64,o),
(199,64,cs),
(156,64,o),
(115,76,o),
(83,92,c)
);
}
);
width = 517;
},
{
layerId = "34019E5C-CFBD-41F4-A079-921E83AB1F7F";
shapes = (
{
closed = 1;
nodes = (
(40,19,l),
(73,0,o),
(127,-8,o),
(174,-8,cs),
(318,-8,o),
(407,72,o),
(407,191,cs),
(407,312,o),
(303,376,o),
(191,376,cs),
(161,376,o),
(133,373,o),
(118,370,c),
(141,587,l),
(394,589,l),
(394,632,l),
(101,630,l),
(70,323,l),
(105,332,o),
(135,336,o),
(173,336,cs),
(285,336,o),
(355,277,o),
(355,188,cs),
(355,81,o),
(276,34,o),
(172,34,cs),
(130,34,o),
(82,43,o),
(53,60,c)
);
}
);
width = 474;
}
);
unicode = 53;
},
{
glyphname = six;
layers = (
{
layerId = "A25775AA-C32B-429E-A370-B71F346E2F61";
shapes = (
{
closed = 1;
nodes = (
(33,61,o),
(176,-12,o),
(294,-12,cs),
(437,-12,o),
(527,86,o),
(527,218,cs),
(527,345,o),
(445,427,o),
(325,427,cs),
(276,427,o),
(230,413,o),
(200,391,c),
(210,462,o),
(254,522,o),
(339,522,cs),
(376,522,o),
(406,513,o),
(433,496,c),
(469,614,l),
(428,637,o),
(382,643,o),
(336,643,cs),
(189,643,o),
(33,537,o),
(33,295,cs)
);
},
{
closed = 1;
nodes = (
(198,255,o),
(207,272,o),
(218,283,cs),
(232,295,o),
(255,307,o),
(287,307,cs),
(334,307,o),
(364,275,o),
(364,212,cs),
(364,158,o),
(338,107,o),
(291,107,cs),
(231,107,o),
(198,158,o),
(198,224,cs)
);
}
);
width = 562;
},
{
layerId = "01F57539-F702-4EC8-9BFC-18F609AC6CA6";
shapes = (
{
closed = 1;
nodes = (
(35,64,o),
(172,-11,o),
(289,-11,cs),
(429,-11,o),
(519,84,o),
(519,216,cs),
(519,344,o),
(436,424,o),
(317,424,cs),
(267,424,o),
(219,409,o),
(187,382,c),
(196,465,o),
(243,531,o),
(335,531,cs),
(372,531,o),
(402,522,o),
(429,506,c),
(462,615,l),
(422,636,o),
(378,642,o),
(332,642,cs),
(186,642,o),
(35,539,o),
(35,294,cs)
);
},
{
closed = 1;
nodes = (
(186,253,o),
(193,269,o),
(204,281,cs),
(219,298,o),
(246,314,o),
(283,314,cs),
(337,314,o),
(371,280,o),
(371,211,cs),
(371,151,o),
(340,97,o),
(287,97,cs),
(223,97,o),
(186,153,o),
(186,225,cs)
);
}
);
width = 554;
},
{
layerId = "7731FD6D-FAB0-4FA8-8A0E-241F62E50EBE";
shapes = (
{
closed = 1;
nodes = (
(45,75,o),
(155,-9,o),
(269,-9,cs),
(396,-9,o),
(489,77,o),
(489,209,cs),
(489,340,o),
(399,414,o),
(286,414,cs),
(230,414,o),
(174,393,o),
(137,346,c),
(141,477,o),
(201,568,o),
(318,568,cs),
(355,568,o),
(387,560,o),
(415,548,c),
(436,619,l),
(399,633,o),
(361,639,o),
(315,639,cs),
(174,639,o),
(45,547,o),
(45,289,cs)
);
},
{
closed = 1;
nodes = (
(137,244,o),
(139,259,o),
(147,274,cs),
(168,311,o),
(210,344,o),
(269,344,cs),
(348,344,o),
(401,301,o),
(401,207,cs),
(401,122,o),
(349,59,o),
(272,59,cs),
(191,59,o),
(137,135,o),
(137,230,cs)
);
}
);
width = 524;
},
{
layerId = "34019E5C-CFBD-41F4-A079-921E83AB1F7F";
shapes = (
{
closed = 1;
nodes = (
(45,65,o),
(153,-8,o),
(263,-8,cs),
(382,-8,o),
(469,81,o),
(469,211,cs),
(469,342,o),
(378,414,o),
(270,414,cs),
(187,414,o),
(119,366,o),
(93,320,c),
(100,496,o),
(192,596,o),
(321,596,cs),
(357,596,o),
(385,591,o),
(414,578,c),
(426,619,l),
(389,633,o),
(360,638,o),
(314,638,cs),
(183,638,o),
(45,535,o),
(45,289,cs)
);
},
{
closed = 1;
nodes = (
(97,252,o),
(101,258,o),
(105,271,c),
(126,325,o),
(185,372,o),
(260,372,cs),
(350,372,o),
(417,318,o),
(417,208,cs),
(417,100,o),
(350,34,o),
(265,34,cs),
(171,34,o),
(97,108,o),
(97,231,cs)
);
}
);
width = 504;
}
);
unicode = 54;
},
{
glyphname = seven;
layers = (
{
layerId = "A25775AA-C32B-429E-A370-B71F346E2F61";
shapes = (
{
closed = 1;
nodes = (
(57,34,l),
(200,-27,l),
(462,531,l),
(462,630,l),
(45,630,l),
(45,520,l),
(306,520,l)
);
}
);
width = 495;
},
{
layerId = "01F57539-F702-4EC8-9BFC-18F609AC6CA6";
shapes = (
{
closed = 1;
nodes = (
(66,30,l),
(195,-25,l),
(459,538,l),
(459,630,l),
(47,630,l),
(47,527,l),
(317,527,l)
);
}
);
width = 495;
},
{
layerId = "7731FD6D-FAB0-4FA8-8A0E-241F62E50EBE";
shapes = (
{
closed = 1;
nodes = (
(102,15,l),
(177,-18,l),
(449,568,l),
(449,630,l),
(57,630,l),
(57,557,l),
(361,557,l)
);
}
);
width = 495;
},
{
layerId = "34019E5C-CFBD-41F4-A079-921E83AB1F7F";
shapes = (
{
closed = 1;
nodes = (
(110,12,l),
(157,-9,l),
(449,600,l),
(449,630,l),
(57,630,l),
(57,588,l),
(391,588,l)
);
}
);
width = 495;
}
);
unicode = 55;
},
{
glyphname = eight;
layers = (
{
layerId = "A25775AA-C32B-429E-A370-B71F346E2F61";
shapes = (
{
closed = 1;
nodes = (
(26,67,o),
(112,-12,o),
(259,-12,cs),
(409,-12,o),
(505,72,o),
(505,188,cs),
(505,271,o),
(438,319,o),
(381,334,c),
(441,360,o),
(489,404,o),
(489,476,cs),
(489,558,o),
(420,643,o),
(273,643,cs),
(124,643,o),
(47,547,o),
(47,459,cs),
(47,397,o),
(91,346,o),
(143,322,c),
(84,301,o),
(26,255,o),
(26,173,cs)
);
},
{
closed = 1;
nodes = (
(205,501,o),
(230,527,o),
(267,527,cs),
(307,527,o),
(330,506,o),
(330,461,cs),
(330,432,o),
(304,398,o),
(275,388,c),
(235,396,o),
(205,430,o),
(205,471,cs)
);
},
{
closed = 1;
nodes = (
(190,215,o),
(219,245,o),
(259,258,c),
(306,250,o),
(342,218,o),
(342,179,cs),
(342,138,o),
(307,107,o),
(268,107,cs),
(222,107,o),
(190,132,o),
(190,178,cs)
);
}
);
width = 530;
},
{
layerId = "01F57539-F702-4EC8-9BFC-18F609AC6CA6";
shapes = (
{
closed = 1;
nodes = (
(28,65,o),
(116,-11,o),
(258,-11,cs),
(402,-11,o),
(497,68,o),
(497,184,cs),
(497,266,o),
(435,314,o),
(371,334,c),
(435,361,o),
(481,408,o),
(481,477,cs),
(481,559,o),
(413,642,o),
(269,642,cs),
(124,642,o),
(49,550,o),
(49,462,cs),
(49,399,o),
(93,348,o),
(148,323,c),
(83,298,o),
(28,253,o),
(28,171,cs)
);
},
{
closed = 1;
nodes = (
(192,506,o),
(220,536,o),
(264,536,cs),
(309,536,o),
(337,512,o),
(337,465,cs),
(337,430,o),
(307,396,o),
(271,383,c),
(227,394,o),
(192,427,o),
(192,472,cs)
);
},
{
closed = 1;
nodes = (
(177,219,o),
(210,250,o),
(256,265,c),
(309,254,o),
(349,221,o),
(349,176,cs),
(349,132,o),
(312,97,o),
(265,97,cs),
(211,97,o),
(177,127,o),
(177,175,cs)
);
}
);
width = 525;
},
{
layerId = "7731FD6D-FAB0-4FA8-8A0E-241F62E50EBE";
shapes = (
{
closed = 1;
nodes = (
(38,56,o),
(134,-9,o),
(254,-9,cs),
(376,-9,o),
(467,54,o),
(467,170,cs),
(467,248,o),
(423,295,o),
(331,333,c),
(412,365,o),
(451,423,o),
(451,482,cs),
(451,564,o),
(384,639,o),
(254,639,cs),
(123,639,o),
(59,561,o),
(59,473,cs),
(59,408,o),
(100,357,o),
(168,326,c),
(79,287,o),
(38,244,o),
(38,162,cs)
);
},
{
closed = 1;
nodes = (
(142,527,o),
(180,573,o),
(254,573,cs),
(316,573,o),
(367,536,o),
(367,480,cs),
(367,422,o),
(318,387,o),
(257,363,c),
(196,385,o),
(142,416,o),
(142,478,cs)
);
},
{
closed = 1;
nodes = (
(127,236,o),
(176,271,o),
(246,294,c),
(321,272,o),
(379,233,o),
(379,165,cs),
(379,109,o),
(332,59,o),
(254,59,cs),
(169,59,o),
(127,109,o),
(127,165,cs)
);
}
);
width = 505;
},
{
layerId = "34019E5C-CFBD-41F4-A079-921E83AB1F7F";
shapes = (
{
closed = 1;
nodes = (
(43,57,o),
(134,-8,o),
(254,-8,cs),
(370,-8,o),
(462,56,o),
(462,168,cs),
(462,246,o),
(409,303,o),
(319,333,c),
(414,368,o),
(446,422,o),
(446,481,cs),
(446,563,o),
(378,638,o),
(255,638,cs),
(129,638,o),
(64,567,o),
(64,479,cs),
(64,409,o),
(105,359,o),
(183,330,c),
(88,298,o),
(43,245,o),
(43,163,cs)
);
},
{
closed = 1;
nodes = (
(117,544,o),
(165,596,o),
(255,596,cs),
(327,596,o),
(392,554,o),
(392,480,cs),
(392,410,o),
(328,366,o),
(248,349,c),
(174,366,o),
(117,408,o),
(117,480,cs)
);
},
{
closed = 1;
nodes = (
(92,243,o),
(156,292,o),
(249,308,c),
(350,291,o),
(414,239,o),
(414,166,cs),
(414,95,o),
(355,34,o),
(254,34,cs),
(146,34,o),
(92,95,o),
(92,166,cs)
);
}
);
width = 505;
}
);
unicode = 56;
},
{
glyphname = nine;
layers = (
{
layerId = "A25775AA-C32B-429E-A370-B71F346E2F61";
shapes = (
{
closed = 1;
nodes = (
(74,24,l),
(111,1,o),
(166,-12,o),
(239,-12,cs),
(397,-12,o),
(522,108,o),
(522,344,cs),
(522,558,o),
(404,643,o),
(284,643,cs),
(129,643,o),
(38,554,o),
(38,422,cs),
(38,291,o),
(124,216,o),
(252,216,cs),
(300,216,o),
(333,231,o),
(355,247,c),
(347,168,o),
(304,110,o),
(221,110,cs),
(176,110,o),
(135,122,o),
(106,137,c)
);
},
{
closed = 1;
nodes = (
(201,498,o),
(238,525,o),
(285,525,cs),
(328,525,o),
(355,481,o),
(355,418,cs),
(355,387,o),
(351,367,o),
(341,357,cs),
(330,345,o),
(307,336,o),
(285,336,cs),
(239,336,o),
(201,363,o),
(201,428,cs)
);
}
);
width = 555;
},
{
layerId = "01F57539-F702-4EC8-9BFC-18F609AC6CA6";
shapes = (
{
closed = 1;
nodes = (
(74,22,l),
(110,1,o),
(162,-11,o),
(232,-11,cs),
(389,-11,o),
(512,103,o),
(512,343,cs),
(512,557,o),
(397,642,o),
(278,642,cs),
(129,642,o),
(38,554,o),
(38,422,cs),
(38,291,o),
(124,216,o),
(249,216,cs),
(298,216,o),
(336,233,o),
(360,253,c),
(353,162,o),
(307,100,o),
(217,100,cs),
(171,100,o),
(133,112,o),
(104,127,c)
);
},
{
closed = 1;
nodes = (
(186,501,o),
(224,534,o),
(277,534,cs),
(328,534,o),
(360,482,o),
(360,413,cs),
(360,385,o),
(356,367,o),
(347,356,cs),
(334,339,o),
(307,326,o),
(279,326,cs),
(226,326,o),
(186,357,o),
(186,428,cs)
);
}
);
width = 547;
},
{
layerId = "7731FD6D-FAB0-4FA8-8A0E-241F62E50EBE";
shapes = (
{
closed = 1;
nodes = (
(75,15,l),
(105,1,o),
(146,-9,o),
(206,-9,cs),
(357,-9,o),
(472,83,o),
(472,341,cs),
(472,555,o),
(369,639,o),
(255,639,cs),
(128,639,o),
(38,553,o),
(38,421,cs),
(38,290,o),
(123,216,o),
(236,216,cs),
(292,216,o),
(347,240,o),
(380,279,c),
(376,138,o),
(320,62,o),
(203,62,cs),
(151,62,o),
(124,74,o),
(96,86,c)
);
},
{
closed = 1;
nodes = (
(126,513,o),
(170,571,o),
(247,571,cs),
(328,571,o),
(380,487,o),
(380,392,cs),
(380,378,o),
(378,366,o),
(370,351,cs),
(349,314,o),
(309,286,o),
(254,286,cs),
(175,286,o),
(126,334,o),
(126,428,cs)
);
}
);
width = 517;
},
{
layerId = "34019E5C-CFBD-41F4-A079-921E83AB1F7F";
shapes = (
{
closed = 1;
nodes = (
(84,11,l),
(116,-3,o),
(150,-8,o),
(200,-8,cs),
(351,-8,o),
(462,85,o),
(462,341,cs),
(462,555,o),
(355,638,o),
(247,638,cs),
(133,638,o),
(38,560,o),
(38,421,cs),
(38,290,o),
(130,215,o),
(238,215,cs),
(326,215,o),
(387,256,o),
(413,302,c),
(406,121,o),
(329,34,o),
(198,34,cs),
(163,34,o),
(121,40,o),
(96,52,c)
);
},
{
closed = 1;
nodes = (
(90,531,o),
(160,596,o),
(245,596,cs),
(350,596,o),
(410,484,o),
(410,385,cs),
(410,375,o),
(411,369,o),
(405,353,cs),
(385,299,o),
(327,257,o),
(247,257,cs),
(157,257,o),
(90,313,o),
(90,423,cs)
);
}
);
width = 507;
}
);
unicode = 57;
},
{
glyphname = colon;
layers = (
{
layerId = "A25775AA-C32B-429E-A370-B71F346E2F61";
shapes = (
{
closed = 1;
nodes = (
(39,23,o),
(82,-14,o),
(131,-14,cs),
(181,-14,o),
(222,23,o),
(222,81,cs),
(222,134,o),
(181,174,o),
(131,174,cs),
(82,174,o),
(39,134,o),
(39,81,cs)
);
},
{
closed = 1;
nodes = (
(39,332,o),
(82,296,o),
(131,296,cs),
(181,296,o),
(222,332,o),
(222,390,cs),
(222,444,o),
(181,483,o),
(131,483,cs),
(82,483,o),
(39,444,o),
(39,390,cs)
);
}
);
width = 261;
},
{
layerId = "01F57539-F702-4EC8-9BFC-18F609AC6CA6";
shapes = (
{
closed = 1;
nodes = (
(41,23,o),
(81,-11,o),
(127,-11,cs),
(174,-11,o),
(212,23,o),
(212,77,cs),
(212,127,o),
(174,164,o),
(127,164,cs),
(81,164,o),
(41,127,o),
(41,77,cs)
);
},
{
closed = 1;
nodes = (
(41,329,o),
(81,295,o),
(127,295,cs),
(174,295,o),
(212,329,o),
(212,383,cs),
(212,433,o),
(174,470,o),
(127,470,cs),
(81,470,o),
(41,433,o),
(41,383,cs)
);
}
);
width = 253;
},
{
layerId = "7731FD6D-FAB0-4FA8-8A0E-241F62E50EBE";
shapes = (
{
closed = 1;
nodes = (
(51,25,o),
(79,0,o),
(112,0,cs),
(145,0,o),
(172,25,o),
(172,63,cs),
(172,98,o),
(145,125,o),
(112,125,cs),
(79,125,o),
(51,98,o),
(51,63,cs)
);
},
{
closed = 1;
nodes = (
(51,317,o),
(79,292,o),
(112,292,cs),
(145,292,o),
(172,317,o),
(172,355,cs),
(172,390,o),
(145,417,o),
(112,417,cs),
(79,417,o),
(51,390,o),
(51,355,cs)
);
}
);
width = 223;
},
{
layerId = "34019E5C-CFBD-41F4-A079-921E83AB1F7F";
shapes = (
{
closed = 1;
nodes = (
(52,8,o),
(69,-8,o),
(92,-8,cs),
(114,-8,o),
(132,8,o),
(132,36,cs),
(132,62,o),
(114,80,o),
(92,80,cs),
(69,80,o),
(52,62,o),
(52,36,cs)
);
},
{
closed = 1;
nodes = (
(52,325,o),
(69,309,o),
(92,309,cs),
(114,309,o),
(132,325,o),
(132,353,cs),
(132,379,o),
(114,397,o),
(92,397,cs),
(69,397,o),
(52,379,o),
(52,353,cs)
);
}
);
width = 183;
}
);
leftKerningGroup = _period;
rightKerningGroup = _period;
unicode = 58;
},
{
glyphname = semicolon;
layers = (
{
layerId = "A25775AA-C32B-429E-A370-B71F346E2F61";
shapes = (
{
closed = 1;
nodes = (
(37,342,o),
(80,306,o),
(129,306,cs),
(180,306,o),
(220,342,o),
(220,400,cs),
(220,454,o),
(180,493,o),
(129,493,cs),
(80,493,o),
(37,454,o),
(37,400,cs)
);
},
{
closed = 1;
nodes = (
(75,-191,l),
(147,-154,o),
(224,-64,o),
(224,41,cs),
(224,136,o),
(172,176,o),
(125,176,cs),
(65,176,o),
(32,135,o),
(32,86,cs),
(32,37,o),
(61,0,o),
(112,-12,cs),
(125,-15,l),
(116,-62,o),
(75,-107,o),
(31,-131,c)
);
}
);
width = 259;
},
{
layerId = "01F57539-F702-4EC8-9BFC-18F609AC6CA6";
shapes = (
{
closed = 1;
nodes = (
(40,329,o),
(80,295,o),
(126,295,cs),
(173,295,o),
(211,329,o),
(211,383,cs),
(211,433,o),
(173,470,o),
(126,470,cs),
(80,470,o),
(40,433,o),
(40,383,cs)
);
},
{
closed = 1;
nodes = (
(75,-182,l),
(145,-146,o),
(216,-61,o),
(216,37,cs),
(216,129,o),
(166,164,o),
(122,164,cs),
(66,164,o),
(35,125,o),
(35,80,cs),
(35,34,o),
(62,-1,o),
(110,-11,cs),
(124,-14,l),
(115,-61,o),
(76,-103,o),
(34,-126,c)
);
}
);
width = 251;
},
{
layerId = "7731FD6D-FAB0-4FA8-8A0E-241F62E50EBE";
shapes = (
{
closed = 1;
nodes = (
(53,277,o),
(81,252,o),
(114,252,cs),
(147,252,o),
(174,277,o),
(174,315,cs),
(174,350,o),
(147,377,o),
(114,377,cs),
(81,377,o),
(53,350,o),
(53,315,cs)
);
},
{
closed = 1;
nodes = (
(74,-148,l),
(138,-113,o),
(184,-50,o),
(184,22,cs),
(184,101,o),
(143,117,o),
(112,117,cs),
(72,117,o),
(49,87,o),
(49,55,cs),
(49,24,o),
(67,-5,o),
(101,-9,c),
(119,-12,l),
(110,-59,o),
(80,-89,o),
(45,-108,c)
);
}
);
width = 219;
},
{
layerId = "34019E5C-CFBD-41F4-A079-921E83AB1F7F";
shapes = (
{
closed = 1;
nodes = (
(71,268,o),
(88,252,o),
(111,252,cs),
(133,252,o),
(151,268,o),
(151,296,cs),
(151,322,o),
(133,340,o),
(111,340,cs),
(88,340,o),
(71,322,o),
(71,296,cs)
);
},
{
closed = 1;
nodes = (
(65,-125,l),
(116,-99,o),
(162,-44,o),
(162,16,cs),
(162,68,o),
(135,82,o),
(114,82,cs),
(90,82,o),
(73,64,o),
(73,40,cs),
(73,12,o),
(91,-4,o),
(113,-8,cs),
(118,-9,l),
(112,-42,o),
(85,-77,o),
(45,-97,c)
);
}
);
width = 197;
}
);
leftKerningGroup = _period;
rightKerningGroup = _period;
unicode = 59;
},
{
glyphname = less;
layers = (
{
layerId = "A25775AA-C32B-429E-A370-B71F346E2F61";
shapes = (
{
closed = 1;
nodes = (
(54,213,l),
(418,15,l),
(418,137,l),
(181,254,l),
(418,371,l),
(418,493,l),
(54,296,l)
);
}
);
width = 471;
},
{
layerId = "01F57539-F702-4EC8-9BFC-18F609AC6CA6";
shapes = (
{
closed = 1;
nodes = (
(56,215,l),
(420,15,l),
(420,127,l),
(171,254,l),
(420,381,l),
(420,493,l),
(56,293,l)
);
}
);
width = 476;
},
{
layerId = "7731FD6D-FAB0-4FA8-8A0E-241F62E50EBE";
shapes = (
{
closed = 1;
nodes = (
(66,225,l),
(430,15,l),
(430,87,l),
(131,254,l),
(430,421,l),
(430,493,l),
(66,283,l)
);
}
);
width = 496;
},
{
layerId = "34019E5C-CFBD-41F4-A079-921E83AB1F7F";
shapes = (
{
closed = 1;
nodes = (
(66,235,l),
(430,25,l),
(430,77,l),
(121,254,l),
(430,431,l),
(430,483,l),
(66,273,l)
);
}
);
width = 496;
}
);
unicode = 60;
},
{
glyphname = equal;
layers = (
{
layerId = "A25775AA-C32B-429E-A370-B71F346E2F61";
shapes = (
{
closed = 1;
nodes = (
(28,115,l),
(411,115,l),
(411,216,l),
(28,216,l)
);
},
{
closed = 1;
nodes = (
(28,334,l),
(411,334,l),
(411,435,l),
(28,435,l)
);
}
);
width = 438;
},
{
layerId = "01F57539-F702-4EC8-9BFC-18F609AC6CA6";
shapes = (
{
closed = 1;
nodes = (
(30,130,l),
(413,130,l),
(413,223,l),
(30,223,l)
);
},
{
closed = 1;
nodes = (
(30,339,l),
(413,339,l),
(413,432,l),
(30,432,l)
);
}
);
width = 443;
},
{
layerId = "7731FD6D-FAB0-4FA8-8A0E-241F62E50EBE";
shapes = (
{
closed = 1;
nodes = (
(40,190,l),
(423,190,l),
(423,253,l),
(40,253,l)
);
},
{
closed = 1;
nodes = (
(40,359,l),
(423,359,l),
(423,422,l),
(40,422,l)
);
}
);
width = 463;
},
{
layerId = "34019E5C-CFBD-41F4-A079-921E83AB1F7F";
shapes = (
{
closed = 1;
nodes = (
(40,201,l),
(423,201,l),
(423,243,l),
(40,243,l)
);
},
{
closed = 1;
nodes = (
(40,370,l),
(423,370,l),
(423,412,l),
(40,412,l)
);
}
);
width = 463;
}
);
unicode = 61;
},
{
glyphname = greater;
layers = (
{
layerId = "A25775AA-C32B-429E-A370-B71F346E2F61";
shapes = (
{
closed = 1;
nodes = (
(54,15,l),
(418,213,l),
(418,296,l),
(54,493,l),
(54,371,l),
(290,254,l),
(54,137,l)
);
}
);
width = 471;
},
{
layerId = "01F57539-F702-4EC8-9BFC-18F609AC6CA6";
shapes = (
{
closed = 1;
nodes = (
(56,15,l),
(420,215,l),
(420,293,l),
(56,493,l),
(56,381,l),
(305,254,l),
(56,127,l)
);
}
);
width = 476;
},
{
layerId = "7731FD6D-FAB0-4FA8-8A0E-241F62E50EBE";
shapes = (
{
closed = 1;
nodes = (
(66,15,l),
(430,225,l),
(430,283,l),
(66,493,l),
(66,421,l),
(365,254,l),
(66,87,l)
);
}
);
width = 496;
},
{
layerId = "34019E5C-CFBD-41F4-A079-921E83AB1F7F";
shapes = (
{
closed = 1;
nodes = (
(66,25,l),
(430,235,l),
(430,273,l),
(66,483,l),
(66,431,l),
(375,254,l),
(66,77,l)
);
}
);
width = 496;
}
);
unicode = 62;
},
{
glyphname = question;
layers = (
{
layerId = "A25775AA-C32B-429E-A370-B71F346E2F61";
shapes = (
{
closed = 1;
nodes = (
(107,255,o),
(112,235,o),
(115,224,c),
(247,239,l),
(245,244,o),
(243,255,o),
(243,262,cs),
(243,293,o),
(257,299,o),
(317,362,cs),
(382,429,o),
(411,470,o),
(411,545,cs),
(411,642,o),
(340,715,o),
(211,715,cs),
(142,715,o),
(87,693,o),
(46,664,c),
(100,558,l),
(130,580,o),
(152,589,o),
(185,589,cs),
(219,589,o),
(246,566,o),
(246,532,cs),
(246,485,o),
(230,464,o),
(176,404,cs),
(135,360,o),
(107,330,o),
(107,276,cs)
);
},
{
closed = 1;
nodes = (
(105,24,o),
(146,-12,o),
(191,-12,cs),
(237,-12,o),
(276,24,o),
(276,75,cs),
(276,124,o),
(237,161,o),
(191,161,cs),
(146,161,o),
(105,124,o),
(105,75,cs)
);
}
);
width = 443;
},
{
layerId = "01F57539-F702-4EC8-9BFC-18F609AC6CA6";
shapes = (
{
closed = 1;
nodes = (
(111,249,o),
(116,228,o),
(120,215,c),
(240,230,l),
(237,238,o),
(235,249,o),
(235,259,cs),
(235,293,o),
(253,304,o),
(312,364,cs),
(374,427,o),
(407,472,o),
(407,545,cs),
(407,642,o),
(336,715,o),
(209,715,cs),
(144,715,o),
(89,695,o),
(48,666,c),
(99,568,l),
(130,590,o),
(154,599,o),
(187,599,cs),
(230,599,o),
(257,571,o),
(257,535,cs),
(257,486,o),
(236,461,o),
(183,404,cs),
(139,357,o),
(111,325,o),
(111,270,cs)
);
},
{
closed = 1;
nodes = (
(109,22,o),
(147,-11,o),
(190,-11,cs),
(233,-11,o),
(270,22,o),
(270,71,cs),
(270,117,o),
(233,152,o),
(190,152,cs),
(147,152,o),
(109,117,o),
(109,71,cs)
);
}
);
width = 442;
},
{
layerId = "7731FD6D-FAB0-4FA8-8A0E-241F62E50EBE";
shapes = (
{
closed = 1;
nodes = (
(126,225,o),
(131,200,o),
(139,180,c),
(214,194,l),
(207,215,o),
(205,227,o),
(205,246,cs),
(205,293,o),
(238,325,o),
(292,374,cs),
(341,419,o),
(392,479,o),
(392,547,cs),
(392,644,o),
(320,715,o),
(200,715,cs),
(153,715,o),
(96,702,o),
(58,674,c),
(96,608,l),
(129,632,o),
(164,639,o),
(195,639,cs),
(275,639,o),
(302,593,o),
(302,546,cs),
(302,489,o),
(260,451,o),
(213,404,cs),
(155,346,o),
(126,306,o),
(126,247,cs)
);
},
{
closed = 1;
nodes = (
(124,16,o),
(152,-9,o),
(185,-9,cs),
(218,-9,o),
(245,16,o),
(245,54,cs),
(245,89,o),
(218,116,o),
(185,116,cs),
(152,116,o),
(124,89,o),
(124,54,cs)
);
}
);
width = 437;
},
{
layerId = "34019E5C-CFBD-41F4-A079-921E83AB1F7F";
shapes = (
{
closed = 1;
nodes = (
(136,199,o),
(142,165,o),
(149,152,c),
(193,160,l),
(187,176,o),
(183,198,o),
(183,221,cs),
(183,270,o),
(198,302,o),
(264,360,cs),
(336,423,o),
(382,482,o),
(382,554,cs),
(382,651,o),
(314,715,o),
(200,715,cs),
(153,715,o),
(96,702,o),
(58,674,c),
(78,639,l),
(117,665,o),
(157,673,o),
(194,673,cs),
(295,673,o),
(332,615,o),
(332,553,cs),
(332,492,o),
(297,449,o),
(235,393,cs),
(159,324,o),
(136,273,o),
(136,221,cs)
);
},
{
closed = 1;
nodes = (
(142,8,o),
(160,-8,o),
(183,-8,cs),
(205,-8,o),
(223,8,o),
(223,36,cs),
(223,62,o),
(205,79,o),
(183,79,cs),
(160,79,o),
(142,62,o),
(142,36,cs)
);
}
);
width = 427;
}
);
unicode = 63;
},
{
glyphname = at;
layers = (
{
layerId = "A25775AA-C32B-429E-A370-B71F346E2F61";
shapes = (
{
closed = 1;
nodes = (
(-11,-86,o),
(222,-219,o),
(450,-219,cs),
(541,-219,o),
(630,-197,o),
(686,-173,c),
(660,-89,l),
(607,-111,o),
(551,-125,o),
(466,-125,cs),
(294,-125,o),
(101,-25,o),
(157,282,cs),
(207,553,o),
(421,600,o),
(540,600,cs),
(741,600,o),
(845,448,o),
(815,262,cs),
(795,144,o),
(751,99,o),
(712,99,cs),
(679,99,o),
(664,116,o),
(674,151,c),
(700,312,ls),
(718,436,o),
(641,495,o),
(520,495,cs),
(446,495,o),
(382,474,o),
(325,442,c),
(358,344,l),
(398,366,o),
(444,385,o),
(485,385,cs),
(534,385,o),
(555,354,o),
(549,317,c),
(547,302,l),
(507,302,ls),
(382,302,o),
(268,256,o),
(252,140,c),
(239,58,o),
(291,-12,o),
(388,-12,cs),
(455,-12,o),
(509,12,o),
(546,51,c),
(548,51,l),
(577,10,l),
(596,1,o),
(628,-1,o),
(650,-1,cs),
(784,-1,o),
(892,76,o),
(923,251,cs),
(964,496,o),
(823,692,o),
(536,692,cs),
(305,692,o),
(91,539,o),
(49,279,cs)
);
},
{
closed = 1;
nodes = (
(412,180,o),
(443,214,o),
(510,216,cs),
(534,217,l),
(518,115,l),
(508,104,o),
(485,91,o),
(456,91,cs),
(427,91,o),
(400,104,o),
(407,142,c)
);
}
);
width = 966;
},
{
layerId = "01F57539-F702-4EC8-9BFC-18F609AC6CA6";
shapes = (
{
closed = 1;
nodes = (
(-8,-86,o),
(223,-219,o),
(450,-219,cs),
(541,-219,o),
(628,-197,o),
(684,-173,c),
(660,-93,l),
(607,-115,o),
(551,-130,o),
(466,-130,cs),
(292,-130,o),
(98,-29,o),
(154,282,cs),
(205,557,o),
(420,605,o),
(540,605,cs),
(743,605,o),
(848,450,o),
(817,262,cs),
(797,139,o),
(747,91,o),
(705,91,cs),
(672,91,o),
(659,109,o),
(669,150,c),
(695,311,ls),
(714,436,o),
(639,491,o),
(521,491,cs),
(450,491,o),
(387,471,o),
(328,439,c),
(359,348,l),
(404,372,o),
(451,389,o),
(490,389,cs),
(541,389,o),
(564,360,o),
(557,317,cs),
(554,297,l),
(504,297,ls),
(381,297,o),
(272,252,o),
(256,139,cs),
(243,57,o),
(295,-11,o),
(391,-11,cs),
(459,-11,o),
(510,13,o),
(549,53,c),
(551,53,l),
(578,10,l),
(596,2,o),
(627,-1,o),
(652,-1,cs),
(779,-1,o),
(890,76,o),
(920,251,cs),
(961,496,o),
(821,692,o),
(536,692,cs),
(306,692,o),
(93,539,o),
(51,279,cs)
);
},
{
closed = 1;
nodes = (
(404,180,o),
(436,214,o),
(508,216,cs),
(542,217,l),
(526,116,l),
(511,99,o),
(484,84,o),
(452,84,cs),
(420,84,o),
(391,99,o),
(398,140,cs)
);
}
);
width = 966;
},
{
layerId = "7731FD6D-FAB0-4FA8-8A0E-241F62E50EBE";
shapes = (
{
closed = 1;
nodes = (
(3,-86,o),
(229,-219,o),
(450,-219,cs),
(541,-219,o),
(622,-197,o),
(678,-173,c),
(660,-111,l),
(607,-132,o),
(551,-150,o),
(466,-150,cs),
(286,-150,o),
(86,-45,o),
(144,282,cs),
(196,575,o),
(417,625,o),
(540,625,cs),
(750,625,o),
(859,460,o),
(827,262,cs),
(804,118,o),
(733,60,o),
(676,60,cs),
(644,60,o),
(640,81,o),
(651,146,cs),
(677,306,ls),
(697,436,o),
(631,477,o),
(527,477,cs),
(465,477,o),
(409,461,o),
(341,428,c),
(365,364,l),
(427,396,o),
(478,405,o),
(510,405,cs),
(568,405,o),
(602,385,o),
(590,317,cs),
(583,277,l),
(493,277,ls),
(378,277,o),
(288,235,o),
(272,136,cs),
(259,53,o),
(313,-9,o),
(403,-9,cs),
(477,-9,o),
(516,16,o),
(562,62,c),
(564,62,l),
(582,11,l),
(596,5,o),
(624,-1,o),
(659,-1,cs),
(759,-1,o),
(881,76,o),
(910,251,cs),
(950,496,o),
(814,692,o),
(536,692,cs),
(311,692,o),
(102,539,o),
(61,279,cs)
);
},
{
closed = 1;
nodes = (
(371,180,o),
(407,213,o),
(500,215,cs),
(575,217,l),
(560,121,l),
(522,78,o),
(481,56,o),
(437,56,cs),
(392,56,o),
(356,81,o),
(364,133,cs)
);
}
);
width = 965;
},
{
layerId = "34019E5C-CFBD-41F4-A079-921E83AB1F7F";
shapes = (
{
closed = 1;
nodes = (
(1,-86,o),
(237,-219,o),
(448,-219,cs),
(539,-219,o),
(620,-197,o),
(676,-173,c),
(666,-137,l),
(615,-162,o),
(540,-179,o),
(455,-179,cs),
(267,-179,o),
(57,-57,o),
(112,282,cs),
(162,588,o),
(416,652,o),
(538,652,cs),
(769,652,o),
(894,465,o),
(857,262,cs),
(826,92,o),
(740,42,o),
(668,42,cs),
(620,42,o),
(619,84,o),
(629,146,cs),
(655,306,ls),
(675,428,o),
(613,476,o),
(523,476,cs),
(461,476,o),
(406,460,o),
(339,428,c),
(354,389,l),
(416,421,o),
(478,434,o),
(513,434,cs),
(585,434,o),
(624,406,o),
(608,317,cs),
(601,277,l),
(493,277,ls),
(378,277,o),
(286,241,o),
(270,142,cs),
(257,59,o),
(319,-8,o),
(411,-8,cs),
(492,-8,o),
(545,26,o),
(575,62,c),
(577,62,l),
(593,13,l),
(604,7,o),
(629,0,o),
(662,0,cs),
(764,0,o),
(879,76,o),
(908,251,cs),
(948,496,o),
(812,692,o),
(534,692,cs),
(309,692,o),
(100,539,o),
(59,279,cs)
);
},
{
closed = 1;
nodes = (
(330,199,o),
(384,233,o),
(505,235,cs),
(595,237,l),
(572,112,l),
(551,78,o),
(503,34,o),
(422,34,cs),
(357,34,o),
(313,74,o),
(323,140,c)
);
}
);
width = 963;
}
);
unicode = 64;
},
{
glyphname = bracketleft;
layers = (
{
layerId = "A25775AA-C32B-429E-A370-B71F346E2F61";
shapes = (
{
closed = 1;
nodes = (
(55,-165,l),
(270,-165,l),
(270,-73,l),
(178,-73,l),
(178,639,l),
(270,639,l),
(270,730,l),
(55,730,l)
);
}
);
width = 294;
},
{
layerId = "01F57539-F702-4EC8-9BFC-18F609AC6CA6";
shapes = (
{
closed = 1;
nodes = (
(60,-163,l),
(270,-163,l),
(270,-76,l),
(176,-76,l),
(176,642,l),
(270,642,l),
(270,728,l),
(60,728,l)
);
}
);
width = 295;
},
{
layerId = "7731FD6D-FAB0-4FA8-8A0E-241F62E50EBE";
shapes = (
{
closed = 1;
nodes = (
(81,-155,l),
(271,-155,l),
(271,-88,l),
(167,-88,l),
(167,654,l),
(271,654,l),
(271,720,l),
(81,720,l)
);
}
);
width = 301;
},
{
layerId = "34019E5C-CFBD-41F4-A079-921E83AB1F7F";
shapes = (
{
closed = 1;
nodes = (
(81,-145,l),
(251,-145,l),
(251,-108,l),
(127,-108,l),
(127,674,l),
(251,674,l),
(251,710,l),
(81,710,l)
);
}
);
width = 281;
}
);
leftKerningGroup = _bracketleft;
rightKerningGroup = _bracketleft;
unicode = 91;
},
{
glyphname = backslash;
layers = (
{
layerId = "A25775AA-C32B-429E-A370-B71F346E2F61";
shapes = (
{
closed = 1;
nodes = (
(0,720,l),
(194,-88,l),
(300,-88,l),
(106,720,l)
);
}
);
width = 300;
},
{
layerId = "01F57539-F702-4EC8-9BFC-18F609AC6CA6";
shapes = (
{
closed = 1;
nodes = (
(0,720,l),
(206,-88,l),
(306,-88,l),
(100,720,l)
);
}
);
width = 306;
},
{
layerId = "7731FD6D-FAB0-4FA8-8A0E-241F62E50EBE";
shapes = (
{
closed = 1;
nodes = (
(0,720,l),
(256,-88,l),
(331,-88,l),
(75,720,l)
);
}
);
width = 331;
},
{
layerId = "34019E5C-CFBD-41F4-A079-921E83AB1F7F";
shapes = (
{
closed = 1;
nodes = (
(-3,720,l),
(253,-88,l),
(295,-88,l),
(39,720,l)
);
}
);
width = 295;
}
);
unicode = 92;
},
{
glyphname = bracketright;
layers = (
{
layerId = "A25775AA-C32B-429E-A370-B71F346E2F61";
shapes = (
{
closed = 1;
nodes = (
(24,-165,l),
(239,-165,l),
(239,730,l),
(24,730,l),
(24,639,l),
(115,639,l),
(115,-73,l),
(24,-73,l)
);
}
);
width = 294;
},
{
layerId = "01F57539-F702-4EC8-9BFC-18F609AC6CA6";
shapes = (
{
closed = 1;
nodes = (
(25,-163,l),
(235,-163,l),
(235,728,l),
(25,728,l),
(25,642,l),
(119,642,l),
(119,-76,l),
(25,-76,l)
);
}
);
width = 295;
},
{
layerId = "7731FD6D-FAB0-4FA8-8A0E-241F62E50EBE";
shapes = (
{
closed = 1;
nodes = (
(30,-155,l),
(220,-155,l),
(220,720,l),
(30,720,l),
(30,654,l),
(134,654,l),
(134,-88,l),
(30,-88,l)
);
}
);
width = 301;
},
{
layerId = "34019E5C-CFBD-41F4-A079-921E83AB1F7F";
shapes = (
{
closed = 1;
nodes = (
(30,-145,l),
(200,-145,l),
(200,710,l),
(30,710,l),
(30,673,l),
(154,673,l),
(154,-109,l),
(30,-109,l)
);
}
);
width = 281;
}
);
leftKerningGroup = _bracketright;
rightKerningGroup = _bracketright;
unicode = 93;
},
{
glyphname = asciicircum;
layers = (
{
layerId = "A25775AA-C32B-429E-A370-B71F346E2F61";
shapes = (
{
closed = 1;
nodes = (
(41,404,l),
(143,404,l),
(251,634,l),
(360,404,l),
(461,404,l),
(292,720,l),
(208,720,l)
);
}
);
width = 502;
},
{
layerId = "01F57539-F702-4EC8-9BFC-18F609AC6CA6";
shapes = (
{
closed = 1;
nodes = (
(45,406,l),
(142,406,l),
(252,639,l),
(364,406,l),
(460,406,l),
(291,720,l),
(212,720,l)
);
}
);
width = 505;
},
{
layerId = "7731FD6D-FAB0-4FA8-8A0E-241F62E50EBE";
shapes = (
{
closed = 1;
nodes = (
(61,416,l),
(138,416,l),
(258,659,l),
(380,416,l),
(456,416,l),
(287,720,l),
(228,720,l)
);
}
);
width = 516;
},
{
layerId = "34019E5C-CFBD-41F4-A079-921E83AB1F7F";
shapes = (
{
closed = 1;
nodes = (
(61,416,l),
(108,416,l),
(238,679,l),
(370,416,l),
(416,416,l),
(257,720,l),
(218,720,l)
);
}
);
width = 476;
}
);
unicode = 94;
},
{
glyphname = underscore;
layers = (
{
layerId = "A25775AA-C32B-429E-A370-B71F346E2F61";
shapes = (
{
closed = 1;
nodes = (
(4,-250,l),
(375,-250,l),
(375,-165,l),
(4,-165,l)
);
}
);
width = 379;
},
{
layerId = "01F57539-F702-4EC8-9BFC-18F609AC6CA6";
shapes = (
{
closed = 1;
nodes = (
(5,-250,l),
(371,-250,l),
(371,-170,l),
(5,-170,l)
);
}
);
width = 376;
},
{
layerId = "7731FD6D-FAB0-4FA8-8A0E-241F62E50EBE";
shapes = (
{
closed = 1;
nodes = (
(10,-250,l),
(356,-250,l),
(356,-190,l),
(10,-190,l)
);
}
);
width = 366;
},
{
layerId = "34019E5C-CFBD-41F4-A079-921E83AB1F7F";
shapes = (
{
closed = 1;
nodes = (
(10,-250,l),
(356,-250,l),
(356,-210,l),
(10,-210,l)
);
}
);
width = 366;
}
);
unicode = 95;
},
{
glyphname = braceleft;
layers = (
{
layerId = "A25775AA-C32B-429E-A370-B71F346E2F61";
shapes = (
{
closed = 1;
nodes = (
(31,234,l),
(92,231,o),
(119,194,o),
(119,130,cs),
(119,7,ls),
(119,-92,o),
(194,-152,o),
(304,-155,c),
(304,-61,l),
(237,-52,o),
(227,-42,o),
(227,56,cs),
(227,135,ls),
(227,206,o),
(197,253,o),
(166,276,c),
(166,279,l),
(197,296,o),
(227,332,o),
(227,393,cs),
(227,474,ls),
(227,589,o),
(236,614,o),
(304,614,c),
(304,705,l),
(185,705,o),
(119,640,o),
(119,555,cs),
(119,420,ls),
(119,353,o),
(91,328,o),
(31,320,c)
);
}
);
width = 325;
},
{
layerId = "01F57539-F702-4EC8-9BFC-18F609AC6CA6";
shapes = (
{
closed = 1;
nodes = (
(30,236,l),
(91,233,o),
(118,197,o),
(118,135,cs),
(118,7,ls),
(118,-92,o),
(193,-152,o),
(303,-155,c),
(303,-66,l),
(236,-58,o),
(221,-44,o),
(221,43,cs),
(221,135,ls),
(221,206,o),
(193,253,o),
(158,276,c),
(158,279,l),
(193,296,o),
(221,332,o),
(221,393,cs),
(221,486,ls),
(221,591,o),
(235,619,o),
(303,619,c),
(303,705,l),
(184,705,o),
(118,640,o),
(118,555,cs),
(118,415,ls),
(118,350,o),
(90,325,o),
(30,317,c)
);
}
);
width = 325;
},
{
layerId = "7731FD6D-FAB0-4FA8-8A0E-241F62E50EBE";
shapes = (
{
closed = 1;
nodes = (
(28,246,l),
(89,243,o),
(116,211,o),
(116,155,cs),
(116,7,ls),
(116,-92,o),
(191,-152,o),
(301,-155,c),
(301,-86,l),
(234,-83,o),
(199,-54,o),
(199,-7,cs),
(199,135,ls),
(199,206,o),
(177,253,o),
(126,276,c),
(126,279,l),
(179,296,o),
(199,332,o),
(199,393,cs),
(199,536,ls),
(199,601,o),
(233,639,o),
(301,639,c),
(301,705,l),
(182,705,o),
(116,640,o),
(116,555,cs),
(116,395,ls),
(116,338,o),
(88,314,o),
(28,307,c)
);
}
);
width = 326;
},
{
layerId = "34019E5C-CFBD-41F4-A079-921E83AB1F7F";
shapes = (
{
closed = 1;
nodes = (
(28,259,l),
(103,256,o),
(136,217,o),
(136,155,cs),
(136,2,ls),
(136,-95,o),
(203,-145,o),
(301,-145,c),
(301,-111,l),
(220,-108,o),
(179,-72,o),
(179,-7,cs),
(179,135,ls),
(179,206,o),
(157,253,o),
(106,276,c),
(106,278,l),
(159,295,o),
(179,332,o),
(179,393,cs),
(179,536,ls),
(179,618,o),
(225,659,o),
(301,659,c),
(301,695,l),
(196,695,o),
(136,634,o),
(136,555,cs),
(136,395,ls),
(136,332,o),
(102,303,o),
(28,295,c)
);
}
);
width = 326;
}
);
leftKerningGroup = _bracketleft;
rightKerningGroup = _bracketleft;
unicode = 123;
},
{
glyphname = bar;
layers = (
{
layerId = "A25775AA-C32B-429E-A370-B71F346E2F61";
shapes = (
{
closed = 1;
nodes = (
(72,-230,l),
(185,-230,l),
(185,750,l),
(72,750,l)
);
}
);
width = 257;
},
{
layerId = "01F57539-F702-4EC8-9BFC-18F609AC6CA6";
shapes = (
{
closed = 1;
nodes = (
(72,-230,l),
(177,-230,l),
(177,750,l),
(72,750,l)
);
}
);
width = 249;
},
{
layerId = "7731FD6D-FAB0-4FA8-8A0E-241F62E50EBE";
shapes = (
{
closed = 1;
nodes = (
(72,-230,l),
(147,-230,l),
(147,750,l),
(72,750,l)
);
}
);
width = 219;
},
{
layerId = "34019E5C-CFBD-41F4-A079-921E83AB1F7F";
shapes = (
{
closed = 1;
nodes = (
(72,-230,l),
(120,-230,l),
(120,750,l),
(72,750,l)
);
}
);
width = 192;
}
);
unicode = 124;
},
{
glyphname = braceright;
layers = (
{
layerId = "A25775AA-C32B-429E-A370-B71F346E2F61";
shapes = (
{
closed = 1;
nodes = (
(21,-155,l),
(143,-156,o),
(206,-90,o),
(206,-8,cs),
(206,130,ls),
(206,197,o),
(235,221,o),
(294,230,c),
(294,316,l),
(233,318,o),
(206,357,o),
(206,420,cs),
(206,540,ls),
(206,642,o),
(129,700,o),
(21,704,c),
(21,610,l),
(88,600,o),
(98,592,o),
(98,500,cs),
(98,421,ls),
(98,347,o),
(128,297,o),
(159,273,c),
(159,270,l),
(128,254,o),
(98,221,o),
(98,163,cs),
(98,82,ls),
(98,-38,o),
(90,-66,o),
(21,-65,c)
);
}
);
width = 325;
},
{
layerId = "01F57539-F702-4EC8-9BFC-18F609AC6CA6";
shapes = (
{
closed = 1;
nodes = (
(22,-155,l),
(141,-155,o),
(207,-90,o),
(207,-5,cs),
(207,135,ls),
(207,200,o),
(235,225,o),
(295,233,c),
(295,314,l),
(234,317,o),
(207,353,o),
(207,415,cs),
(207,543,ls),
(207,642,o),
(132,702,o),
(22,705,c),
(22,616,l),
(89,608,o),
(104,594,o),
(104,507,cs),
(104,415,ls),
(104,344,o),
(132,297,o),
(167,274,c),
(167,271,l),
(132,254,o),
(104,218,o),
(104,157,cs),
(104,64,ls),
(104,-41,o),
(90,-69,o),
(22,-69,c)
);
}
);
width = 325;
},
{
layerId = "7731FD6D-FAB0-4FA8-8A0E-241F62E50EBE";
shapes = (
{
closed = 1;
nodes = (
(25,-155,l),
(135,-152,o),
(210,-92,o),
(210,7,cs),
(210,155,ls),
(210,211,o),
(237,243,o),
(298,246,c),
(298,307,l),
(238,314,o),
(210,338,o),
(210,395,cs),
(210,555,ls),
(210,641,o),
(144,710,o),
(25,710,c),
(25,639,l),
(93,639,o),
(127,601,o),
(127,536,c),
(127,393,ls),
(127,332,o),
(147,296,o),
(200,279,c),
(200,276,l),
(149,253,o),
(127,206,o),
(127,135,c),
(127,-7,ls),
(127,-54,o),
(92,-83,o),
(25,-86,c)
);
}
);
width = 326;
},
{
layerId = "34019E5C-CFBD-41F4-A079-921E83AB1F7F";
shapes = (
{
closed = 1;
nodes = (
(25,-145,l),
(130,-145,o),
(190,-84,o),
(190,-5,cs),
(190,155,ls),
(190,218,o),
(224,247,o),
(298,255,c),
(298,291,l),
(223,294,o),
(190,333,o),
(190,395,cs),
(190,548,ls),
(190,645,o),
(123,695,o),
(25,695,c),
(25,661,l),
(106,658,o),
(147,622,o),
(147,557,cs),
(147,415,ls),
(147,344,o),
(169,297,o),
(220,274,c),
(220,272,l),
(167,255,o),
(147,218,o),
(147,157,cs),
(147,14,ls),
(147,-68,o),
(101,-109,o),
(25,-109,c)
);
}
);
width = 326;
}
);
leftKerningGroup = _bracketright;
rightKerningGroup = _bracketright;
unicode = 125;
},
{
glyphname = asciitilde;
layers = (
{
layerId = "A25775AA-C32B-429E-A370-B71F346E2F61";
shapes = (
{
closed = 1;
nodes = (
(150,198,l),
(150,231,o),
(164,258,o),
(190,258,cs),
(249,258,o),
(317,197,o),
(401,197,cs),
(494,197,o),
(531,270,o),
(531,361,c),
(422,361,l),
(422,323,o),
(409,303,o),
(382,303,cs),
(326,303,o),
(275,362,o),
(191,362,cs),
(105,362,o),
(41,306,o),
(41,198,c)
);
}
);
width = 571;
},
{
layerId = "01F57539-F702-4EC8-9BFC-18F609AC6CA6";
shapes = (
{
closed = 1;
nodes = (
(141,200,l),
(141,236,o),
(158,265,o),
(189,265,cs),
(249,265,o),
(318,199,o),
(401,199,cs),
(488,199,o),
(532,264,o),
(532,361,c),
(433,361,l),
(433,320,o),
(417,298,o),
(386,298,cs),
(328,298,o),
(273,362,o),
(190,362,cs),
(105,362,o),
(42,307,o),
(42,200,c)
);
}
);
width = 574;
},
{
layerId = "7731FD6D-FAB0-4FA8-8A0E-241F62E50EBE";
shapes = (
{
closed = 1;
nodes = (
(107,210,l),
(107,256,o),
(135,295,o),
(185,295,cs),
(251,295,o),
(322,209,o),
(403,209,cs),
(465,209,o),
(538,242,o),
(538,361,c),
(479,361,l),
(479,308,o),
(451,278,o),
(402,278,cs),
(338,278,o),
(267,362,o),
(186,362,cs),
(107,362,o),
(48,310,o),
(48,210,c)
);
}
);
width = 586;
},
{
layerId = "34019E5C-CFBD-41F4-A079-921E83AB1F7F";
shapes = (
{
closed = 1;
nodes = (
(87,210,l),
(87,265,o),
(120,305,o),
(182,305,cs),
(263,305,o),
(326,219,o),
(420,219,cs),
(480,219,o),
(538,256,o),
(538,361,c),
(499,361,l),
(499,299,o),
(472,261,o),
(415,261,cs),
(335,261,o),
(274,345,o),
(183,345,cs),
(104,345,o),
(48,296,o),
(48,210,c)
);
}
);
width = 586;
}
);
unicode = 126;
},
{
glyphname = ellipsis;
layers = (
{
layerId = "A25775AA-C32B-429E-A370-B71F346E2F61";
shapes = (
{
closed = 1;
nodes = (
(43,25,o),
(86,-12,o),
(135,-12,cs),
(186,-12,o),
(226,25,o),
(226,83,cs),
(226,137,o),
(186,176,o),
(135,176,cs),
(86,176,o),
(43,137,o),
(43,83,cs)
);
},
{
closed = 1;
nodes = (
(399,25,o),
(442,-12,o),
(491,-12,cs),
(542,-12,o),
(582,25,o),
(582,83,cs),
(582,137,o),
(542,176,o),
(491,176,cs),
(442,176,o),
(399,137,o),
(399,83,cs)
);
},
{
closed = 1;
nodes = (
(755,25,o),
(798,-12,o),
(847,-12,cs),
(898,-12,o),
(938,25,o),
(938,83,cs),
(938,137,o),
(898,176,o),
(847,176,cs),
(798,176,o),
(755,137,o),
(755,83,cs)
);
}
);
width = 951;
},
{
layerId = "01F57539-F702-4EC8-9BFC-18F609AC6CA6";
shapes = (
{
closed = 1;
nodes = (
(45,23,o),
(85,-11,o),
(131,-11,cs),
(178,-11,o),
(216,23,o),
(216,77,cs),
(216,127,o),
(178,164,o),
(131,164,cs),
(85,164,o),
(45,127,o),
(45,77,cs)
);
},
{
closed = 1;
nodes = (
(366,23,o),
(406,-11,o),
(452,-11,cs),
(499,-11,o),
(537,23,o),
(537,77,cs),
(537,127,o),
(499,164,o),
(452,164,cs),
(406,164,o),
(366,127,o),
(366,77,cs)
);
},
{
closed = 1;
nodes = (
(687,23,o),
(727,-11,o),
(773,-11,cs),
(820,-11,o),
(858,23,o),
(858,77,cs),
(858,127,o),
(820,164,o),
(773,164,cs),
(727,164,o),
(687,127,o),
(687,77,cs)
);
}
);
width = 878;
},
{
layerId = "7731FD6D-FAB0-4FA8-8A0E-241F62E50EBE";
shapes = (
{
closed = 1;
nodes = (
(54,16,o),
(82,-9,o),
(115,-9,cs),
(148,-9,o),
(175,16,o),
(175,54,cs),
(175,89,o),
(148,116,o),
(115,116,cs),
(82,116,o),
(54,89,o),
(54,54,cs)
);
},
{
closed = 1;
nodes = (
(235,16,o),
(263,-9,o),
(296,-9,cs),
(329,-9,o),
(356,16,o),
(356,54,cs),
(356,89,o),
(329,116,o),
(296,116,cs),
(263,116,o),
(235,89,o),
(235,54,cs)
);
},
{
closed = 1;
nodes = (
(416,16,o),
(444,-9,o),
(477,-9,cs),
(510,-9,o),
(537,16,o),
(537,54,cs),
(537,89,o),
(510,116,o),
(477,116,cs),
(444,116,o),
(416,89,o),
(416,54,cs)
);
}
);
width = 587;
},
{
layerId = "34019E5C-CFBD-41F4-A079-921E83AB1F7F";
shapes = (
{
closed = 1;
nodes = (
(55,8,o),
(72,-8,o),
(95,-8,cs),
(117,-8,o),
(135,8,o),
(135,36,cs),
(135,62,o),
(117,80,o),
(95,80,cs),
(72,80,o),
(55,62,o),
(55,36,cs)
);
},
{
closed = 1;
nodes = (
(235,8,o),
(252,-8,o),
(275,-8,cs),
(297,-8,o),
(315,8,o),
(315,36,cs),
(315,62,o),
(297,80,o),
(275,80,cs),
(252,80,o),
(235,62,o),
(235,36,cs)
);
},
{
closed = 1;
nodes = (
(415,8,o),
(432,-8,o),
(455,-8,cs),
(477,-8,o),
(495,8,o),
(495,36,cs),
(495,62,o),
(477,80,o),
(455,80,cs),
(432,80,o),
(415,62,o),
(415,36,cs)
);
}
);
width = 550;
}
);
leftKerningGroup = _period;
rightKerningGroup = _period;
unicode = 8230;
},
{
glyphname = endash;
layers = (
{
layerId = "A25775AA-C32B-429E-A370-B71F346E2F61";
shapes = (
{
closed = 1;
nodes = (
(24,188,l),
(462,188,l),
(462,287,l),
(24,287,l)
);
}
);
width = 486;
},
{
layerId = "01F57539-F702-4EC8-9BFC-18F609AC6CA6";
shapes = (
{
closed = 1;
nodes = (
(30,188,l),
(463,188,l),
(463,279,l),
(30,279,l)
);
}
);
width = 493;
},
{
layerId = "7731FD6D-FAB0-4FA8-8A0E-241F62E50EBE";
shapes = (
{
closed = 1;
nodes = (
(54,188,l),
(467,188,l),
(467,249,l),
(54,249,l)
);
}
);
width = 521;
},
{
layerId = "34019E5C-CFBD-41F4-A079-921E83AB1F7F";
shapes = (
{
closed = 1;
nodes = (
(54,208,l),
(467,208,l),
(467,249,l),
(54,249,l)
);
}
);
width = 521;
}
);
unicode = 8211;
},
{
glyphname = emdash;
layers = (
{
layerId = "A25775AA-C32B-429E-A370-B71F346E2F61";
shapes = (
{
closed = 1;
nodes = (
(24,188,l),
(875,188,l),
(875,286,l),
(24,286,l)
);
}
);
width = 899;
},
{
layerId = "01F57539-F702-4EC8-9BFC-18F609AC6CA6";
shapes = (
{
closed = 1;
nodes = (
(30,188,l),
(876,188,l),
(876,278,l),
(30,278,l)
);
}
);
width = 906;
},
{
layerId = "7731FD6D-FAB0-4FA8-8A0E-241F62E50EBE";
shapes = (
{
closed = 1;
nodes = (
(54,188,l),
(880,188,l),
(880,248,l),
(54,248,l)
);
}
);
width = 934;
},
{
layerId = "34019E5C-CFBD-41F4-A079-921E83AB1F7F";
shapes = (
{
closed = 1;
nodes = (
(54,208,l),
(880,208,l),
(880,248,l),
(54,248,l)
);
}
);
width = 934;
}
);
unicode = 8212;
},
{
glyphname = quoteleft;
layers = (
{
layerId = "A25775AA-C32B-429E-A370-B71F346E2F61";
shapes = (
{
closed = 1;
nodes = (
(18,437,o),
(69,398,o),
(117,398,cs),
(177,398,o),
(210,439,o),
(210,487,cs),
(210,537,o),
(181,574,o),
(129,585,cs),
(116,588,l),
(125,635,o),
(167,680,o),
(210,704,c),
(166,764,l),
(95,728,o),
(18,637,o),
(18,532,cs)
);
}
);
width = 245;
},
{
layerId = "01F57539-F702-4EC8-9BFC-18F609AC6CA6";
shapes = (
{
closed = 1;
nodes = (
(20,450,o),
(70,415,o),
(114,415,cs),
(170,415,o),
(201,454,o),
(201,499,cs),
(201,545,o),
(174,580,o),
(126,590,cs),
(112,593,l),
(121,640,o),
(160,682,o),
(202,705,c),
(161,761,l),
(91,725,o),
(20,640,o),
(20,542,cs)
);
}
);
width = 237;
},
{
layerId = "7731FD6D-FAB0-4FA8-8A0E-241F62E50EBE";
shapes = (
{
closed = 1;
nodes = (
(30,504,o),
(73,484,o),
(104,484,cs),
(144,484,o),
(165,514,o),
(165,546,cs),
(165,577,o),
(147,606,o),
(113,610,c),
(95,613,l),
(104,660,o),
(134,690,o),
(169,709,c),
(140,749,l),
(76,714,o),
(30,654,o),
(30,582,cs)
);
}
);
width = 204;
},
{
layerId = "34019E5C-CFBD-41F4-A079-921E83AB1F7F";
shapes = (
{
closed = 1;
nodes = (
(23,547,o),
(50,533,o),
(71,533,cs),
(95,533,o),
(112,551,o),
(112,575,cs),
(112,603,o),
(94,619,o),
(72,623,cs),
(67,624,l),
(73,657,o),
(100,692,o),
(140,712,c),
(120,740,l),
(69,714,o),
(23,659,o),
(23,599,cs)
);
}
);
width = 162;
}
);
leftKerningGroup = _quoteleft;
rightKerningGroup = _quoteleft;
unicode = 8216;
},
{
glyphname = quoteright;
layers = (
{
layerId = "A25775AA-C32B-429E-A370-B71F346E2F61";
shapes = (
{
closed = 1;
nodes = (
(79,398,l),
(151,434,o),
(228,525,o),
(228,629,cs),
(228,725,o),
(176,764,o),
(128,764,cs),
(68,764,o),
(35,723,o),
(35,675,cs),
(35,625,o),
(65,588,o),
(116,577,cs),
(129,574,l),
(120,527,o),
(79,482,o),
(35,458,c)
);
}
);
width = 245;
},
{
layerId = "01F57539-F702-4EC8-9BFC-18F609AC6CA6";
shapes = (
{
closed = 1;
nodes = (
(76,415,l),
(146,451,o),
(217,536,o),
(217,634,cs),
(217,726,o),
(167,761,o),
(123,761,cs),
(67,761,o),
(36,722,o),
(36,677,cs),
(36,631,o),
(63,596,o),
(111,586,cs),
(125,583,l),
(116,536,o),
(77,494,o),
(35,471,c)
);
}
);
width = 237;
},
{
layerId = "7731FD6D-FAB0-4FA8-8A0E-241F62E50EBE";
shapes = (
{
closed = 1;
nodes = (
(64,484,l),
(128,519,o),
(174,582,o),
(174,654,cs),
(174,730,o),
(133,749,o),
(102,749,cs),
(62,749,o),
(39,719,o),
(39,687,cs),
(39,656,o),
(57,627,o),
(91,623,c),
(109,620,l),
(100,573,o),
(70,543,o),
(35,524,c)
);
}
);
width = 204;
},
{
layerId = "34019E5C-CFBD-41F4-A079-921E83AB1F7F";
shapes = (
{
closed = 1;
nodes = (
(42,508,l),
(93,534,o),
(139,589,o),
(139,649,cs),
(139,701,o),
(112,715,o),
(91,715,cs),
(67,715,o),
(50,697,o),
(50,673,cs),
(50,645,o),
(68,629,o),
(90,625,cs),
(95,624,l),
(89,591,o),
(62,556,o),
(22,536,c)
);
}
);
width = 162;
}
);
leftKerningGroup = _quoteright;
rightKerningGroup = _quoteright;
unicode = 8217;
},
{
glyphname = divide;
layers = (
{
layerId = "A25775AA-C32B-429E-A370-B71F346E2F61";
shapes = (
{
closed = 1;
nodes = (
(201,26,o),
(236,-8,o),
(278,-8,cs),
(319,-8,o),
(354,26,o),
(354,70,cs),
(354,109,o),
(319,146,o),
(278,146,cs),
(236,146,o),
(201,109,o),
(201,70,cs)
);
},
{
closed = 1;
nodes = (
(201,372,o),
(236,339,o),
(278,339,cs),
(319,339,o),
(354,372,o),
(354,416,cs),
(354,456,o),
(319,492,o),
(278,492,cs),
(236,492,o),
(201,456,o),
(201,416,cs)
);
},
{
closed = 1;
nodes = (
(40,199,l),
(518,199,l),
(518,285,l),
(40,285,l)
);
}
);
width = 558;
},
{
layerId = "01F57539-F702-4EC8-9BFC-18F609AC6CA6";
shapes = (
{
closed = 1;
nodes = (
(201,32,o),
(235,0,o),
(275,0,cs),
(315,0,o),
(348,32,o),
(348,74,cs),
(348,112,o),
(315,147,o),
(275,147,cs),
(235,147,o),
(201,112,o),
(201,74,cs)
);
},
{
closed = 1;
nodes = (
(201,374,o),
(235,342,o),
(275,342,cs),
(315,342,o),
(348,374,o),
(348,416,cs),
(348,454,o),
(315,489,o),
(275,489,cs),
(235,489,o),
(201,454,o),
(201,416,cs)
);
},
{
closed = 1;
nodes = (
(40,204,l),
(513,204,l),
(513,285,l),
(40,285,l)
);
}
);
width = 553;
},
{
layerId = "7731FD6D-FAB0-4FA8-8A0E-241F62E50EBE";
shapes = (
{
closed = 1;
nodes = (
(203,57,o),
(232,30,o),
(265,30,cs),
(298,30,o),
(326,57,o),
(326,92,cs),
(326,124,o),
(298,153,o),
(265,153,cs),
(232,153,o),
(203,124,o),
(203,92,cs)
);
},
{
closed = 1;
nodes = (
(203,381,o),
(232,354,o),
(265,354,cs),
(298,354,o),
(326,381,o),
(326,416,cs),
(326,448,o),
(298,477,o),
(265,477,cs),
(232,477,o),
(203,448,o),
(203,416,cs)
);
},
{
closed = 1;
nodes = (
(40,223,l),
(493,223,l),
(493,284,l),
(40,284,l)
);
}
);
width = 533;
},
{
layerId = "34019E5C-CFBD-41F4-A079-921E83AB1F7F";
shapes = (
{
closed = 1;
nodes = (
(222,60,o),
(240,43,o),
(263,43,cs),
(285,43,o),
(304,60,o),
(304,88,cs),
(304,114,o),
(285,133,o),
(263,133,cs),
(240,133,o),
(222,114,o),
(222,88,cs)
);
},
{
closed = 1;
nodes = (
(222,392,o),
(240,375,o),
(263,375,cs),
(285,375,o),
(304,392,o),
(304,420,cs),
(304,446,o),
(285,465,o),
(263,465,cs),
(240,465,o),
(222,446,o),
(222,420,cs)
);
},
{
closed = 1;
nodes = (
(40,233,l),
(493,233,l),
(493,274,l),
(40,274,l)
);
}
);
width = 533;
}
);
unicode = 247;
},
{
glyphname = minus;
layers = (
{
layerId = "A25775AA-C32B-429E-A370-B71F346E2F61";
shapes = (
{
closed = 1;
nodes = (
(40,274,l),
(433,274,l),
(433,360,l),
(40,360,l)
);
}
);
width = 473;
},
{
layerId = "01F57539-F702-4EC8-9BFC-18F609AC6CA6";
shapes = (
{
closed = 1;
nodes = (
(40,274,l),
(433,274,l),
(433,355,l),
(40,355,l)
);
}
);
width = 473;
},
{
layerId = "7731FD6D-FAB0-4FA8-8A0E-241F62E50EBE";
shapes = (
{
closed = 1;
nodes = (
(40,274,l),
(433,274,l),
(433,335,l),
(40,335,l)
);
}
);
width = 473;
},
{
layerId = "34019E5C-CFBD-41F4-A079-921E83AB1F7F";
shapes = (
{
closed = 1;
nodes = (
(40,294,l),
(433,294,l),
(433,335,l),
(40,335,l)
);
}
);
width = 473;
}
);
unicode = 8722;
},
{
glyphname = multiply;
layers = (
{
layerId = "A25775AA-C32B-429E-A370-B71F346E2F61";
shapes = (
{
closed = 1;
nodes = (
(41,171,l),
(112,100,l),
(238,226,l),
(364,101,l),
(435,172,l),
(309,297,l),
(435,423,l),
(364,494,l),
(238,369,l),
(112,495,l),
(41,424,l),
(167,297,l)
);
}
);
width = 475;
},
{
layerId = "01F57539-F702-4EC8-9BFC-18F609AC6CA6";
shapes = (
{
closed = 1;
nodes = (
(40,173,l),
(105,108,l),
(230,233,l),
(355,109,l),
(420,174,l),
(295,298,l),
(420,423,l),
(355,488,l),
(230,364,l),
(105,489,l),
(40,424,l),
(165,298,l)
);
}
);
width = 460;
},
{
layerId = "7731FD6D-FAB0-4FA8-8A0E-241F62E50EBE";
shapes = (
{
closed = 1;
nodes = (
(38,182,l),
(79,141,l),
(200,262,l),
(321,141,l),
(362,182,l),
(241,303,l),
(362,424,l),
(321,465,l),
(200,344,l),
(79,465,l),
(38,424,l),
(159,303,l)
);
}
);
width = 400;
},
{
layerId = "34019E5C-CFBD-41F4-A079-921E83AB1F7F";
shapes = (
{
closed = 1;
nodes = (
(43,177,l),
(74,146,l),
(200,272,l),
(326,146,l),
(357,177,l),
(231,303,l),
(357,429,l),
(326,460,l),
(200,334,l),
(74,460,l),
(43,429,l),
(169,303,l)
);
}
);
width = 400;
}
);
unicode = 215;
},
{
glyphname = dollar;
layers = (
{
layerId = "A25775AA-C32B-429E-A370-B71F346E2F61";
shapes = (
{
closed = 1;
nodes = (
(62,71,l),
(108,37,o),
(164,17,o),
(228,10,c),
(228,-107,l),
(331,-107,l),
(331,12,l),
(460,31,o),
(509,110,o),
(509,191,cs),
(509,282,o),
(454,347,o),
(355,380,cs),
(309,395,ls),
(244,416,o),
(229,431,o),
(229,456,cs),
(229,481,o),
(258,498,o),
(294,498,cs),
(342,498,o),
(400,478,o),
(432,459,c),
(474,575,l),
(434,601,o),
(386,614,o),
(346,621,c),
(346,733,l),
(243,733,l),
(243,619,l),
(140,617,o),
(59,541,o),
(59,443,cs),
(59,342,o),
(135,285,o),
(221,257,cs),
(273,239,ls),
(328,220,o),
(339,201,o),
(339,180,cs),
(339,162,o),
(327,134,o),
(259,134,cs),
(209,134,o),
(159,150,o),
(115,182,c)
);
}
);
width = 569;
},
{
layerId = "01F57539-F702-4EC8-9BFC-18F609AC6CA6";
shapes = (
{
closed = 1;
nodes = (
(63,67,l),
(110,35,o),
(163,16,o),
(226,10,c),
(226,-104,l),
(321,-104,l),
(321,12,l),
(444,29,o),
(499,104,o),
(499,189,cs),
(499,279,o),
(444,341,o),
(344,374,cs),
(298,389,ls),
(234,410,o),
(214,426,o),
(214,457,cs),
(214,489,o),
(246,508,o),
(288,508,cs),
(335,508,o),
(390,490,o),
(425,470,c),
(464,576,l),
(423,601,o),
(376,614,o),
(336,620,c),
(336,730,l),
(241,730,l),
(241,619,l),
(138,615,o),
(60,543,o),
(60,444,cs),
(60,346,o),
(133,292,o),
(218,264,cs),
(269,247,ls),
(328,227,o),
(345,207,o),
(345,179,cs),
(345,151,o),
(325,123,o),
(257,123,cs),
(209,123,o),
(158,138,o),
(112,170,c)
);
}
);
width = 561;
},
{
layerId = "7731FD6D-FAB0-4FA8-8A0E-241F62E50EBE";
shapes = (
{
closed = 1;
nodes = (
(68,53,l),
(119,26,o),
(161,14,o),
(218,11,c),
(218,-94,l),
(283,-94,l),
(283,11,l),
(379,21,o),
(458,81,o),
(458,181,cs),
(458,266,o),
(404,318,o),
(302,351,cs),
(256,366,ls),
(195,386,o),
(154,405,o),
(154,460,cs),
(154,520,o),
(200,549,o),
(265,549,cs),
(307,549,o),
(349,539,o),
(397,514,c),
(423,582,l),
(379,603,o),
(338,614,o),
(298,617,c),
(298,720,l),
(233,720,l),
(233,618,l),
(131,609,o),
(66,550,o),
(66,449,cs),
(66,363,o),
(124,320,o),
(208,293,c),
(254,278,ls),
(329,254,o),
(370,230,o),
(370,174,cs),
(370,109,o),
(316,80,o),
(250,80,cs),
(210,80,o),
(155,89,o),
(100,121,c)
);
}
);
width = 530;
},
{
layerId = "34019E5C-CFBD-41F4-A079-921E83AB1F7F";
shapes = (
{
closed = 1;
nodes = (
(71,63,l),
(115,40,o),
(170,25,o),
(226,22,c),
(226,-94,l),
(271,-94,l),
(271,22,l),
(389,30,o),
(448,93,o),
(448,175,cs),
(448,247,o),
(407,298,o),
(319,328,cs),
(248,352,ls),
(158,382,o),
(123,404,o),
(123,467,cs),
(123,521,o),
(174,566,o),
(258,566,cs),
(306,566,o),
(357,556,o),
(401,532,c),
(417,572,l),
(377,592,o),
(332,603,o),
(286,607,c),
(286,720,l),
(241,720,l),
(241,607,l),
(134,602,o),
(69,543,o),
(69,464,cs),
(69,381,o),
(131,339,o),
(208,314,cs),
(276,292,ls),
(379,259,o),
(394,219,o),
(394,169,cs),
(394,111,o),
(344,65,o),
(246,65,cs),
(192,65,o),
(136,78,o),
(90,104,c)
);
}
);
width = 520;
}
);
unicode = 36;
},
{
glyphname = A;
layers = (
{
layerId = "A25775AA-C32B-429E-A370-B71F346E2F61";
shapes = (
{
closed = 1;
nodes = (
(20,0,l),
(195,0,l),
(231,125,l),
(432,125,l),
(468,0,l),
(645,0,l),
(424,630,l),
(242,630,l)
);
},
{
closed = 1;
nodes = (
(266,244,l),
(286,312,ls),
(300,362,o),
(319,422,o),
(330,466,c),
(332,466,l),
(343,421,o),
(361,359,o),
(375,312,cs),
(395,244,l)
);
}
);
width = 668;
},
{
layerId = "01F57539-F702-4EC8-9BFC-18F609AC6CA6";
shapes = (
{
closed = 1;
nodes = (
(16,0,l),
(175,0,l),
(218,135,l),
(430,135,l),
(473,0,l),
(634,0,l),
(407,630,l),
(245,630,l)
);
},
{
closed = 1;
nodes = (
(251,245,l),
(275,321,ls),
(291,373,o),
(310,431,o),
(323,477,c),
(325,477,l),
(337,430,o),
(355,370,o),
(371,321,cs),
(395,245,l)
);
}
);
width = 652;
},
{
layerId = "7731FD6D-FAB0-4FA8-8A0E-241F62E50EBE";
shapes = (
{
closed = 1;
nodes = (
(2,0,l),
(97,0,l),
(165,175,l),
(424,175,l),
(493,0,l),
(589,0,l),
(338,630,l),
(256,630,l)
);
},
{
closed = 1;
nodes = (
(190,248,l),
(233,357,ls),
(256,416,o),
(275,466,o),
(294,522,c),
(296,522,l),
(315,466,o),
(333,414,o),
(355,357,cs),
(397,248,l)
);
}
);
width = 590;
},
{
layerId = "34019E5C-CFBD-41F4-A079-921E83AB1F7F";
shapes = (
{
closed = 1;
nodes = (
(26,0,l),
(81,0,l),
(150,186,l),
(432,186,l),
(501,0,l),
(557,0,l),
(319,630,l),
(267,630,l)
);
},
{
closed = 1;
nodes = (
(166,228,l),
(247,444,ls),
(256,468,o),
(278,529,o),
(292,578,c),
(294,578,l),
(307,529,o),
(330,460,o),
(336,444,cs),
(415,228,l)
);
}
);
width = 583;
}
);
leftKerningGroup = _A;
rightKerningGroup = _A;
unicode = 65;
},
{
glyphname = B;
layers = (
{
layerId = "A25775AA-C32B-429E-A370-B71F346E2F61";
shapes = (
{
closed = 1;
nodes = (
(63,0,l),
(307,0,ls),
(462,0,o),
(557,76,o),
(557,180,cs),
(557,271,o),
(494,316,o),
(422,329,c),
(472,340,o),
(538,385,o),
(538,462,cs),
(538,565,o),
(448,630,o),
(312,630,cs),
(63,630,l)
);
},
{
closed = 1;
nodes = (
(230,386,l),
(230,506,l),
(286,506,ls),
(341,506,o),
(367,484,o),
(367,450,cs),
(367,418,o),
(342,386,o),
(287,386,cs)
);
},
{
closed = 1;
nodes = (
(230,124,l),
(230,263,l),
(289,263,ls),
(351,263,o),
(386,241,o),
(386,195,cs),
(386,145,o),
(346,124,o),
(283,124,cs)
);
}
);
width = 592;
},
{
layerId = "01F57539-F702-4EC8-9BFC-18F609AC6CA6";
shapes = (
{
closed = 1;
nodes = (
(66,0,l),
(298,0,ls),
(448,0,o),
(543,75,o),
(543,179,cs),
(543,270,o),
(481,317,o),
(408,330,c),
(461,342,o),
(524,387,o),
(524,464,cs),
(524,567,o),
(437,630,o),
(303,630,cs),
(66,630,l)
);
},
{
closed = 1;
nodes = (
(218,382,l),
(218,516,l),
(280,516,ls),
(338,516,o),
(368,493,o),
(368,453,cs),
(368,411,o),
(336,382,o),
(279,382,cs)
);
},
{
closed = 1;
nodes = (
(218,114,l),
(218,269,l),
(278,269,ls),
(343,269,o),
(387,246,o),
(387,193,cs),
(387,136,o),
(342,114,o),
(277,114,cs)
);
}
);
width = 581;
},
{
layerId = "7731FD6D-FAB0-4FA8-8A0E-241F62E50EBE";
shapes = (
{
closed = 1;
nodes = (
(80,0,l),
(262,0,ls),
(392,0,o),
(487,72,o),
(487,176,cs),
(487,267,o),
(428,322,o),
(354,335,c),
(419,352,o),
(468,394,o),
(468,471,cs),
(468,574,o),
(394,630,o),
(269,630,c),
(80,630,l)
);
},
{
closed = 1;
nodes = (
(172,367,l),
(172,556,l),
(255,556,ls),
(326,556,o),
(374,528,o),
(374,464,cs),
(374,385,o),
(313,367,o),
(247,367,cs)
);
},
{
closed = 1;
nodes = (
(172,74,l),
(172,294,l),
(236,294,ls),
(312,294,o),
(391,267,o),
(391,185,cs),
(391,102,o),
(326,74,o),
(252,74,cs)
);
}
);
width = 537;
},
{
layerId = "34019E5C-CFBD-41F4-A079-921E83AB1F7F";
shapes = (
{
closed = 1;
nodes = (
(80,0,l),
(218,0,ls),
(357,0,o),
(447,72,o),
(447,176,cs),
(447,267,o),
(388,322,o),
(314,335,c),
(379,352,o),
(428,395,o),
(428,472,cs),
(428,575,o),
(355,630,o),
(230,630,cs),
(80,630,l)
);
},
{
closed = 1;
nodes = (
(132,354,l),
(132,588,l),
(216,588,ls),
(311,588,o),
(374,554,o),
(374,469,cs),
(374,382,o),
(296,354,o),
(210,354,cs)
);
},
{
closed = 1;
nodes = (
(132,42,l),
(132,312,l),
(211,312,ls),
(307,312,o),
(391,283,o),
(391,185,cs),
(391,81,o),
(308,42,o),
(208,42,cs)
);
}
);
width = 497;
}
);
unicode = 66;
},
{
glyphname = C;
layers = (
{
layerId = "A25775AA-C32B-429E-A370-B71F346E2F61";
shapes = (
{
closed = 1;
nodes = (
(36,119,o),
(174,-12,o),
(380,-12,cs),
(468,-12,o),
(531,11,o),
(553,25,c),
(521,143,l),
(496,127,o),
(455,115,o),
(398,115,cs),
(291,115,o),
(211,185,o),
(211,318,cs),
(211,462,o),
(293,517,o),
(397,517,cs),
(445,517,o),
(492,500,o),
(517,484,c),
(554,605,l),
(525,620,o),
(470,643,o),
(381,643,cs),
(165,643,o),
(36,510,o),
(36,316,cs)
);
}
);
width = 578;
},
{
layerId = "01F57539-F702-4EC8-9BFC-18F609AC6CA6";
shapes = (
{
closed = 1;
nodes = (
(38,116,o),
(175,-11,o),
(373,-11,cs),
(459,-11,o),
(520,9,o),
(547,25,c),
(517,134,l),
(489,117,o),
(448,105,o),
(389,105,cs),
(281,105,o),
(198,175,o),
(198,317,cs),
(198,468,o),
(283,526,o),
(390,526,cs),
(440,526,o),
(484,510,o),
(514,493,c),
(548,604,l),
(516,621,o),
(462,642,o),
(375,642,cs),
(167,642,o),
(38,512,o),
(38,316,cs)
);
}
);
width = 574;
},
{
layerId = "7731FD6D-FAB0-4FA8-8A0E-241F62E50EBE";
shapes = (
{
closed = 1;
nodes = (
(45,105,o),
(179,-9,o),
(345,-9,cs),
(424,-9,o),
(476,2,o),
(523,24,c),
(502,98,l),
(460,78,o),
(421,67,o),
(355,67,cs),
(241,67,o),
(145,134,o),
(145,314,cs),
(145,493,o),
(245,563,o),
(362,563,cs),
(420,563,o),
(454,552,o),
(504,530,c),
(526,602,l),
(481,625,o),
(432,639,o),
(350,639,cs),
(174,639,o),
(45,521,o),
(45,315,cs)
);
}
);
width = 559;
},
{
layerId = "34019E5C-CFBD-41F4-A079-921E83AB1F7F";
shapes = (
{
closed = 1;
nodes = (
(35,104,o),
(168,-8,o),
(334,-8,cs),
(406,-8,o),
(453,4,o),
(493,24,c),
(481,66,l),
(447,48,o),
(405,34,o),
(341,34,cs),
(222,34,o),
(89,105,o),
(89,313,cs),
(89,513,o),
(211,596,o),
(343,596,cs),
(397,596,o),
(440,585,o),
(484,563,c),
(496,602,l),
(454,625,o),
(409,638,o),
(332,638,cs),
(162,638,o),
(35,520,o),
(35,314,cs)
);
}
);
width = 529;
}
);
leftKerningGroup = _C;
rightKerningGroup = _C;
unicode = 67;
},
{
glyphname = D;
layers = (
{
layerId = "A25775AA-C32B-429E-A370-B71F346E2F61";
shapes = (
{
closed = 1;
nodes = (
(63,0,l),
(270,0,ls),
(469,0,o),
(629,110,o),
(629,328,cs),
(629,528,o),
(498,630,o),
(293,630,cs),
(63,630,l)
);
},
{
closed = 1;
nodes = (
(230,126,l),
(230,504,l),
(275,504,ls),
(384,504,o),
(454,442,o),
(454,328,cs),
(454,175,o),
(364,126,o),
(261,126,cs)
);
}
);
width = 662;
},
{
layerId = "01F57539-F702-4EC8-9BFC-18F609AC6CA6";
shapes = (
{
closed = 1;
nodes = (
(66,0,l),
(266,0,ls),
(462,0,o),
(622,105,o),
(622,328,cs),
(622,528,o),
(491,630,o),
(291,630,cs),
(66,630,l)
);
},
{
closed = 1;
nodes = (
(218,116,l),
(218,514,l),
(273,514,ls),
(388,514,o),
(462,448,o),
(462,328,cs),
(462,165,o),
(365,116,o),
(257,116,cs)
);
}
);
width = 658;
},
{
layerId = "7731FD6D-FAB0-4FA8-8A0E-241F62E50EBE";
shapes = (
{
closed = 1;
nodes = (
(80,0,l),
(250,0,ls),
(436,0,o),
(596,86,o),
(596,329,cs),
(596,529,o),
(463,630,o),
(285,630,c),
(80,630,l)
);
},
{
closed = 1;
nodes = (
(172,76,l),
(172,554,l),
(267,554,ls),
(406,554,o),
(496,474,o),
(496,329,cs),
(496,124,o),
(369,76,o),
(241,76,cs)
);
}
);
width = 642;
},
{
layerId = "34019E5C-CFBD-41F4-A079-921E83AB1F7F";
shapes = (
{
closed = 1;
nodes = (
(80,0,l),
(230,0,ls),
(406,0,o),
(556,86,o),
(556,329,cs),
(556,529,o),
(431,630,o),
(265,630,cs),
(80,630,l)
);
},
{
closed = 1;
nodes = (
(132,42,l),
(132,588,l),
(247,588,ls),
(398,588,o),
(502,492,o),
(502,329,cs),
(502,100,o),
(359,42,o),
(221,42,cs)
);
}
);
width = 602;
}
);
leftKerningGroup = _D;
rightKerningGroup = _D;
unicode = 68;
},
{
glyphname = E;
layers = (
{
layerId = "A25775AA-C32B-429E-A370-B71F346E2F61";
shapes = (
{
closed = 1;
nodes = (
(63,0,l),
(496,0,l),
(496,126,l),
(230,126,l),
(230,265,l),
(467,265,l),
(467,390,l),
(230,390,l),
(230,504,l),
(493,504,l),
(493,630,l),
(63,630,l)
);
}
);
width = 529;
},
{
layerId = "01F57539-F702-4EC8-9BFC-18F609AC6CA6";
shapes = (
{
closed = 1;
nodes = (
(66,0,l),
(489,0,l),
(489,116,l),
(218,116,l),
(218,270,l),
(460,270,l),
(460,385,l),
(218,385,l),
(218,514,l),
(486,514,l),
(486,630,l),
(66,630,l)
);
}
);
width = 523;
},
{
layerId = "7731FD6D-FAB0-4FA8-8A0E-241F62E50EBE";
shapes = (
{
closed = 1;
nodes = (
(80,0,l),
(463,0,l),
(463,76,l),
(172,76,l),
(172,290,l),
(434,290,l),
(434,365,l),
(172,365,l),
(172,554,l),
(460,554,l),
(460,630,l),
(80,630,l)
);
}
);
width = 501;
},
{
layerId = "34019E5C-CFBD-41F4-A079-921E83AB1F7F";
shapes = (
{
closed = 1;
nodes = (
(80,0,l),
(443,0,l),
(443,42,l),
(132,42,l),
(132,303,l),
(414,303,l),
(414,345,l),
(132,345,l),
(132,588,l),
(440,588,l),
(440,630,l),
(80,630,l)
);
}
);
width = 487;
}
);
leftKerningGroup = _E;
rightKerningGroup = _E;
unicode = 69;
},
{
glyphname = F;
layers = (
{
layerId = "A25775AA-C32B-429E-A370-B71F346E2F61";
shapes = (
{
closed = 1;
nodes = (
(63,0,l),
(230,0,l),
(230,238,l),
(461,238,l),
(461,363,l),
(230,363,l),
(230,504,l),
(483,504,l),
(483,630,l),
(63,630,l)
);
}
);
width = 505;
},
{
layerId = "01F57539-F702-4EC8-9BFC-18F609AC6CA6";
shapes = (
{
closed = 1;
nodes = (
(66,0,l),
(218,0,l),
(218,245,l),
(454,245,l),
(454,360,l),
(218,360,l),
(218,514,l),
(476,514,l),
(476,630,l),
(66,630,l)
);
}
);
width = 501;
},
{
layerId = "7731FD6D-FAB0-4FA8-8A0E-241F62E50EBE";
shapes = (
{
closed = 1;
nodes = (
(80,0,l),
(172,0,l),
(172,275,l),
(428,275,l),
(428,350,l),
(172,350,l),
(172,554,l),
(450,554,l),
(450,630,l),
(80,630,l)
);
}
);
width = 485;
},
{
layerId = "34019E5C-CFBD-41F4-A079-921E83AB1F7F";
shapes = (
{
closed = 1;
nodes = (
(80,0,l),
(132,0,l),
(132,295,l),
(408,295,l),
(408,336,l),
(132,336,l),
(132,588,l),
(430,588,l),
(430,630,l),
(80,630,l)
);
}
);
width = 465;
}
);
unicode = 70;
},
{
glyphname = G;
layers = (
{
layerId = "A25775AA-C32B-429E-A370-B71F346E2F61";
shapes = (
{
closed = 1;
nodes = (
(36,104,o),
(187,-12,o),
(383,-12,cs),
(470,-12,o),
(543,6,o),
(595,28,c),
(595,357,l),
(340,357,l),
(340,235,l),
(434,235,l),
(434,108,l),
(428,105,o),
(406,102,o),
(384,102,cs),
(273,102,o),
(211,179,o),
(211,314,cs),
(211,460,o),
(294,530,o),
(397,530,cs),
(441,530,o),
(496,520,o),
(540,499,c),
(573,606,l),
(526,627,o),
(463,643,o),
(383,643,cs),
(189,643,o),
(36,526,o),
(36,314,cs)
);
}
);
width = 641;
},
{
layerId = "01F57539-F702-4EC8-9BFC-18F609AC6CA6";
shapes = (
{
closed = 1;
nodes = (
(38,104,o),
(186,-11,o),
(377,-11,cs),
(465,-11,o),
(536,6,o),
(588,28,c),
(588,352,l),
(343,352,l),
(343,240,l),
(442,240,l),
(442,103,l),
(430,98,o),
(406,95,o),
(378,95,cs),
(263,95,o),
(198,174,o),
(198,314,cs),
(198,468,o),
(285,537,o),
(391,537,cs),
(437,537,o),
(490,527,o),
(535,505,c),
(566,605,l),
(518,627,o),
(456,642,o),
(377,642,cs),
(186,642,o),
(38,526,o),
(38,314,cs)
);
}
);
width = 636;
},
{
layerId = "7731FD6D-FAB0-4FA8-8A0E-241F62E50EBE";
shapes = (
{
closed = 1;
nodes = (
(45,104,o),
(182,-9,o),
(355,-9,cs),
(444,-9,o),
(507,7,o),
(560,28,c),
(560,332,l),
(355,332,l),
(355,260,l),
(474,260,l),
(474,85,l),
(440,72,o),
(406,67,o),
(355,67,cs),
(222,67,o),
(145,154,o),
(145,314,cs),
(145,500,o),
(249,564,o),
(366,564,cs),
(420,564,o),
(466,554,o),
(515,531,c),
(537,603,l),
(486,629,o),
(428,639,o),
(355,639,cs),
(176,639,o),
(45,526,o),
(45,314,cs)
);
}
);
width = 618;
},
{
layerId = "34019E5C-CFBD-41F4-A079-921E83AB1F7F";
shapes = (
{
closed = 1;
nodes = (
(45,104,o),
(186,-8,o),
(354,-8,cs),
(430,-8,o),
(478,4,o),
(522,23,c),
(522,317,l),
(335,317,l),
(335,276,l),
(470,276,l),
(470,52,l),
(453,43,o),
(411,34,o),
(359,34,cs),
(212,34,o),
(97,136,o),
(97,314,cs),
(97,521,o),
(222,596,o),
(359,596,cs),
(409,596,o),
(458,583,o),
(504,560,c),
(517,602,l),
(469,628,o),
(417,638,o),
(348,638,cs),
(175,638,o),
(45,526,o),
(45,314,cs)
);
}
);
width = 580;
}
);
leftKerningGroup = _G;
rightKerningGroup = _G;
unicode = 71;
},
{
glyphname = H;
layers = (
{
layerId = "A25775AA-C32B-429E-A370-B71F346E2F61";
shapes = (
{
closed = 1;
nodes = (
(63,0,l),
(230,0,l),
(230,262,l),
(429,262,l),
(429,0,l),
(596,0,l),
(596,630,l),
(429,630,l),
(429,390,l),
(230,390,l),
(230,630,l),
(63,630,l)
);
}
);
width = 658;
},
{
layerId = "01F57539-F702-4EC8-9BFC-18F609AC6CA6";
shapes = (
{
closed = 1;
nodes = (
(66,0,l),
(218,0,l),
(218,267,l),
(437,267,l),
(437,0,l),
(589,0,l),
(589,630,l),
(437,630,l),
(437,385,l),
(218,385,l),
(218,630,l),
(66,630,l)
);
}
);
width = 655;
},
{
layerId = "7731FD6D-FAB0-4FA8-8A0E-241F62E50EBE";
shapes = (
{
closed = 1;
nodes = (
(80,0,l),
(172,0,l),
(172,287,l),
(471,287,l),
(471,0,l),
(563,0,l),
(563,630,l),
(471,630,l),
(471,365,l),
(172,365,l),
(172,630,l),
(80,630,l)
);
}
);
width = 642;
},
{
layerId = "34019E5C-CFBD-41F4-A079-921E83AB1F7F";
shapes = (
{
closed = 1;
nodes = (
(80,0,l),
(132,0,l),
(132,305,l),
(471,305,l),
(471,0,l),
(523,0,l),
(523,630,l),
(471,630,l),
(471,347,l),
(132,347,l),
(132,630,l),
(80,630,l)
);
}
);
width = 603;
}
);
leftKerningGroup = _H;
rightKerningGroup = _H;
unicode = 72;
},
{
glyphname = I;
layers = (
{
layerId = "A25775AA-C32B-429E-A370-B71F346E2F61";
shapes = (
{
closed = 1;
nodes = (
(63,0,l),
(230,0,l),
(230,630,l),
(63,630,l)
);
}
);
width = 292;
},
{
layerId = "01F57539-F702-4EC8-9BFC-18F609AC6CA6";
shapes = (
{
closed = 1;
nodes = (
(66,0,l),
(218,0,l),
(218,630,l),
(66,630,l)
);
}
);
width = 284;
},
{
layerId = "7731FD6D-FAB0-4FA8-8A0E-241F62E50EBE";
shapes = (
{
closed = 1;
nodes = (
(80,0,l),
(172,0,l),
(172,630,l),
(80,630,l)
);
}
);
width = 251;
},
{
layerId = "34019E5C-CFBD-41F4-A079-921E83AB1F7F";
shapes = (
{
closed = 1;
nodes = (
(80,0,l),
(132,0,l),
(132,630,l),
(80,630,l)
);
}
);
width = 212;
}
);
leftKerningGroup = _I;
rightKerningGroup = _I;
unicode = 73;
},
{
glyphname = J;
layers = (
{
layerId = "A25775AA-C32B-429E-A370-B71F346E2F61";
shapes = (
{
closed = 1;
nodes = (
(-21,-180,l),
(59,-180,o),
(130,-163,o),
(178,-114,c),
(227,-61,o),
(241,2,o),
(241,115,cs),
(241,630,l),
(74,630,l),
(74,61,ls),
(74,19,o),
(69,-15,o),
(45,-33,cs),
(31,-44,o),
(10,-55,o),
(-21,-55,c)
);
}
);
width = 305;
},
{
layerId = "01F57539-F702-4EC8-9BFC-18F609AC6CA6";
shapes = (
{
closed = 1;
nodes = (
(-20,-175,l),
(57,-175,o),
(128,-157,o),
(174,-107,cs),
(220,-55,o),
(232,6,o),
(232,115,cs),
(232,630,l),
(80,630,l),
(80,62,ls),
(80,20,o),
(75,-15,o),
(51,-35,cs),
(36,-48,o),
(13,-60,o),
(-20,-60,c)
);
}
);
width = 298;
},
{
layerId = "7731FD6D-FAB0-4FA8-8A0E-241F62E50EBE";
shapes = (
{
closed = 1;
nodes = (
(-15,-155,l),
(49,-154,o),
(119,-135,o),
(159,-79,cs),
(192,-33,o),
(197,22,o),
(197,115,cs),
(197,630,l),
(105,630,l),
(105,67,ls),
(105,25,o),
(100,-17,o),
(76,-43,cs),
(55,-66,o),
(26,-79,o),
(-15,-80,c)
);
}
);
width = 269;
},
{
layerId = "34019E5C-CFBD-41F4-A079-921E83AB1F7F";
shapes = (
{
closed = 1;
nodes = (
(-15,-135,l),
(41,-134,o),
(108,-117,o),
(144,-61,cs),
(169,-22,o),
(177,21,o),
(177,104,cs),
(177,630,l),
(125,630,l),
(125,69,ls),
(125,12,o),
(116,-36,o),
(81,-66,cs),
(57,-86,o),
(26,-97,o),
(-15,-98,c)
);
}
);
width = 249;
}
);
leftKerningGroup = _J;
rightKerningGroup = _J;
unicode = 74;
},
{
glyphname = K;
layers = (
{
layerId = "A25775AA-C32B-429E-A370-B71F346E2F61";
shapes = (
{
closed = 1;
nodes = (
(63,0,l),
(230,0,l),
(230,202,l),
(280,257,l),
(438,0,l),
(641,0,l),
(402,359,l),
(621,630,l),
(413,630,l),
(230,379,l),
(230,630,l),
(63,630,l)
);
}
);
width = 636;
},
{
layerId = "01F57539-F702-4EC8-9BFC-18F609AC6CA6";
shapes = (
{
closed = 1;
nodes = (
(66,0,l),
(218,0,l),
(218,208,l),
(269,263,l),
(441,0,l),
(627,0,l),
(380,357,l),
(607,630,l),
(418,630,l),
(218,372,l),
(218,630,l),
(66,630,l)
);
}
);
width = 624;
},
{
layerId = "7731FD6D-FAB0-4FA8-8A0E-241F62E50EBE";
shapes = (
{
closed = 1;
nodes = (
(80,0,l),
(172,0,l),
(172,231,l),
(225,288,l),
(455,0,l),
(571,0,l),
(291,351,l),
(551,630,l),
(437,630,l),
(172,345,l),
(172,630,l),
(80,630,l)
);
}
);
width = 576;
},
{
layerId = "34019E5C-CFBD-41F4-A079-921E83AB1F7F";
shapes = (
{
closed = 1;
nodes = (
(80,0,l),
(132,0,l),
(132,239,l),
(205,318,l),
(455,0,l),
(522,0,l),
(240,354,l),
(497,630,l),
(431,630,l),
(132,305,l),
(132,630,l),
(80,630,l)
);
}
);
width = 512;
}
);
leftKerningGroup = _K;
rightKerningGroup = _K;
unicode = 75;
},
{
glyphname = L;
layers = (
{
layerId = "A25775AA-C32B-429E-A370-B71F346E2F61";
shapes = (
{
closed = 1;
nodes = (
(63,0,l),
(474,0,l),
(474,128,l),
(230,128,l),
(230,630,l),
(63,630,l)
);
}
);
width = 476;
},
{
layerId = "01F57539-F702-4EC8-9BFC-18F609AC6CA6";
shapes = (
{
closed = 1;
nodes = (
(66,0,l),
(467,0,l),
(467,118,l),
(218,118,l),
(218,630,l),
(66,630,l)
);
}
);
width = 472;
},
{
layerId = "7731FD6D-FAB0-4FA8-8A0E-241F62E50EBE";
shapes = (
{
closed = 1;
nodes = (
(80,0,l),
(441,0,l),
(441,78,l),
(172,78,l),
(172,630,l),
(80,630,l)
);
}
);
width = 456;
},
{
layerId = "34019E5C-CFBD-41F4-A079-921E83AB1F7F";
shapes = (
{
closed = 1;
nodes = (
(80,0,l),
(421,0,l),
(421,42,l),
(132,42,l),
(132,630,l),
(80,630,l)
);
}
);
width = 436;
}
);
leftKerningGroup = _L;
rightKerningGroup = _L;
unicode = 76;
},
{
glyphname = M;
layers = (
{
layerId = "A25775AA-C32B-429E-A370-B71F346E2F61";
shapes = (
{
closed = 1;
nodes = (
(64,0,l),
(217,0,l),
(224,183,l),
(228,253,o),
(232,391,o),
(229,480,c),
(232,480,l),
(249,387,o),
(275,274,o),
(300,198,cs),
(363,0,l),
(485,0,l),
(544,199,l),
(568,274,o),
(598,388,o),
(616,480,c),
(619,480,l),
(617,397,o),
(619,265,o),
(623,183,cs),
(630,0,l),
(785,0,l),
(742,630,l),
(535,630,l),
(484,454,ls),
(474,418,o),
(441,297,o),
(428,216,c),
(423,216,l),
(412,292,o),
(383,397,o),
(364,454,c),
(312,630,l),
(105,630,l)
);
}
);
width = 849;
},
{
layerId = "01F57539-F702-4EC8-9BFC-18F609AC6CA6";
shapes = (
{
closed = 1;
nodes = (
(64,0,l),
(204,0,l),
(215,213,ls),
(219,282,o),
(223,406,o),
(221,490,c),
(224,490,l),
(241,402,o),
(266,300,o),
(290,225,cs),
(363,0,l),
(477,0,l),
(547,226,ls),
(570,299,o),
(598,403,o),
(616,490,c),
(619,490,l),
(618,410,o),
(620,292,o),
(624,213,cs),
(635,0,l),
(777,0,l),
(732,630,l),
(542,630,l),
(476,409,ls),
(465,371,o),
(436,268,o),
(424,196,c),
(419,196,l),
(408,264,o),
(383,355,o),
(365,409,c),
(297,630,l),
(107,630,l)
);
}
);
width = 841;
},
{
layerId = "7731FD6D-FAB0-4FA8-8A0E-241F62E50EBE";
shapes = (
{
closed = 1;
nodes = (
(64,0,l),
(154,0,l),
(178,334,ls),
(183,399,o),
(188,465,o),
(191,530,c),
(193,530,l),
(211,462,o),
(230,403,o),
(252,335,cs),
(363,0,l),
(447,0,l),
(558,334,ls),
(579,399,o),
(599,465,o),
(617,530,c),
(619,530,l),
(621,464,o),
(624,399,o),
(629,334,cs),
(655,0,l),
(747,0,l),
(692,630,l),
(572,630,l),
(443,228,ls),
(429,185,o),
(418,153,o),
(407,116,c),
(405,116,l),
(394,153,o),
(382,189,o),
(369,228,cs),
(237,630,l),
(117,630,l)
);
}
);
width = 811;
},
{
layerId = "34019E5C-CFBD-41F4-A079-921E83AB1F7F";
shapes = (
{
closed = 1;
nodes = (
(64,0,l),
(114,0,l),
(150,361,ls),
(157,435,o),
(163,520,o),
(168,582,c),
(170,582,l),
(190,508,o),
(213,434,o),
(239,361,cs),
(366,0,l),
(413,0,l),
(539,361,ls),
(565,434,o),
(591,520,o),
(609,582,c),
(611,582,l),
(615,508,o),
(622,435,o),
(629,361,cs),
(665,0,l),
(717,0,l),
(652,630,l),
(582,630,l),
(424,166,ls),
(416,144,o),
(401,96,o),
(392,62,c),
(390,62,l),
(380,97,o),
(365,143,o),
(357,167,cs),
(197,630,l),
(129,630,l)
);
}
);
width = 781;
}
);
unicode = 77;
},
{
glyphname = N;
layers = (
{
layerId = "A25775AA-C32B-429E-A370-B71F346E2F61";
shapes = (
{
closed = 1;
nodes = (
(63,0,l),
(215,0,l),
(215,169,ls),
(215,255,o),
(215,336,o),
(207,425,c),
(209,425,l),
(240,333,o),
(285,251,o),
(340,170,cs),
(452,0,l),
(607,0,l),
(607,630,l),
(454,630,l),
(454,475,ls),
(454,387,o),
(454,296,o),
(462,209,c),
(460,209,l),
(433,280,o),
(374,380,o),
(318,466,c),
(218,630,l),
(63,630,l)
);
}
);
width = 670;
},
{
layerId = "01F57539-F702-4EC8-9BFC-18F609AC6CA6";
shapes = (
{
closed = 1;
nodes = (
(66,0,l),
(206,0,l),
(206,200,ls),
(206,280,o),
(206,356,o),
(199,439,c),
(201,439,l),
(229,358,o),
(270,285,o),
(318,215,cs),
(464,0,l),
(604,0,l),
(604,630,l),
(464,630,l),
(464,436,ls),
(464,356,o),
(464,274,o),
(471,195,c),
(469,195,l),
(444,258,o),
(393,344,o),
(344,419,cs),
(206,630,l),
(66,630,l)
);
}
);
width = 670;
},
{
layerId = "7731FD6D-FAB0-4FA8-8A0E-241F62E50EBE";
shapes = (
{
closed = 1;
nodes = (
(80,0,l),
(170,0,l),
(170,326,ls),
(170,382,o),
(169,438,o),
(166,494,c),
(168,494,l),
(186,459,o),
(209,422,o),
(229,394,cs),
(513,0,l),
(593,0,l),
(593,630,l),
(503,630,l),
(503,281,ls),
(503,234,o),
(504,188,o),
(507,141,c),
(505,141,l),
(489,170,o),
(468,202,o),
(447,231,cs),
(160,630,l),
(80,630,l)
);
}
);
width = 672;
},
{
layerId = "34019E5C-CFBD-41F4-A079-921E83AB1F7F";
shapes = (
{
closed = 1;
nodes = (
(80,0,l),
(130,0,l),
(130,376,ls),
(130,438,o),
(129,500,o),
(127,562,c),
(129,562,l),
(158,507,o),
(191,449,o),
(227,396,cs),
(493,0,l),
(543,0,l),
(543,630,l),
(493,630,l),
(493,236,ls),
(493,185,o),
(493,133,o),
(495,82,c),
(493,82,l),
(465,127,o),
(435,171,o),
(405,216,cs),
(130,630,l),
(80,630,l)
);
}
);
width = 623;
}
);
leftKerningGroup = _N;
rightKerningGroup = _N;
unicode = 78;
},
{
glyphname = O;
layers = (
{
layerId = "A25775AA-C32B-429E-A370-B71F346E2F61";
shapes = (
{
closed = 1;
nodes = (
(36,111,o),
(171,-12,o),
(356,-12,cs),
(541,-12,o),
(680,116,o),
(680,314,cs),
(680,516,o),
(545,643,o),
(360,643,cs),
(175,643,o),
(36,511,o),
(36,314,cs)
);
},
{
closed = 1;
nodes = (
(211,449,o),
(276,519,o),
(356,519,cs),
(437,519,o),
(505,454,o),
(505,314,cs),
(505,179,o),
(440,113,o),
(360,113,cs),
(279,113,o),
(211,179,o),
(211,314,cs)
);
}
);
width = 716;
},
{
layerId = "01F57539-F702-4EC8-9BFC-18F609AC6CA6";
shapes = (
{
closed = 1;
nodes = (
(38,109,o),
(171,-11,o),
(353,-11,cs),
(535,-11,o),
(672,114,o),
(672,314,cs),
(672,519,o),
(539,642,o),
(357,642,cs),
(175,642,o),
(38,514,o),
(38,314,cs)
);
},
{
closed = 1;
nodes = (
(198,456,o),
(267,528,o),
(353,528,cs),
(440,528,o),
(512,461,o),
(512,314,cs),
(512,172,o),
(443,103,o),
(357,103,cs),
(270,103,o),
(198,172,o),
(198,314,cs)
);
}
);
width = 710;
},
{
layerId = "7731FD6D-FAB0-4FA8-8A0E-241F62E50EBE";
shapes = (
{
closed = 1;
nodes = (
(46,100,o),
(171,-9,o),
(341,-9,cs),
(511,-9,o),
(640,105,o),
(640,315,cs),
(640,530,o),
(515,639,o),
(345,639,cs),
(175,639,o),
(46,525,o),
(46,315,cs)
);
},
{
closed = 1;
nodes = (
(146,485,o),
(231,565,o),
(341,565,cs),
(451,565,o),
(540,490,o),
(540,315,cs),
(540,145,o),
(455,65,o),
(345,65,cs),
(235,65,o),
(146,145,o),
(146,315,cs)
);
}
);
width = 686;
},
{
layerId = "34019E5C-CFBD-41F4-A079-921E83AB1F7F";
shapes = (
{
closed = 1;
nodes = (
(46,100,o),
(169,-8,o),
(321,-8,cs),
(474,-8,o),
(600,105,o),
(600,315,cs),
(600,530,o),
(477,638,o),
(325,638,cs),
(172,638,o),
(46,525,o),
(46,315,cs)
);
},
{
closed = 1;
nodes = (
(100,506,o),
(203,596,o),
(321,596,cs),
(440,596,o),
(546,511,o),
(546,315,cs),
(546,124,o),
(443,34,o),
(325,34,cs),
(206,34,o),
(100,124,o),
(100,315,cs)
);
}
);
width = 646;
}
);
leftKerningGroup = _O;
rightKerningGroup = _O;
unicode = 79;
},
{
glyphname = P;
layers = (
{
layerId = "F3DD9027-1EA0-47D2-8A1E-16FEA0668E69";
name = "#instance";
shapes = (
{
closed = 1;
nodes = (
(80,0,l),
(132,0,l),
(132,267,l),
(245,267,ls),
(364,267,o),
(457,330,o),
(457,450,cs),
(457,572,o),
(371,630,o),
(253,630,cs),
(80,630,l)
);
},
{
closed = 1;
nodes = (
(132,309,l),
(132,588,l),
(236,588,ls),
(318,588,o),
(401,558,o),
(401,449,cs),
(401,344,o),
(329,309,o),
(220,309,cs)
);
}
);
width = 502;
},
{
layerId = "A25775AA-C32B-429E-A370-B71F346E2F61";
shapes = (
{
closed = 1;
nodes = (
(63,0,l),
(230,0,l),
(230,219,l),
(286,219,ls),
(429,219,o),
(555,286,o),
(555,437,cs),
(555,559,o),
(456,630,o),
(298,630,cs),
(63,630,l)
);
},
{
closed = 1;
nodes = (
(230,344,l),
(230,506,l),
(285,506,ls),
(348,506,o),
(384,476,o),
(384,427,cs),
(384,369,o),
(334,344,o),
(284,344,cs)
);
}
);
width = 586;
},
{
layerId = "01F57539-F702-4EC8-9BFC-18F609AC6CA6";
shapes = (
{
closed = 1;
nodes = (
(66,0,l),
(218,0,l),
(218,224,l),
(282,224,ls),
(423,224,o),
(543,290,o),
(543,437,cs),
(543,559,o),
(446,630,o),
(294,630,cs),
(66,630,l)
);
},
{
closed = 1;
nodes = (
(218,339,l),
(218,516,l),
(279,516,ls),
(344,516,o),
(387,486,o),
(387,429,cs),
(387,363,o),
(333,339,o),
(273,339,cs)
);
}
);
width = 573;
},
{
layerId = "7731FD6D-FAB0-4FA8-8A0E-241F62E50EBE";
shapes = (
{
closed = 1;
nodes = (
(80,0,l),
(172,0,l),
(172,244,l),
(266,244,ls),
(401,244,o),
(497,306,o),
(497,439,cs),
(497,561,o),
(408,630,o),
(278,630,cs),
(80,630,l)
);
},
{
closed = 1;
nodes = (
(172,319,l),
(172,556,l),
(257,556,ls),
(329,556,o),
(401,526,o),
(401,438,cs),
(401,341,o),
(329,319,o),
(229,319,cs)
);
}
);
width = 523;
},
{
layerId = "34019E5C-CFBD-41F4-A079-921E83AB1F7F";
shapes = (
{
closed = 1;
nodes = (
(80,0,l),
(132,0,l),
(132,267,l),
(245,267,ls),
(364,267,o),
(457,330,o),
(457,450,cs),
(457,572,o),
(371,630,o),
(253,630,cs),
(80,630,l)
);
},
{
closed = 1;
nodes = (
(132,309,l),
(132,588,l),
(236,588,ls),
(318,588,o),
(401,558,o),
(401,449,cs),
(401,344,o),
(329,309,o),
(220,309,cs)
);
}
);
width = 502;
}
);
unicode = 80;
},
{
glyphname = Q;
layers = (
{
layerId = "F3DD9027-1EA0-47D2-8A1E-16FEA0668E69";
name = "#instance";
shapes = (
{
closed = 1;
nodes = (
(116,-98,l),
(168,-196,l),
(201,-176,o),
(227,-169,o),
(271,-169,cs),
(358,-169,o),
(433,-230,o),
(560,-230,cs),
(639,-230,o),
(687,-199,o),
(697,-185,c),
(641,-75,l),
(627,-91,o),
(590,-104,o),
(551,-104,cs),
(480,-104,o),
(434,-73,o),
(388,-67,c),
(493,-8,ls),
(601,52,o),
(680,164,o),
(680,314,cs),
(680,516,o),
(544,643,o),
(359,643,cs),
(174,643,o),
(36,511,o),
(36,314,cs),
(36,146,o),
(129,27,o),
(284,-2,c)
);
},
{
closed = 1;
nodes = (
(211,450,o),
(277,519,o),
(357,519,cs),
(439,519,o),
(505,455,o),
(505,315,cs),
(505,183,o),
(445,110,o),
(360,110,cs),
(280,110,o),
(211,180,o),
(211,315,cs)
);
}
);
width = 718;
},
{
layerId = "A25775AA-C32B-429E-A370-B71F346E2F61";
shapes = (
{
closed = 1;
nodes = (
(116,-98,l),
(168,-196,l),
(201,-176,o),
(227,-169,o),
(271,-169,cs),
(358,-169,o),
(433,-230,o),
(560,-230,cs),
(639,-230,o),
(687,-199,o),
(697,-185,c),
(641,-75,l),
(627,-91,o),
(590,-104,o),
(551,-104,cs),
(480,-104,o),
(434,-73,o),
(388,-67,c),
(493,-8,ls),
(601,52,o),
(680,164,o),
(680,314,cs),
(680,516,o),
(544,643,o),
(359,643,cs),
(174,643,o),
(36,511,o),
(36,314,cs),
(36,146,o),
(129,27,o),
(284,-2,c)
);
},
{
closed = 1;
nodes = (
(211,450,o),
(277,519,o),
(357,519,cs),
(439,519,o),
(505,455,o),
(505,315,cs),
(505,183,o),
(445,110,o),
(360,110,cs),
(280,110,o),
(211,180,o),
(211,315,cs)
);
}
);
width = 718;
},
{
layerId = "01F57539-F702-4EC8-9BFC-18F609AC6CA6";
shapes = (
{
closed = 1;
nodes = (
(119,-97,l),
(168,-189,l),
(201,-169,o),
(229,-161,o),
(271,-161,cs),
(358,-161,o),
(436,-222,o),
(556,-222,cs),
(627,-222,o),
(675,-195,o),
(691,-179,c),
(639,-78,l),
(622,-94,o),
(586,-106,o),
(550,-106,cs),
(475,-106,o),
(427,-72,o),
(375,-67,c),
(486,-5,ls),
(598,57,o),
(672,166,o),
(672,314,cs),
(672,519,o),
(538,642,o),
(356,642,cs),
(174,642,o),
(38,514,o),
(38,314,cs),
(38,142,o),
(132,25,o),
(284,-2,c)
);
},
{
closed = 1;
nodes = (
(198,457,o),
(268,528,o),
(354,528,cs),
(441,528,o),
(512,462,o),
(512,315,cs),
(512,176,o),
(445,100,o),
(355,100,cs),
(269,100,o),
(198,173,o),
(198,315,cs)
);
}
);
width = 711;
},
{
layerId = "7731FD6D-FAB0-4FA8-8A0E-241F62E50EBE";
shapes = (
{
closed = 1;
nodes = (
(130,-93,l),
(168,-162,l),
(203,-142,o),
(236,-131,o),
(271,-131,cs),
(358,-131,o),
(448,-192,o),
(542,-192,cs),
(581,-192,o),
(629,-180,o),
(666,-156,c),
(630,-89,l),
(604,-107,o),
(571,-116,o),
(545,-116,cs),
(454,-116,o),
(401,-69,o),
(322,-68,c),
(458,8,ls),
(585,79,o),
(640,176,o),
(640,315,cs),
(640,530,o),
(515,639,o),
(345,639,cs),
(175,639,o),
(46,525,o),
(46,315,cs),
(46,125,o),
(144,18,o),
(284,-4,c)
);
},
{
closed = 1;
nodes = (
(146,485,o),
(231,565,o),
(341,565,cs),
(451,565,o),
(540,490,o),
(540,315,cs),
(540,150,o),
(446,60,o),
(336,60,cs),
(226,60,o),
(146,145,o),
(146,315,cs)
);
}
);
width = 682;
},
{
layerId = "34019E5C-CFBD-41F4-A079-921E83AB1F7F";
shapes = (
{
closed = 1;
nodes = (
(130,-114,l),
(151,-150,l),
(187,-128,o),
(225,-118,o),
(266,-118,cs),
(350,-118,o),
(417,-166,o),
(512,-166,cs),
(551,-166,o),
(590,-156,o),
(621,-135,c),
(602,-100,l),
(581,-115,o),
(544,-126,o),
(515,-126,cs),
(422,-126,o),
(357,-78,o),
(277,-78,c),
(429,8,ls),
(556,80,o),
(597,189,o),
(597,315,cs),
(597,530,o),
(484,638,o),
(320,638,cs),
(168,638,o),
(49,525,o),
(49,315,cs),
(49,125,o),
(149,-3,o),
(317,-7,c)
);
},
{
closed = 1;
nodes = (
(103,506,o),
(203,596,o),
(319,596,cs),
(447,596,o),
(543,511,o),
(543,315,cs),
(543,136,o),
(449,34,o),
(323,34,cs),
(205,34,o),
(103,124,o),
(103,315,cs)
);
}
);
width = 641;
}
);
unicode = 81;
},
{
glyphname = R;
layers = (
{
layerId = "A25775AA-C32B-429E-A370-B71F346E2F61";
shapes = (
{
closed = 1;
nodes = (
(63,0,l),
(231,0,l),
(231,222,l),
(284,222,l),
(387,0,l),
(580,0,l),
(432,252,l),
(477,271,o),
(549,325,o),
(549,430,cs),
(549,539,o),
(472,630,o),
(324,630,cs),
(63,630,l)
);
},
{
closed = 1;
nodes = (
(231,347,l),
(231,506,l),
(284,506,ls),
(344,506,o),
(378,474,o),
(378,430,cs),
(378,373,o),
(335,347,o),
(269,347,cs)
);
}
);
width = 595;
},
{
layerId = "01F57539-F702-4EC8-9BFC-18F609AC6CA6";
shapes = (
{
closed = 1;
nodes = (
(66,0,l),
(218,0,l),
(218,227,l),
(281,227,l),
(393,0,l),
(568,0,l),
(417,254,l),
(466,275,o),
(536,329,o),
(536,432,cs),
(536,541,o),
(461,630,o),
(316,630,cs),
(66,630,l)
);
},
{
closed = 1;
nodes = (
(218,342,l),
(218,516,l),
(279,516,ls),
(344,516,o),
(380,483,o),
(380,431,cs),
(380,369,o),
(333,342,o),
(264,342,cs)
);
}
);
width = 583;
},
{
layerId = "7731FD6D-FAB0-4FA8-8A0E-241F62E50EBE";
shapes = (
{
closed = 1;
nodes = (
(80,0,l),
(167,0,l),
(167,247,l),
(270,247,l),
(419,0,l),
(522,0,l),
(356,264,l),
(421,290,o),
(485,345,o),
(485,442,cs),
(485,551,o),
(416,630,o),
(285,630,cs),
(80,630,l)
);
},
{
closed = 1;
nodes = (
(167,322,l),
(167,556,l),
(258,556,ls),
(343,556,o),
(389,518,o),
(389,437,cs),
(389,354,o),
(325,322,o),
(243,322,cs)
);
}
);
width = 537;
},
{
layerId = "34019E5C-CFBD-41F4-A079-921E83AB1F7F";
shapes = (
{
closed = 1;
nodes = (
(80,0,l),
(127,0,l),
(127,267,l),
(278,267,l),
(442,0,l),
(502,0,l),
(326,277,l),
(399,297,o),
(464,358,o),
(464,455,cs),
(464,558,o),
(395,630,o),
(264,630,cs),
(80,630,l)
);
},
{
closed = 1;
nodes = (
(127,309,l),
(127,588,l),
(244,588,ls),
(353,588,o),
(410,548,o),
(410,453,cs),
(410,356,o),
(340,309,o),
(243,309,cs)
);
}
);
width = 520;
}
);
leftKerningGroup = _R;
rightKerningGroup = _R;
unicode = 82;
},
{
glyphname = S;
layers = (
{
layerId = "F3DD9027-1EA0-47D2-8A1E-16FEA0668E69";
name = "#instance";
shapes = (
{
closed = 1;
nodes = (
(46,32,l),
(106,3,o),
(169,-8,o),
(232,-8,cs),
(357,-8,o),
(436,58,o),
(436,163,cs),
(436,237,o),
(387,298,o),
(296,329,cs),
(225,353,ls),
(143,381,o),
(101,414,o),
(101,481,cs),
(101,553,o),
(161,596,o),
(248,596,cs),
(296,596,o),
(339,587,o),
(395,561,c),
(409,602,l),
(356,627,o),
(303,638,o),
(246,638,cs),
(120,638,o),
(47,574,o),
(47,473,cs),
(47,390,o),
(108,340,o),
(185,315,cs),
(253,293,l),
(355,258,o),
(382,214,o),
(382,157,cs),
(382,74,o),
(317,35,o),
(228,35,cs),
(168,35,o),
(115,47,o),
(61,75,c)
);
}
);
width = 483;
},
{
layerId = "A25775AA-C32B-429E-A370-B71F346E2F61";
shapes = (
{
closed = 1;
nodes = (
(52,39,l),
(111,9,o),
(185,-12,o),
(267,-12,cs),
(446,-12,o),
(521,84,o),
(521,189,cs),
(521,284,o),
(446,344,o),
(357,375,c),
(299,394,ls),
(238,415,o),
(208,425,o),
(208,465,cs),
(208,496,o),
(237,519,o),
(295,519,cs),
(343,519,o),
(400,500,o),
(450,474,c),
(487,594,l),
(444,619,o),
(378,643,o),
(285,643,cs),
(127,643,o),
(39,559,o),
(39,449,cs),
(39,338,o),
(111,293,o),
(206,256,c),
(251,240,l),
(336,213,o),
(352,192,o),
(352,169,cs),
(352,135,o),
(329,113,o),
(259,113,cs),
(200,113,o),
(146,131,o),
(89,159,c)
);
}
);
width = 558;
},
{
layerId = "01F57539-F702-4EC8-9BFC-18F609AC6CA6";
shapes = (
{
closed = 1;
nodes = (
(51,37,l),
(111,7,o),
(184,-11,o),
(262,-11,cs),
(431,-11,o),
(509,79,o),
(509,185,cs),
(509,277,o),
(441,338,o),
(347,370,cs),
(288,389,ls),
(224,410,o),
(194,424,o),
(194,466,cs),
(194,503,o),
(227,528,o),
(288,528,cs),
(336,528,o),
(390,511,o),
(442,485,c),
(476,596,l),
(430,621,o),
(366,642,o),
(279,642,cs),
(125,642,o),
(40,561,o),
(40,451,cs),
(40,345,o),
(108,299,o),
(202,264,cs),
(251,247,l),
(337,220,o),
(355,196,o),
(355,168,cs),
(355,128,o),
(325,103,o),
(255,103,cs),
(196,103,o),
(142,120,o),
(85,148,c)
);
}
);
width = 547;
},
{
layerId = "7731FD6D-FAB0-4FA8-8A0E-241F62E50EBE";
shapes = (
{
closed = 1;
nodes = (
(47,31,l),
(112,1,o),
(179,-9,o),
(243,-9,cs),
(370,-9,o),
(463,61,o),
(463,171,cs),
(463,248,o),
(420,313,o),
(306,349,cs),
(243,369,ls),
(169,392,o),
(138,420,o),
(138,470,cs),
(138,530,o),
(186,565,o),
(261,565,cs),
(309,565,o),
(352,554,o),
(409,528,c),
(431,604,l),
(376,630,o),
(318,639,o),
(257,639,cs),
(119,639,o),
(44,569,o),
(44,459,cs),
(44,373,o),
(96,325,o),
(187,296,cs),
(250,276,ls),
(343,247,o),
(369,212,o),
(369,164,cs),
(369,99,o),
(311,65,o),
(239,65,cs),
(179,65,o),
(126,78,o),
(69,106,c)
);
}
);
width = 505;
},
{
layerId = "34019E5C-CFBD-41F4-A079-921E83AB1F7F";
shapes = (
{
closed = 1;
nodes = (
(46,32,l),
(106,3,o),
(169,-8,o),
(232,-8,cs),
(357,-8,o),
(436,58,o),
(436,163,cs),
(436,237,o),
(387,298,o),
(296,329,cs),
(225,353,ls),
(143,381,o),
(101,414,o),
(101,481,cs),
(101,553,o),
(161,596,o),
(248,596,cs),
(296,596,o),
(339,587,o),
(395,561,c),
(409,602,l),
(356,627,o),
(303,638,o),
(246,638,cs),
(120,638,o),
(47,574,o),
(47,473,cs),
(47,390,o),
(108,340,o),
(185,315,cs),
(253,293,l),
(355,258,o),
(382,214,o),
(382,157,cs),
(382,74,o),
(317,35,o),
(228,35,cs),
(168,35,o),
(115,47,o),
(61,75,c)
);
}
);
width = 483;
}
);
leftKerningGroup = _S;
rightKerningGroup = _S;
unicode = 83;
},
{
glyphname = T;
layers = (
{
layerId = "A25775AA-C32B-429E-A370-B71F346E2F61";
shapes = (
{
closed = 1;
nodes = (
(172,0,l),
(339,0,l),
(339,502,l),
(505,502,l),
(505,630,l),
(10,630,l),
(10,502,l),
(172,502,l)
);
}
);
width = 514;
},
{
layerId = "01F57539-F702-4EC8-9BFC-18F609AC6CA6";
shapes = (
{
closed = 1;
nodes = (
(178,0,l),
(330,0,l),
(330,512,l),
(502,512,l),
(502,630,l),
(10,630,l),
(10,512,l),
(178,512,l)
);
}
);
width = 511;
},
{
layerId = "7731FD6D-FAB0-4FA8-8A0E-241F62E50EBE";
shapes = (
{
closed = 1;
nodes = (
(203,0,l),
(295,0,l),
(295,552,l),
(492,552,l),
(492,630,l),
(10,630,l),
(10,552,l),
(203,552,l)
);
}
);
width = 501;
},
{
layerId = "34019E5C-CFBD-41F4-A079-921E83AB1F7F";
shapes = (
{
closed = 1;
nodes = (
(223,0,l),
(275,0,l),
(275,588,l),
(492,588,l),
(492,630,l),
(10,630,l),
(10,588,l),
(223,588,l)
);
}
);
width = 501;
}
);
leftKerningGroup = _T;
rightKerningGroup = _T;
unicode = 84;
},
{
glyphname = U;
layers = (
{
layerId = "A25775AA-C32B-429E-A370-B71F346E2F61";
shapes = (
{
closed = 1;
nodes = (
(65,262,ls),
(65,77,o),
(170,-12,o),
(341,-12,cs),
(524,-12,o),
(611,80,o),
(611,257,cs),
(611,630,l),
(444,630,l),
(444,241,ls),
(444,169,o),
(414,114,o),
(341,114,cs),
(267,114,o),
(232,169,o),
(232,253,cs),
(232,630,l),
(65,630,l)
);
}
);
width = 675;
},
{
layerId = "01F57539-F702-4EC8-9BFC-18F609AC6CA6";
shapes = (
{
closed = 1;
nodes = (
(66,259,ls),
(66,75,o),
(169,-11,o),
(337,-11,cs),
(514,-11,o),
(602,78,o),
(602,254,cs),
(602,630,l),
(450,630,l),
(450,241,ls),
(450,162,o),
(417,104,o),
(337,104,cs),
(256,104,o),
(218,159,o),
(218,253,cs),
(218,630,l),
(66,630,l)
);
}
);
width = 668;
},
{
layerId = "7731FD6D-FAB0-4FA8-8A0E-241F62E50EBE";
shapes = (
{
closed = 1;
nodes = (
(72,249,ls),
(72,69,o),
(164,-9,o),
(320,-9,cs),
(475,-9,o),
(568,72,o),
(568,244,cs),
(568,630,l),
(476,630,l),
(476,241,ls),
(476,136,o),
(428,66,o),
(320,66,cs),
(211,66,o),
(164,118,o),
(164,253,cs),
(164,630,l),
(72,630,l)
);
}
);
width = 640;
},
{
layerId = "34019E5C-CFBD-41F4-A079-921E83AB1F7F";
shapes = (
{
closed = 1;
nodes = (
(78,249,ls),
(78,69,o),
(168,-8,o),
(312,-8,cs),
(455,-8,o),
(534,72,o),
(534,244,cs),
(534,630,l),
(482,630,l),
(482,241,ls),
(482,118,o),
(434,34,o),
(312,34,cs),
(189,34,o),
(130,97,o),
(130,253,cs),
(130,630,l),
(78,630,l)
);
}
);
width = 612;
}
);
leftKerningGroup = _U;
rightKerningGroup = _U;
unicode = 85;
},
{
glyphname = V;
layers = (
{
layerId = "A25775AA-C32B-429E-A370-B71F346E2F61";
shapes = (
{
closed = 1;
nodes = (
(230,0,l),
(419,0,l),
(628,630,l),
(457,630,l),
(388,392,l),
(366,321,o),
(342,234,o),
(326,148,c),
(322,148,l),
(306,235,o),
(281,323,o),
(260,390,cs),
(189,630,l),
(12,630,l)
);
}
);
width = 637;
},
{
layerId = "01F57539-F702-4EC8-9BFC-18F609AC6CA6";
shapes = (
{
closed = 1;
nodes = (
(232,0,l),
(401,0,l),
(618,630,l),
(462,630,l),
(380,368,ls),
(359,302,o),
(335,220,o),
(318,140,c),
(315,140,l),
(298,220,o),
(273,303,o),
(253,367,cs),
(170,630,l),
(9,630,l)
);
}
);
width = 624;
},
{
layerId = "7731FD6D-FAB0-4FA8-8A0E-241F62E50EBE";
shapes = (
{
closed = 1;
nodes = (
(240,0,l),
(329,0,l),
(577,630,l),
(481,630,l),
(348,274,ls),
(330,225,o),
(308,166,o),
(288,110,c),
(286,110,l),
(268,160,o),
(243,225,o),
(225,274,cs),
(94,630,l),
(-3,630,l)
);
}
);
width = 574;
},
{
layerId = "34019E5C-CFBD-41F4-A079-921E83AB1F7F";
shapes = (
{
closed = 1;
nodes = (
(242,0,l),
(293,0,l),
(535,630,l),
(479,630,l),
(336,249,ls),
(313,187,o),
(290,124,o),
(270,62,c),
(268,62,l),
(248,124,o),
(225,187,o),
(202,249,cs),
(60,630,l),
(3,630,l)
);
}
);
width = 537;
}
);
unicode = 86;
},
{
glyphname = W;
layers = (
{
layerId = "A25775AA-C32B-429E-A370-B71F346E2F61";
shapes = (
{
closed = 1;
nodes = (
(165,0,l),
(349,0,l),
(402,253,ls),
(417,324,o),
(432,396,o),
(443,471,c),
(445,471,l),
(458,396,o),
(473,318,o),
(488,251,cs),
(543,0,l),
(730,0,l),
(875,630,l),
(707,630,l),
(665,394,ls),
(651,321,o),
(636,249,o),
(627,169,c),
(625,169,l),
(615,249,o),
(604,318,o),
(586,394,c),
(539,630,l),
(355,630,l),
(308,394,ls),
(292,319,o),
(278,248,o),
(268,169,c),
(266,169,l),
(257,248,o),
(248,314,o),
(230,394,c),
(187,630,l),
(17,630,l)
);
}
);
width = 889;
},
{
layerId = "01F57539-F702-4EC8-9BFC-18F609AC6CA6";
shapes = (
{
closed = 1;
nodes = (
(171,0,l),
(337,0,l),
(398,269,ls),
(413,336,o),
(428,406,o),
(440,478,c),
(442,478,l),
(455,406,o),
(470,335,o),
(486,268,cs),
(549,0,l),
(717,0,l),
(870,630,l),
(717,630,l),
(663,367,ls),
(650,302,o),
(635,231,o),
(626,157,c),
(624,157,l),
(614,231,o),
(602,299,o),
(586,367,cs),
(525,630,l),
(362,630,l),
(302,367,ls),
(287,300,o),
(273,230,o),
(263,157,c),
(261,157,l),
(253,230,o),
(242,296,o),
(226,367,cs),
(170,630,l),
(15,630,l)
);
}
);
width = 883;
},
{
layerId = "7731FD6D-FAB0-4FA8-8A0E-241F62E50EBE";
shapes = (
{
closed = 1;
nodes = (
(197,0,l),
(289,0,l),
(382,335,ls),
(396,386,o),
(414,448,o),
(427,508,c),
(429,508,l),
(444,447,o),
(458,403,o),
(477,335,cs),
(573,0,l),
(666,0,l),
(851,630,l),
(758,630,l),
(655,259,ls),
(646,228,o),
(630,160,o),
(621,110,c),
(619,110,l),
(611,159,o),
(595,225,o),
(585,259,cs),
(471,630,l),
(389,630,l),
(279,259,ls),
(269,225,o),
(252,157,o),
(244,110,c),
(242,110,l),
(236,157,o),
(219,226,o),
(209,259,cs),
(102,630,l),
(8,630,l)
);
}
);
width = 859;
},
{
layerId = "34019E5C-CFBD-41F4-A079-921E83AB1F7F";
shapes = (
{
closed = 1;
nodes = (
(190,0,l),
(242,0,l),
(361,422,ls),
(375,471,o),
(388,519,o),
(400,568,c),
(402,568,l),
(414,519,o),
(428,470,o),
(442,422,cs),
(564,0,l),
(617,0,l),
(794,630,l),
(741,630,l),
(640,259,ls),
(622,193,o),
(606,128,o),
(592,62,c),
(590,62,l),
(574,128,o),
(555,193,o),
(536,259,cs),
(426,630,l),
(377,630,l),
(269,259,ls),
(250,194,o),
(232,128,o),
(217,62,c),
(215,62,l),
(202,128,o),
(184,194,o),
(166,259,cs),
(62,630,l),
(8,630,l)
);
}
);
width = 802;
}
);
leftKerningGroup = _W;
rightKerningGroup = _W;
unicode = 87;
},
{
glyphname = X;
layers = (
{
layerId = "A25775AA-C32B-429E-A370-B71F346E2F61";
shapes = (
{
closed = 1;
nodes = (
(17,0,l),
(211,0,l),
(331,212,l),
(463,0,l),
(663,0,l),
(452,320,l),
(653,630,l),
(458,630,l),
(344,428,l),
(224,630,l),
(26,630,l),
(220,320,l)
);
}
);
width = 680;
},
{
layerId = "01F57539-F702-4EC8-9BFC-18F609AC6CA6";
shapes = (
{
closed = 1;
nodes = (
(15,0,l),
(190,0,l),
(319,221,l),
(457,0,l),
(638,0,l),
(426,320,l),
(628,630,l),
(452,630,l),
(329,419,l),
(203,630,l),
(24,630,l),
(219,320,l)
);
}
);
width = 653;
},
{
layerId = "7731FD6D-FAB0-4FA8-8A0E-241F62E50EBE";
shapes = (
{
closed = 1;
nodes = (
(6,0,l),
(107,0,l),
(271,256,l),
(434,0,l),
(540,0,l),
(323,320,l),
(530,630,l),
(429,630,l),
(271,384,l),
(120,630,l),
(15,630,l),
(216,320,l)
);
}
);
width = 545;
},
{
layerId = "34019E5C-CFBD-41F4-A079-921E83AB1F7F";
shapes = (
{
closed = 1;
nodes = (
(6,0,l),
(67,0,l),
(251,286,l),
(438,0,l),
(502,0,l),
(284,320,l),
(492,630,l),
(431,630,l),
(251,354,l),
(78,630,l),
(15,630,l),
(217,320,l)
);
}
);
width = 507;
}
);
unicode = 88;
},
{
glyphname = Y;
layers = (
{
layerId = "A25775AA-C32B-429E-A370-B71F346E2F61";
shapes = (
{
closed = 1;
nodes = (
(229,0,l),
(396,0,l),
(396,258,l),
(622,630,l),
(437,630,l),
(317,411,l),
(197,630,l),
(9,630,l),
(229,258,l)
);
}
);
width = 631;
},
{
layerId = "01F57539-F702-4EC8-9BFC-18F609AC6CA6";
shapes = (
{
closed = 1;
nodes = (
(227,0,l),
(379,0,l),
(379,259,l),
(602,630,l),
(435,630,l),
(307,398,l),
(180,630,l),
(9,630,l),
(227,259,l)
);
}
);
width = 609;
},
{
layerId = "7731FD6D-FAB0-4FA8-8A0E-241F62E50EBE";
shapes = (
{
closed = 1;
nodes = (
(218,0,l),
(310,0,l),
(310,264,l),
(523,630,l),
(426,630,l),
(268,348,l),
(111,630,l),
(10,630,l),
(218,264,l)
);
}
);
width = 523;
},
{
layerId = "34019E5C-CFBD-41F4-A079-921E83AB1F7F";
shapes = (
{
closed = 1;
nodes = (
(228,0,l),
(280,0,l),
(280,264,l),
(498,630,l),
(435,630,l),
(255,317,l),
(76,630,l),
(15,630,l),
(228,264,l)
);
}
);
width = 498;
}
);
leftKerningGroup = _Y;
rightKerningGroup = _Y;
unicode = 89;
},
{
glyphname = Z;
layers = (
{
layerId = "A25775AA-C32B-429E-A370-B71F346E2F61";
shapes = (
{
closed = 1;
nodes = (
(25,0,l),
(522,0,l),
(522,124,l),
(234,124,l),
(511,538,l),
(511,630,l),
(34,630,l),
(34,506,l),
(296,506,l),
(25,103,l)
);
}
);
width = 554;
},
{
layerId = "01F57539-F702-4EC8-9BFC-18F609AC6CA6";
shapes = (
{
closed = 1;
nodes = (
(25,0,l),
(515,0,l),
(515,114,l),
(214,114,l),
(505,545,l),
(505,630,l),
(35,630,l),
(35,516,l),
(310,516,l),
(25,95,l)
);
}
);
width = 545;
},
{
layerId = "7731FD6D-FAB0-4FA8-8A0E-241F62E50EBE";
shapes = (
{
closed = 1;
nodes = (
(26,0,l),
(486,0,l),
(486,74,l),
(135,74,l),
(481,575,l),
(481,630,l),
(41,630,l),
(41,556,l),
(366,556,l),
(26,65,l)
);
}
);
width = 511;
},
{
layerId = "34019E5C-CFBD-41F4-A079-921E83AB1F7F";
shapes = (
{
closed = 1;
nodes = (
(26,0,l),
(476,0,l),
(476,42,l),
(90,42,l),
(471,598,l),
(471,630,l),
(41,630,l),
(41,588,l),
(405,588,l),
(26,34,l)
);
}
);
width = 506;
}
);
leftKerningGroup = _Z;
rightKerningGroup = _Z;
unicode = 90;
},
{
glyphname = grave;
layers = (
{
layerId = "A25775AA-C32B-429E-A370-B71F346E2F61";
shapes = (
{
closed = 1;
nodes = (
(13,728,l),
(121,555,l),
(205,555,l),
(135,728,l)
);
}
);
width = 219;
},
{
layerId = "01F57539-F702-4EC8-9BFC-18F609AC6CA6";
shapes = (
{
closed = 1;
nodes = (
(15,720,l),
(121,555,l),
(203,555,l),
(133,720,l)
);
}
);
width = 217;
},
{
layerId = "7731FD6D-FAB0-4FA8-8A0E-241F62E50EBE";
shapes = (
{
closed = 1;
nodes = (
(22,690,l),
(123,556,l),
(195,556,l),
(125,690,l)
);
}
);
width = 210;
},
{
layerId = "34019E5C-CFBD-41F4-A079-921E83AB1F7F";
shapes = (
{
closed = 1;
nodes = (
(21,690,l),
(122,556,l),
(164,556,l),
(84,690,l)
);
}
);
width = 185;
}
);
unicode = 96;
},
{
glyphname = a;
layers = (
{
layerId = "A25775AA-C32B-429E-A370-B71F346E2F61";
shapes = (
{
closed = 1;
nodes = (
(29,59,o),
(81,-12,o),
(193,-12,cs),
(257,-12,o),
(306,14,o),
(330,47,c),
(334,47,l),
(348,0,l),
(471,0,l),
(471,312,ls),
(471,436,o),
(391,495,o),
(269,495,cs),
(196,495,o),
(117,472,o),
(66,441,c),
(120,335,l),
(163,360,o),
(198,373,o),
(239,373,cs),
(282,373,o),
(307,353,o),
(307,325,cs),
(307,302,l),
(267,302,ls),
(139,302,o),
(29,259,o),
(29,142,cs)
);
},
{
closed = 1;
nodes = (
(196,179,o),
(216,202,o),
(285,204,cs),
(308,205,l),
(308,144,l),
(304,127,o),
(280,104,o),
(251,104,cs),
(222,104,o),
(196,116,o),
(196,153,cs)
);
}
);
width = 518;
},
{
layerId = "01F57539-F702-4EC8-9BFC-18F609AC6CA6";
shapes = (
{
closed = 1;
nodes = (
(30,56,o),
(85,-11,o),
(193,-11,cs),
(256,-11,o),
(305,13,o),
(332,48,c),
(336,48,l),
(349,0,l),
(462,0,l),
(462,311,ls),
(462,436,o),
(384,491,o),
(265,491,cs),
(193,491,o),
(121,470,o),
(67,438,c),
(117,341,l),
(163,367,o),
(200,379,o),
(240,379,cs),
(286,379,o),
(313,359,o),
(313,323,cs),
(313,297,l),
(263,297,ls),
(135,297,o),
(30,252,o),
(30,139,cs)
);
},
{
closed = 1;
nodes = (
(182,178,o),
(206,204,o),
(281,206,cs),
(314,207,l),
(314,139,l),
(304,117,o),
(275,94,o),
(243,94,cs),
(211,94,o),
(182,107,o),
(182,148,cs)
);
}
);
width = 512;
},
{
layerId = "7731FD6D-FAB0-4FA8-8A0E-241F62E50EBE";
shapes = (
{
closed = 1;
nodes = (
(36,43,o),
(102,-9,o),
(192,-9,cs),
(251,-9,o),
(301,8,o),
(342,52,c),
(344,52,l),
(355,0,l),
(428,0,l),
(428,306,ls),
(428,436,o),
(355,477,o),
(251,477,cs),
(182,477,o),
(136,461,o),
(73,428,c),
(107,364,l),
(164,396,o),
(209,405,o),
(243,405,cs),
(301,405,o),
(339,385,o),
(339,317,cs),
(339,277,l),
(249,277,ls),
(121,277,o),
(36,225,o),
(36,126,cs)
);
},
{
closed = 1;
nodes = (
(128,176,o),
(166,212,o),
(266,215,cs),
(340,217,l),
(340,121,l),
(305,76,o),
(257,56,o),
(213,56,cs),
(168,56,o),
(128,72,o),
(128,129,cs)
);
}
);
width = 489;
},
{
layerId = "34019E5C-CFBD-41F4-A079-921E83AB1F7F";
shapes = (
{
closed = 1;
nodes = (
(36,46,o),
(101,-8,o),
(189,-8,cs),
(252,-8,o),
(306,15,o),
(344,62,c),
(346,62,l),
(357,0,l),
(393,0,l),
(393,306,ls),
(393,432,o),
(322,476,o),
(236,476,cs),
(177,476,o),
(127,462,o),
(65,429,c),
(85,392,l),
(142,424,o),
(194,434,o),
(233,434,cs),
(297,434,o),
(341,399,o),
(341,308,cs),
(341,277,l),
(241,277,ls),
(119,277,o),
(36,228,o),
(36,129,cs)
);
},
{
closed = 1;
nodes = (
(90,189,o),
(137,232,o),
(258,235,cs),
(341,236,l),
(341,112,l),
(308,57,o),
(249,34,o),
(202,34,cs),
(140,34,o),
(90,63,o),
(90,132,cs)
);
}
);
width = 459;
}
);
leftKerningGroup = _a;
rightKerningGroup = _a;
unicode = 97;
},
{
glyphname = b;
layers = (
{
layerId = "F3DD9027-1EA0-47D2-8A1E-16FEA0668E69";
name = "#instance";
shapes = (
{
closed = 1;
nodes = (
(80,0,l),
(121,0,l),
(127,44,l),
(129,44,l),
(169,8,o),
(210,-8,o),
(271,-8,cs),
(384,-8,o),
(478,86,o),
(478,235,cs),
(478,396,o),
(389,476,o),
(276,476,cs),
(212,476,o),
(160,442,o),
(132,411,c),
(132,710,l),
(80,710,l)
);
},
{
closed = 1;
nodes = (
(132,359,l),
(161,397,o),
(215,434,o),
(271,434,cs),
(361,434,o),
(424,365,o),
(424,234,cs),
(424,106,o),
(346,34,o),
(259,34,cs),
(209,34,o),
(159,56,o),
(132,87,c)
);
}
);
width = 520;
},
{
layerId = "A25775AA-C32B-429E-A370-B71F346E2F61";
shapes = (
{
closed = 1;
nodes = (
(58,0,l),
(176,0,l),
(185,44,l),
(189,44,l),
(218,9,o),
(261,-12,o),
(323,-12,cs),
(456,-12,o),
(555,84,o),
(555,239,cs),
(555,400,o),
(472,495,o),
(336,495,cs),
(287,495,o),
(247,476,o),
(220,456,c),
(220,716,l),
(58,716,l)
);
},
{
closed = 1;
nodes = (
(221,343,l),
(228,352,o),
(258,373,o),
(285,373,cs),
(349,373,o),
(388,330,o),
(388,234,cs),
(388,147,o),
(335,107,o),
(278,107,cs),
(255,107,o),
(232,116,o),
(221,130,c)
);
}
);
width = 586;
},
{
layerId = "01F57539-F702-4EC8-9BFC-18F609AC6CA6";
shapes = (
{
closed = 1;
nodes = (
(60,0,l),
(167,0,l),
(176,44,l),
(180,44,l),
(211,9,o),
(254,-11,o),
(316,-11,cs),
(446,-11,o),
(544,84,o),
(544,238,cs),
(544,397,o),
(463,491,o),
(330,491,cs),
(280,491,o),
(237,472,o),
(207,447,c),
(207,715,l),
(60,715,l)
);
},
{
closed = 1;
nodes = (
(208,342,l),
(221,358,o),
(253,379,o),
(285,379,cs),
(352,379,o),
(392,331,o),
(392,234,cs),
(392,140,o),
(336,97,o),
(275,97,cs),
(248,97,o),
(222,109,o),
(208,126,c)
);
}
);
width = 577;
},
{
layerId = "7731FD6D-FAB0-4FA8-8A0E-241F62E50EBE";
shapes = (
{
closed = 1;
nodes = (
(69,0,l),
(132,0,l),
(141,44,l),
(143,44,l),
(183,8,o),
(227,-9,o),
(288,-9,cs),
(405,-9,o),
(502,86,o),
(502,235,cs),
(502,386,o),
(426,477,o),
(307,477,cs),
(252,477,o),
(199,456,o),
(156,411,c),
(156,710,l),
(69,710,l)
);
},
{
closed = 1;
nodes = (
(156,340,l),
(193,381,o),
(233,405,o),
(284,405,cs),
(363,405,o),
(410,337,o),
(410,234,cs),
(410,112,o),
(341,59,o),
(265,59,cs),
(219,59,o),
(184,80,o),
(156,112,c)
);
}
);
width = 540;
},
{
layerId = "34019E5C-CFBD-41F4-A079-921E83AB1F7F";
shapes = (
{
closed = 1;
nodes = (
(80,0,l),
(121,0,l),
(127,44,l),
(129,44,l),
(169,8,o),
(210,-8,o),
(271,-8,cs),
(384,-8,o),
(478,86,o),
(478,235,cs),
(478,396,o),
(389,476,o),
(276,476,cs),
(212,476,o),
(160,442,o),
(132,411,c),
(132,710,l),
(80,710,l)
);
},
{
closed = 1;
nodes = (
(132,359,l),
(161,397,o),
(215,434,o),
(271,434,cs),
(361,434,o),
(424,365,o),
(424,234,cs),
(424,106,o),
(346,34,o),
(259,34,cs),
(209,34,o),
(159,56,o),
(132,87,c)
);
}
);
width = 520;
}
);
leftKerningGroup = _b;
rightKerningGroup = _b;
unicode = 98;
},
{
glyphname = c;
layers = (
{
layerId = "A25775AA-C32B-429E-A370-B71F346E2F61";
shapes = (
{
closed = 1;
nodes = (
(32,77,o),
(144,-12,o),
(295,-12,cs),
(363,-12,o),
(426,10,o),
(444,22,c),
(415,130,l),
(402,123,o),
(367,107,o),
(324,107,cs),
(264,107,o),
(197,143,o),
(197,243,cs),
(197,334,o),
(246,378,o),
(318,378,cs),
(351,378,o),
(385,365,o),
(411,349,c),
(445,459,l),
(395,487,o),
(340,495,o),
(299,495,cs),
(140,495,o),
(32,389,o),
(32,239,cs)
);
}
);
width = 475;
},
{
layerId = "01F57539-F702-4EC8-9BFC-18F609AC6CA6";
shapes = (
{
closed = 1;
nodes = (
(33,76,o),
(145,-11,o),
(293,-11,cs),
(357,-11,o),
(416,8,o),
(438,21,c),
(411,121,l),
(394,112,o),
(360,97,o),
(317,97,cs),
(253,97,o),
(183,135,o),
(183,242,cs),
(183,336,o),
(236,384,o),
(313,384,cs),
(346,384,o),
(380,372,o),
(407,356,c),
(438,457,l),
(388,484,o),
(337,491,o),
(296,491,cs),
(140,491,o),
(33,388,o),
(33,238,cs)
);
}
);
width = 468;
},
{
layerId = "7731FD6D-FAB0-4FA8-8A0E-241F62E50EBE";
shapes = (
{
closed = 1;
nodes = (
(39,72,o),
(148,-9,o),
(284,-9,cs),
(334,-9,o),
(377,0,o),
(413,18,c),
(394,84,l),
(364,69,o),
(333,59,o),
(291,59,cs),
(211,59,o),
(129,102,o),
(129,237,cs),
(129,346,o),
(195,410,o),
(292,410,cs),
(326,410,o),
(359,402,o),
(391,384,c),
(411,451,l),
(360,473,o),
(324,477,o),
(283,477,cs),
(139,477,o),
(39,384,o),
(39,234,cs)
);
}
);
width = 442;
},
{
layerId = "34019E5C-CFBD-41F4-A079-921E83AB1F7F";
shapes = (
{
closed = 1;
nodes = (
(41,72,o),
(147,-8,o),
(271,-8,cs),
(321,-8,o),
(359,1,o),
(395,19,c),
(384,55,l),
(354,40,o),
(319,30,o),
(277,30,cs),
(187,30,o),
(95,78,o),
(95,237,cs),
(95,358,o),
(170,434,o),
(279,434,cs),
(313,434,o),
(345,428,o),
(381,410,c),
(393,451,l),
(348,472,o),
(311,476,o),
(270,476,cs),
(138,476,o),
(41,384,o),
(41,234,cs)
);
}
);
width = 427;
}
);
leftKerningGroup = _c;
rightKerningGroup = _c;
unicode = 99;
},
{
glyphname = d;
layers = (
{
layerId = "F3DD9027-1EA0-47D2-8A1E-16FEA0668E69";
name = "#instance";
shapes = (
{
closed = 1;
nodes = (
(42,70,o),
(148,-8,o),
(248,-8,cs),
(315,-8,o),
(356,14,o),
(384,44,c),
(386,44,l),
(393,0,l),
(435,0,l),
(435,710,l),
(383,710,l),
(383,431,l),
(348,462,o),
(305,476,o),
(256,476,cs),
(123,476,o),
(42,382,o),
(42,234,cs)
);
},
{
closed = 1;
nodes = (
(96,382,o),
(178,434,o),
(265,434,cs),
(307,434,o),
(356,412,o),
(383,378,c),
(383,90,l),
(362,58,o),
(320,34,o),
(263,34,cs),
(178,34,o),
(96,89,o),
(96,237,cs)
);
}
);
width = 503;
},
{
layerId = "A25775AA-C32B-429E-A370-B71F346E2F61";
shapes = (
{
closed = 1;
nodes = (
(32,90,o),
(122,-12,o),
(254,-12,cs),
(331,-12,o),
(379,27,o),
(393,52,c),
(398,52,l),
(414,0,l),
(523,0,l),
(523,716,l),
(360,716,l),
(360,465,l),
(344,480,o),
(302,495,o),
(259,495,cs),
(115,495,o),
(32,395,o),
(32,242,cs)
);
},
{
closed = 1;
nodes = (
(196,342,o),
(243,378,o),
(300,378,cs),
(329,378,o),
(353,359,o),
(360,348,c),
(360,149,l),
(355,131,o),
(332,107,o),
(296,107,cs),
(234,107,o),
(196,153,o),
(196,245,cs)
);
}
);
width = 581;
},
{
layerId = "01F57539-F702-4EC8-9BFC-18F609AC6CA6";
shapes = (
{
closed = 1;
nodes = (
(33,86,o),
(125,-11,o),
(251,-11,cs),
(325,-11,o),
(371,23,o),
(390,52,c),
(395,52,l),
(410,0,l),
(512,0,l),
(512,715,l),
(364,715,l),
(364,458,l),
(344,476,o),
(301,491,o),
(257,491,cs),
(115,491,o),
(33,392,o),
(33,240,cs)
);
},
{
closed = 1;
nodes = (
(182,346,o),
(234,384,o),
(294,384,cs),
(325,384,o),
(352,366,o),
(364,350,c),
(364,144,l),
(354,121,o),
(327,97,o),
(288,97,cs),
(226,97,o),
(182,144,o),
(182,243,cs)
);
}
);
width = 572;
},
{
layerId = "7731FD6D-FAB0-4FA8-8A0E-241F62E50EBE";
shapes = (
{
closed = 1;
nodes = (
(39,70,o),
(138,-9,o),
(238,-9,cs),
(302,-9,o),
(339,9,o),
(380,52,c),
(383,52,l),
(394,0,l),
(468,0,l),
(468,710,l),
(380,710,l),
(380,431,l),
(345,462,o),
(299,477,o),
(250,477,cs),
(117,477,o),
(39,382,o),
(39,234,cs)
);
},
{
closed = 1;
nodes = (
(128,361,o),
(197,410,o),
(269,410,cs),
(311,410,o),
(348,393,o),
(380,357,c),
(380,124,l),
(349,81,o),
(308,59,o),
(258,59,cs),
(193,59,o),
(128,110,o),
(128,237,cs)
);
}
);
width = 536;
},
{
layerId = "34019E5C-CFBD-41F4-A079-921E83AB1F7F";
shapes = (
{
closed = 1;
nodes = (
(42,70,o),
(148,-8,o),
(248,-8,cs),
(315,-8,o),
(356,14,o),
(384,44,c),
(386,44,l),
(393,0,l),
(435,0,l),
(435,710,l),
(383,710,l),
(383,431,l),
(348,462,o),
(305,476,o),
(256,476,cs),
(123,476,o),
(42,382,o),
(42,234,cs)
);
},
{
closed = 1;
nodes = (
(96,382,o),
(178,434,o),
(265,434,cs),
(307,434,o),
(356,412,o),
(383,378,c),
(383,90,l),
(362,58,o),
(320,34,o),
(263,34,cs),
(178,34,o),
(96,89,o),
(96,237,cs)
);
}
);
width = 503;
}
);
leftKerningGroup = _d;
rightKerningGroup = _d;
unicode = 100;
},
{
glyphname = e;
layers = (
{
layerId = "A25775AA-C32B-429E-A370-B71F346E2F61";
shapes = (
{
closed = 1;
nodes = (
(30,64,o),
(155,-12,o),
(302,-12,cs),
(388,-12,o),
(441,6,o),
(477,23,c),
(447,134,l),
(424,121,o),
(380,107,o),
(325,107,cs),
(251,107,o),
(194,128,o),
(194,186,cs),
(194,190,l),
(497,190,l),
(497,257,ls),
(497,412,o),
(410,495,o),
(275,495,cs),
(132,495,o),
(30,389,o),
(30,234,cs)
);
},
{
closed = 1;
nodes = (
(197,299,l),
(200,350,o),
(231,381,o),
(270,381,cs),
(314,381,o),
(331,340,o),
(331,301,c)
);
}
);
width = 529;
},
{
layerId = "01F57539-F702-4EC8-9BFC-18F609AC6CA6";
shapes = (
{
closed = 1;
nodes = (
(32,64,o),
(154,-11,o),
(299,-11,cs),
(379,-11,o),
(433,5,o),
(469,22,c),
(442,124,l),
(414,110,o),
(372,97,o),
(318,97,cs),
(239,97,o),
(181,126,o),
(181,193,cs),
(181,197,l),
(491,197,l),
(491,260,ls),
(491,408,o),
(406,491,o),
(274,491,cs),
(131,491,o),
(32,387,o),
(32,234,cs)
);
},
{
closed = 1;
nodes = (
(184,296,l),
(189,352,o),
(223,387,o),
(269,387,cs),
(320,387,o),
(340,343,o),
(340,298,c)
);
}
);
width = 524;
},
{
layerId = "7731FD6D-FAB0-4FA8-8A0E-241F62E50EBE";
shapes = (
{
closed = 1;
nodes = (
(39,64,o),
(151,-9,o),
(286,-9,cs),
(345,-9,o),
(400,3,o),
(439,20,c),
(421,85,l),
(375,66,o),
(339,59,o),
(289,59,cs),
(192,59,o),
(131,117,o),
(131,221,cs),
(131,225,l),
(468,225,l),
(468,271,ls),
(468,394,o),
(390,477,o),
(270,477,cs),
(129,477,o),
(39,381,o),
(39,234,cs)
);
},
{
closed = 1;
nodes = (
(133,286,l),
(144,361,o),
(192,413,o),
(265,413,cs),
(344,413,o),
(377,357,o),
(377,288,c)
);
}
);
width = 504;
},
{
layerId = "34019E5C-CFBD-41F4-A079-921E83AB1F7F";
shapes = (
{
closed = 1;
nodes = (
(42,64,o),
(145,-8,o),
(270,-8,cs),
(321,-8,o),
(373,1,o),
(407,16,c),
(395,56,l),
(356,41,o),
(315,34,o),
(273,34,cs),
(164,34,o),
(96,105,o),
(96,221,cs),
(96,235,l),
(431,235,l),
(431,271,ls),
(431,394,o),
(359,476,o),
(251,476,cs),
(127,476,o),
(42,381,o),
(42,234,cs)
);
},
{
closed = 1;
nodes = (
(98,277,l),
(108,376,o),
(167,434,o),
(248,434,cs),
(341,434,o),
(377,355,o),
(377,277,c)
);
}
);
width = 473;
}
);
leftKerningGroup = _e;
rightKerningGroup = _e;
unicode = 101;
},
{
glyphname = f;
layers = (
{
layerId = "F3DD9027-1EA0-47D2-8A1E-16FEA0668E69";
name = "#instance";
shapes = (
{
closed = 1;
nodes = (
(101,0,l),
(153,0,l),
(153,430,l),
(314,430,l),
(314,470,l),
(153,470,l),
(153,550,ls),
(153,641,o),
(187,673,o),
(254,673,cs),
(279,673,o),
(314,664,o),
(343,649,c),
(354,687,l),
(323,704,o),
(278,715,o),
(241,715,cs),
(154,715,o),
(101,663,o),
(101,560,cs),
(101,470,l),
(15,470,l),
(15,430,l),
(101,430,l)
);
}
);
width = 314;
},
{
layerId = "A25775AA-C32B-429E-A370-B71F346E2F61";
shapes = (
{
closed = 1;
nodes = (
(89,0,l),
(251,0,l),
(251,367,l),
(357,367,l),
(357,483,l),
(251,483,l),
(251,523,ls),
(251,574,o),
(271,593,o),
(308,593,cs),
(334,593,o),
(355,585,o),
(375,574,c),
(407,677,l),
(370,699,o),
(317,715,o),
(261,715,cs),
(162,715,o),
(89,659,o),
(89,551,cs),
(89,483,l),
(14,483,l),
(14,367,l),
(89,367,l)
);
}
);
width = 395;
},
{
layerId = "01F57539-F702-4EC8-9BFC-18F609AC6CA6";
shapes = (
{
closed = 1;
nodes = (
(89,0,l),
(236,0,l),
(236,374,l),
(349,374,l),
(349,480,l),
(236,480,l),
(236,523,ls),
(236,581,o),
(257,603,o),
(299,603,cs),
(325,603,o),
(347,595,o),
(368,584,c),
(397,679,l),
(361,700,o),
(310,715,o),
(258,715,cs),
(158,715,o),
(89,658,o),
(89,551,cs),
(89,480,l),
(15,480,l),
(15,374,l),
(89,374,l)
);
}
);
width = 382;
},
{
layerId = "7731FD6D-FAB0-4FA8-8A0E-241F62E50EBE";
shapes = (
{
closed = 1;
nodes = (
(88,0,l),
(175,0,l),
(175,404,l),
(318,404,l),
(318,470,l),
(175,470,l),
(175,524,ls),
(175,610,o),
(201,643,o),
(264,643,cs),
(290,643,o),
(314,636,o),
(340,626,c),
(358,687,l),
(326,703,o),
(282,715,o),
(245,715,cs),
(144,715,o),
(88,656,o),
(88,553,cs),
(88,470,l),
(19,470,l),
(19,404,l),
(88,404,l)
);
}
);
width = 332;
},
{
layerId = "34019E5C-CFBD-41F4-A079-921E83AB1F7F";
shapes = (
{
closed = 1;
nodes = (
(101,0,l),
(153,0,l),
(153,430,l),
(314,430,l),
(314,470,l),
(153,470,l),
(153,550,ls),
(153,641,o),
(187,673,o),
(254,673,cs),
(279,673,o),
(314,664,o),
(343,649,c),
(354,687,l),
(323,704,o),
(278,715,o),
(241,715,cs),
(154,715,o),
(101,663,o),
(101,560,cs),
(101,470,l),
(15,470,l),
(15,430,l),
(101,430,l)
);
}
);
width = 314;
}
);
unicode = 102;
},
{
glyphname = g;
layers = (
{
layerId = "A25775AA-C32B-429E-A370-B71F346E2F61";
shapes = (
{
closed = 1;
nodes = (
(22,-186,o),
(115,-243,o),
(266,-243,cs),
(430,-243,o),
(538,-164,o),
(538,-60,cs),
(538,54,o),
(461,94,o),
(356,94,cs),
(261,94,ls),
(222,94,o),
(215,107,o),
(215,120,cs),
(215,135,o),
(225,141,o),
(228,145,c),
(240,142,o),
(253,141,o),
(266,141,cs),
(402,141,o),
(480,215,o),
(480,314,cs),
(480,342,o),
(469,375,o),
(458,394,c),
(508,385,l),
(557,385,l),
(557,483,l),
(353,483,l),
(328,489,o),
(291,495,o),
(269,495,cs),
(144,495,o),
(51,420,o),
(51,315,cs),
(51,244,o),
(103,200,o),
(134,181,c),
(93,160,o),
(61,126,o),
(61,80,cs),
(61,41,o),
(90,12,o),
(103,3,c),
(51,-16,o),
(22,-50,o),
(22,-91,cs)
);
},
{
closed = 1;
nodes = (
(168,-47,o),
(181,-33,o),
(193,-26,c),
(315,-26,ls),
(364,-26,o),
(377,-39,o),
(377,-64,cs),
(377,-96,o),
(340,-123,o),
(270,-123,cs),
(189,-123,o),
(168,-95,o),
(168,-68,cs)
);
},
{
closed = 1;
nodes = (
(210,360,o),
(234,383,o),
(266,383,cs),
(297,383,o),
(322,360,o),
(322,318,cs),
(322,276,o),
(300,253,o),
(266,253,cs),
(235,253,o),
(210,276,o),
(210,317,cs)
);
}
);
width = 585;
},
{
layerId = "01F57539-F702-4EC8-9BFC-18F609AC6CA6";
shapes = (
{
closed = 1;
nodes = (
(24,-185,o),
(116,-240,o),
(264,-240,cs),
(425,-240,o),
(530,-164,o),
(530,-60,cs),
(530,47,o),
(457,89,o),
(352,89,cs),
(251,89,ls),
(213,89,o),
(203,101,o),
(203,118,cs),
(203,133,o),
(213,142,o),
(222,147,c),
(235,144,o),
(249,143,o),
(263,143,cs),
(394,143,o),
(472,214,o),
(472,314,cs),
(472,344,o),
(460,378,o),
(446,398,c),
(502,389,l),
(548,389,l),
(548,480,l),
(344,480,l),
(320,486,o),
(287,491,o),
(265,491,cs),
(143,491,o),
(53,420,o),
(53,315,cs),
(53,244,o),
(101,199,o),
(136,179,c),
(95,159,o),
(64,126,o),
(64,81,cs),
(64,43,o),
(90,16,o),
(106,5,c),
(54,-13,o),
(24,-47,o),
(24,-90,cs)
);
},
{
closed = 1;
nodes = (
(158,-45,o),
(172,-29,o),
(188,-21,c),
(314,-21,ls),
(365,-21,o),
(384,-34,o),
(384,-65,cs),
(384,-99,o),
(346,-130,o),
(268,-130,cs),
(184,-130,o),
(158,-102,o),
(158,-69,cs)
);
},
{
closed = 1;
nodes = (
(198,364,o),
(225,389,o),
(263,389,cs),
(300,389,o),
(328,364,o),
(328,317,cs),
(328,270,o),
(302,245,o),
(263,245,cs),
(226,245,o),
(198,270,o),
(198,317,cs)
);
}
);
width = 576;
},
{
layerId = "7731FD6D-FAB0-4FA8-8A0E-241F62E50EBE";
shapes = (
{
closed = 1;
nodes = (
(32,-181,o),
(119,-230,o),
(255,-230,cs),
(404,-230,o),
(498,-166,o),
(498,-62,cs),
(498,19,o),
(440,70,o),
(337,70,cs),
(213,70,ls),
(179,70,o),
(156,79,o),
(156,109,cs),
(156,127,o),
(167,145,o),
(197,156,c),
(214,153,o),
(232,152,o),
(251,152,cs),
(361,152,o),
(440,210,o),
(440,315,cs),
(440,353,o),
(425,389,o),
(400,416,c),
(480,405,l),
(511,405,l),
(511,470,l),
(308,470,l),
(290,474,o),
(271,477,o),
(251,477,cs),
(141,477,o),
(61,419,o),
(61,314,cs),
(61,243,o),
(93,197,o),
(146,173,c),
(104,156,o),
(77,126,o),
(77,85,cs),
(77,50,o),
(90,32,o),
(117,14,c),
(67,-3,o),
(32,-37,o),
(32,-86,cs)
);
},
{
closed = 1;
nodes = (
(117,-38,o),
(135,-15,o),
(168,0,c),
(312,0,ls),
(369,0,o),
(412,-13,o),
(412,-69,cs),
(412,-113,o),
(370,-160,o),
(259,-160,cs),
(164,-160,o),
(117,-131,o),
(117,-72,cs)
);
},
{
closed = 1;
nodes = (
(151,381,o),
(191,415,o),
(251,415,cs),
(311,415,o),
(351,382,o),
(351,312,cs),
(351,247,o),
(311,215,o),
(251,215,cs),
(192,215,o),
(151,247,o),
(151,316,cs)
);
}
);
width = 541;
},
{
layerId = "34019E5C-CFBD-41F4-A079-921E83AB1F7F";
shapes = (
{
closed = 1;
nodes = (
(28,-175,o),
(112,-230,o),
(242,-230,cs),
(385,-230,o),
(474,-169,o),
(474,-76,cs),
(474,-7,o),
(419,42,o),
(316,42,cs),
(194,42,ls),
(154,42,o),
(125,57,o),
(125,91,cs),
(125,118,o),
(147,145,o),
(179,157,c),
(199,153,o),
(216,152,o),
(235,152,cs),
(339,152,o),
(416,210,o),
(416,315,cs),
(416,365,o),
(388,413,o),
(347,436,c),
(434,430,l),
(492,430,l),
(492,470,l),
(297,470,l),
(280,473,o),
(263,476,o),
(239,476,cs),
(129,476,o),
(52,419,o),
(52,314,cs),
(52,243,o),
(93,193,o),
(136,173,c),
(103,157,o),
(73,129,o),
(73,85,cs),
(73,53,o),
(91,27,o),
(111,16,c),
(58,-3,o),
(28,-37,o),
(28,-86,cs)
);
},
{
closed = 1;
nodes = (
(83,-43,o),
(110,-13,o),
(149,0,c),
(291,0,ls),
(366,0,o),
(420,-15,o),
(420,-79,cs),
(420,-133,o),
(368,-188,o),
(243,-188,cs),
(149,-188,o),
(83,-151,o),
(83,-80,cs)
);
},
{
closed = 1;
nodes = (
(106,395,o),
(165,434,o),
(239,434,cs),
(312,434,o),
(362,390,o),
(362,312,cs),
(362,233,o),
(308,194,o),
(235,194,cs),
(162,194,o),
(106,233,o),
(106,316,cs)
);
}
);
width = 516;
}
);
leftKerningGroup = _g;
rightKerningGroup = _g;
unicode = 103;
},
{
glyphname = h;
layers = (
{
layerId = "A25775AA-C32B-429E-A370-B71F346E2F61";
shapes = (
{
closed = 1;
nodes = (
(58,0,l),
(221,0,l),
(221,339,l),
(240,359,o),
(273,373,o),
(302,373,cs),
(346,373,o),
(372,349,o),
(372,288,cs),
(372,0,l),
(535,0,l),
(535,313,ls),
(535,420,o),
(480,495,o),
(359,495,cs),
(305,495,o),
(255,476,o),
(221,450,c),
(221,716,l),
(58,716,l)
);
}
);
width = 591;
},
{
layerId = "01F57539-F702-4EC8-9BFC-18F609AC6CA6";
shapes = (
{
closed = 1;
nodes = (
(60,0,l),
(208,0,l),
(208,339,l),
(232,363,o),
(268,379,o),
(300,379,cs),
(347,379,o),
(374,354,o),
(374,291,cs),
(374,0,l),
(522,0,l),
(522,315,ls),
(522,418,o),
(468,491,o),
(351,491,cs),
(295,491,o),
(244,470,o),
(208,442,c),
(208,715,l),
(60,715,l)
);
}
);
width = 581;
},
{
layerId = "7731FD6D-FAB0-4FA8-8A0E-241F62E50EBE";
shapes = (
{
closed = 1;
nodes = (
(69,0,l),
(157,0,l),
(157,340,l),
(202,381,o),
(249,405,o),
(294,405,cs),
(353,405,o),
(383,374,o),
(383,302,cs),
(383,0,l),
(471,0,l),
(471,324,ls),
(471,411,o),
(422,477,o),
(318,477,cs),
(254,477,o),
(201,448,o),
(157,410,c),
(157,710,l),
(69,710,l)
);
}
);
width = 540;
},
{
layerId = "34019E5C-CFBD-41F4-A079-921E83AB1F7F";
shapes = (
{
closed = 1;
nodes = (
(80,0,l),
(132,0,l),
(132,362,l),
(179,406,o),
(233,434,o),
(281,434,cs),
(349,434,o),
(394,399,o),
(394,308,cs),
(394,0,l),
(446,0,l),
(446,324,ls),
(446,411,o),
(397,476,o),
(293,476,cs),
(229,476,o),
(176,447,o),
(132,407,c),
(132,710,l),
(80,710,l)
);
}
);
width = 522;
}
);
leftKerningGroup = _h;
rightKerningGroup = _h;
unicode = 104;
},
{
glyphname = i;
layers = (
{
layerId = "F3DD9027-1EA0-47D2-8A1E-16FEA0668E69";
name = "#instance";
shapes = (
{
closed = 1;
nodes = (
(80,0,l),
(132,0,l),
(132,470,l),
(80,470,l)
);
},
{
closed = 1;
nodes = (
(68,606,o),
(86,591,o),
(107,591,cs),
(127,591,o),
(144,605,o),
(144,631,cs),
(144,659,o),
(126,673,o),
(106,673,cs),
(85,673,o),
(68,657,o),
(68,631,cs)
);
}
);
width = 212;
},
{
layerId = "A25775AA-C32B-429E-A370-B71F346E2F61";
shapes = (
{
closed = 1;
nodes = (
(66,0,l),
(229,0,l),
(229,483,l),
(66,483,l)
);
},
{
closed = 1;
nodes = (
(64,605,o),
(93,570,o),
(147,570,cs),
(203,570,o),
(231,604,o),
(231,648,cs),
(231,691,o),
(201,725,o),
(147,725,cs),
(94,725,o),
(64,690,o),
(64,648,cs)
);
}
);
width = 296;
},
{
layerId = "01F57539-F702-4EC8-9BFC-18F609AC6CA6";
shapes = (
{
closed = 1;
nodes = (
(69,0,l),
(217,0,l),
(217,480,l),
(69,480,l)
);
},
{
closed = 1;
nodes = (
(65,607,o),
(93,574,o),
(143,574,cs),
(193,574,o),
(221,606,o),
(221,647,cs),
(221,688,o),
(192,720,o),
(143,720,cs),
(94,720,o),
(65,687,o),
(65,647,cs)
);
}
);
width = 286;
},
{
layerId = "7731FD6D-FAB0-4FA8-8A0E-241F62E50EBE";
shapes = (
{
closed = 1;
nodes = (
(82,0,l),
(170,0,l),
(170,470,l),
(82,470,l)
);
},
{
closed = 1;
nodes = (
(70,614,o),
(95,591,o),
(126,591,cs),
(155,591,o),
(182,614,o),
(182,645,cs),
(182,676,o),
(155,700,o),
(126,700,cs),
(95,700,o),
(70,676,o),
(70,645,cs)
);
}
);
width = 246;
},
{
layerId = "34019E5C-CFBD-41F4-A079-921E83AB1F7F";
shapes = (
{
closed = 1;
nodes = (
(80,0,l),
(132,0,l),
(132,470,l),
(80,470,l)
);
},
{
closed = 1;
nodes = (
(68,606,o),
(86,591,o),
(107,591,cs),
(127,591,o),
(144,605,o),
(144,631,cs),
(144,659,o),
(126,673,o),
(106,673,cs),
(85,673,o),
(68,657,o),
(68,631,cs)
);
}
);
width = 212;
}
);
leftKerningGroup = _i;
rightKerningGroup = _i;
unicode = 105;
},
{
glyphname = j;
layers = (
{
layerId = "F3DD9027-1EA0-47D2-8A1E-16FEA0668E69";
name = "#instance";
shapes = (
{
closed = 1;
nodes = (
(-19,-230,l),
(101,-175,o),
(135,-80,o),
(135,73,cs),
(135,470,l),
(83,470,l),
(83,65,ls),
(83,-97,o),
(49,-146,o),
(-42,-193,c)
);
},
{
closed = 1;
nodes = (
(69,606,o),
(87,591,o),
(108,591,cs),
(128,591,o),
(145,605,o),
(145,631,cs),
(145,659,o),
(127,673,o),
(107,673,cs),
(86,673,o),
(69,657,o),
(69,631,cs)
);
}
);
width = 213;
},
{
layerId = "A25775AA-C32B-429E-A370-B71F346E2F61";
shapes = (
{
closed = 1;
nodes = (
(20,-265,l),
(176,-201,o),
(225,-84,o),
(225,65,cs),
(225,483,l),
(62,483,l),
(62,60,ls),
(62,-83,o),
(26,-121,o),
(-47,-158,c)
);
},
{
closed = 1;
nodes = (
(61,605,o),
(90,570,o),
(145,570,cs),
(200,570,o),
(228,604,o),
(228,648,cs),
(228,691,o),
(199,725,o),
(145,725,cs),
(91,725,o),
(61,690,o),
(61,648,cs)
);
}
);
width = 291;
},
{
layerId = "01F57539-F702-4EC8-9BFC-18F609AC6CA6";
shapes = (
{
closed = 1;
nodes = (
(17,-260,l),
(168,-197,o),
(213,-83,o),
(213,66,cs),
(213,480,l),
(65,480,l),
(65,60,ls),
(65,-85,o),
(30,-123,o),
(-45,-161,c)
);
},
{
closed = 1;
nodes = (
(62,607,o),
(90,574,o),
(140,574,cs),
(190,574,o),
(218,606,o),
(218,647,cs),
(218,688,o),
(189,720,o),
(140,720,cs),
(91,720,o),
(62,687,o),
(62,647,cs)
);
}
);
width = 282;
},
{
layerId = "7731FD6D-FAB0-4FA8-8A0E-241F62E50EBE";
shapes = (
{
closed = 1;
nodes = (
(4,-240,l),
(138,-181,o),
(167,-81,o),
(167,71,cs),
(167,470,l),
(79,470,l),
(79,60,ls),
(79,-94,o),
(47,-131,o),
(-37,-174,c)
);
},
{
closed = 1;
nodes = (
(66,614,o),
(91,591,o),
(122,591,cs),
(151,591,o),
(178,614,o),
(178,645,cs),
(178,676,o),
(151,700,o),
(122,700,cs),
(91,700,o),
(66,676,o),
(66,645,cs)
);
}
);
width = 246;
},
{
layerId = "34019E5C-CFBD-41F4-A079-921E83AB1F7F";
shapes = (
{
closed = 1;
nodes = (
(-19,-230,l),
(101,-175,o),
(135,-80,o),
(135,73,cs),
(135,470,l),
(83,470,l),
(83,65,ls),
(83,-97,o),
(49,-146,o),
(-42,-193,c)
);
},
{
closed = 1;
nodes = (
(69,606,o),
(87,591,o),
(108,591,cs),
(128,591,o),
(145,605,o),
(145,631,cs),
(145,659,o),
(127,673,o),
(107,673,cs),
(86,673,o),
(69,657,o),
(69,631,cs)
);
}
);
width = 213;
}
);
leftKerningGroup = _j;
rightKerningGroup = _j;
unicode = 106;
},
{
glyphname = k;
layers = (
{
layerId = "F3DD9027-1EA0-47D2-8A1E-16FEA0668E69";
name = "#instance";
shapes = (
{
closed = 1;
nodes = (
(80,0,l),
(132,0,l),
(132,172,l),
(201,241,l),
(380,0,l),
(442,0,l),
(235,272,l),
(433,470,l),
(368,470,l),
(132,232,l),
(132,710,l),
(80,710,l)
);
}
);
width = 447;
},
{
layerId = "A25775AA-C32B-429E-A370-B71F346E2F61";
shapes = (
{
closed = 1;
nodes = (
(58,0,l),
(220,0,l),
(220,152,l),
(253,187,l),
(373,0,l),
(564,0,l),
(379,280,l),
(557,483,l),
(360,483,l),
(220,306,l),
(220,716,l),
(58,716,l)
);
}
);
width = 568;
},
{
layerId = "01F57539-F702-4EC8-9BFC-18F609AC6CA6";
shapes = (
{
closed = 1;
nodes = (
(60,0,l),
(207,0,l),
(207,156,l),
(243,193,l),
(370,0,l),
(544,0,l),
(355,278,l),
(536,480,l),
(357,480,l),
(207,298,l),
(207,715,l),
(60,715,l)
);
}
);
width = 548;
},
{
layerId = "7731FD6D-FAB0-4FA8-8A0E-241F62E50EBE";
shapes = (
{
closed = 1;
nodes = (
(69,0,l),
(156,0,l),
(156,172,l),
(203,219,l),
(359,0,l),
(463,0,l),
(261,272,l),
(454,470,l),
(345,470,l),
(156,268,l),
(156,710,l),
(69,710,l)
);
}
);
width = 467;
},
{
layerId = "34019E5C-CFBD-41F4-A079-921E83AB1F7F";
shapes = (
{
closed = 1;
nodes = (
(80,0,l),
(132,0,l),
(132,172,l),
(201,241,l),
(380,0,l),
(442,0,l),
(235,272,l),
(433,470,l),
(368,470,l),
(132,232,l),
(132,710,l),
(80,710,l)
);
}
);
width = 447;
}
);
leftKerningGroup = _k;
rightKerningGroup = _k;
unicode = 107;
},
{
glyphname = l;
layers = (
{
layerId = "F3DD9027-1EA0-47D2-8A1E-16FEA0668E69";
name = "#instance";
shapes = (
{
closed = 1;
nodes = (
(80,0,l),
(132,0,l),
(132,710,l),
(80,710,l)
);
}
);
width = 212;
},
{
layerId = "A25775AA-C32B-429E-A370-B71F346E2F61";
shapes = (
{
closed = 1;
nodes = (
(58,0,l),
(219,0,l),
(219,716,l),
(58,716,l)
);
}
);
width = 279;
},
{
layerId = "01F57539-F702-4EC8-9BFC-18F609AC6CA6";
shapes = (
{
closed = 1;
nodes = (
(61,0,l),
(207,0,l),
(207,715,l),
(61,715,l)
);
}
);
width = 269;
},
{
layerId = "7731FD6D-FAB0-4FA8-8A0E-241F62E50EBE";
shapes = (
{
closed = 1;
nodes = (
(72,0,l),
(158,0,l),
(158,710,l),
(72,710,l)
);
}
);
width = 230;
},
{
layerId = "34019E5C-CFBD-41F4-A079-921E83AB1F7F";
shapes = (
{
closed = 1;
nodes = (
(80,0,l),
(132,0,l),
(132,710,l),
(80,710,l)
);
}
);
width = 212;
}
);
leftKerningGroup = _l;
rightKerningGroup = _l;
unicode = 108;
},
{
glyphname = m;
layers = (
{
layerId = "A25775AA-C32B-429E-A370-B71F346E2F61";
shapes = (
{
closed = 1;
nodes = (
(56,0,l),
(219,0,l),
(219,325,l),
(238,352,o),
(275,373,o),
(303,373,cs),
(333,373,o),
(356,349,o),
(356,314,cs),
(356,0,l),
(519,0,l),
(519,298,ls),
(519,311,o),
(519,316,o),
(519,329,c),
(538,357,o),
(575,373,o),
(603,373,cs),
(633,373,o),
(656,349,o),
(656,314,cs),
(656,0,l),
(819,0,l),
(819,329,ls),
(819,438,o),
(757,495,o),
(654,495,cs),
(594,495,o),
(540,465,o),
(497,423,c),
(471,471,o),
(421,495,o),
(354,495,cs),
(294,495,o),
(243,468,o),
(200,424,c),
(182,483,l),
(56,483,l)
);
}
);
width = 874;
},
{
layerId = "01F57539-F702-4EC8-9BFC-18F609AC6CA6";
shapes = (
{
closed = 1;
nodes = (
(58,0,l),
(206,0,l),
(206,328,l),
(229,358,o),
(267,379,o),
(299,379,cs),
(335,379,o),
(358,353,o),
(358,313,cs),
(358,0,l),
(506,0,l),
(506,303,ls),
(506,315,o),
(506,320,o),
(506,332,c),
(529,362,o),
(567,379,o),
(599,379,cs),
(635,379,o),
(658,353,o),
(658,313,cs),
(658,0,l),
(806,0,l),
(806,328,ls),
(806,434,o),
(747,491,o),
(645,491,cs),
(584,491,o),
(529,462,o),
(486,418,c),
(461,466,o),
(412,491,o),
(345,491,cs),
(283,491,o),
(233,464,o),
(190,420,c),
(173,480,l),
(58,480,l)
);
}
);
width = 864;
},
{
layerId = "7731FD6D-FAB0-4FA8-8A0E-241F62E50EBE";
shapes = (
{
closed = 1;
nodes = (
(68,0,l),
(156,0,l),
(156,341,l),
(194,383,o),
(237,405,o),
(282,405,cs),
(343,405,o),
(368,370,o),
(368,308,cs),
(368,0,l),
(456,0,l),
(456,324,ls),
(456,330,o),
(456,338,o),
(455,344,c),
(494,384,o),
(537,405,o),
(582,405,cs),
(643,405,o),
(668,370,o),
(668,308,cs),
(668,0,l),
(756,0,l),
(756,324,ls),
(756,420,o),
(707,477,o),
(611,477,cs),
(543,477,o),
(487,449,o),
(441,400,c),
(420,448,o),
(377,477,o),
(311,477,cs),
(241,477,o),
(193,449,o),
(149,405,c),
(136,470,l),
(68,470,l)
);
}
);
width = 824;
},
{
layerId = "34019E5C-CFBD-41F4-A079-921E83AB1F7F";
shapes = (
{
closed = 1;
nodes = (
(76,0,l),
(128,0,l),
(128,361,l),
(164,406,o),
(214,434,o),
(263,434,cs),
(350,434,o),
(376,388,o),
(376,308,cs),
(376,0,l),
(428,0,l),
(428,324,ls),
(428,336,o),
(428,352,o),
(427,364,c),
(460,406,o),
(514,434,o),
(559,434,cs),
(647,434,o),
(676,388,o),
(676,308,cs),
(676,0,l),
(728,0,l),
(728,324,ls),
(728,420,o),
(679,477,o),
(583,477,cs),
(515,477,o),
(459,449,o),
(413,400,c),
(392,448,o),
(349,477,o),
(283,477,cs),
(213,477,o),
(165,449,o),
(121,405,c),
(113,470,l),
(76,470,l)
);
}
);
width = 804;
}
);
unicode = 109;
},
{
glyphname = n;
layers = (
{
layerId = "F3DD9027-1EA0-47D2-8A1E-16FEA0668E69";
name = "#instance";
shapes = (
{
closed = 1;
nodes = (
(76,0,l),
(128,0,l),
(128,362,l),
(166,406,o),
(220,434,o),
(270,434,cs),
(359,434,o),
(386,381,o),
(386,311,cs),
(386,0,l),
(438,0,l),
(438,324,ls),
(438,420,o),
(381,476,o),
(285,476,cs),
(219,476,o),
(167,448,o),
(122,405,c),
(114,470,l),
(76,470,l)
);
}
);
width = 514;
},
{
layerId = "A25775AA-C32B-429E-A370-B71F346E2F61";
shapes = (
{
closed = 1;
nodes = (
(56,0,l),
(219,0,l),
(219,325,l),
(241,352,o),
(278,373,o),
(307,373,cs),
(346,373,o),
(366,344,o),
(366,301,cs),
(366,0,l),
(529,0,l),
(529,317,ls),
(529,434,o),
(469,495,o),
(358,495,cs),
(297,495,o),
(242,467,o),
(200,424,c),
(182,483,l),
(56,483,l)
);
}
);
width = 584;
},
{
layerId = "01F57539-F702-4EC8-9BFC-18F609AC6CA6";
shapes = (
{
closed = 1;
nodes = (
(58,0,l),
(206,0,l),
(206,328,l),
(232,358,o),
(271,379,o),
(303,379,cs),
(346,379,o),
(368,349,o),
(368,303,cs),
(368,0,l),
(516,0,l),
(516,318,ls),
(516,431,o),
(457,491,o),
(349,491,cs),
(287,491,o),
(233,464,o),
(190,420,c),
(173,480,l),
(58,480,l)
);
}
);
width = 574;
},
{
layerId = "7731FD6D-FAB0-4FA8-8A0E-241F62E50EBE";
shapes = (
{
closed = 1;
nodes = (
(68,0,l),
(156,0,l),
(156,342,l),
(196,383,o),
(242,405,o),
(287,405,cs),
(348,405,o),
(378,368,o),
(378,311,cs),
(378,0,l),
(466,0,l),
(466,324,ls),
(466,420,o),
(408,477,o),
(312,477,cs),
(246,477,o),
(197,451,o),
(150,405,c),
(137,470,l),
(68,470,l)
);
}
);
width = 534;
},
{
layerId = "34019E5C-CFBD-41F4-A079-921E83AB1F7F";
shapes = (
{
closed = 1;
nodes = (
(76,0,l),
(128,0,l),
(128,362,l),
(166,406,o),
(220,434,o),
(270,434,cs),
(359,434,o),
(386,381,o),
(386,311,cs),
(386,0,l),
(438,0,l),
(438,324,ls),
(438,420,o),
(381,476,o),
(285,476,cs),
(219,476,o),
(167,448,o),
(122,405,c),
(114,470,l),
(76,470,l)
);
}
);
width = 514;
}
);
leftKerningGroup = _n;
rightKerningGroup = _n;
unicode = 110;
},
{
glyphname = o;
layers = (
{
layerId = "A25775AA-C32B-429E-A370-B71F346E2F61";
shapes = (
{
closed = 1;
nodes = (
(32,79,o),
(140,-12,o),
(285,-12,cs),
(430,-12,o),
(542,86,o),
(542,244,cs),
(542,408,o),
(434,495,o),
(289,495,cs),
(144,495,o),
(32,399,o),
(32,234,cs)
);
},
{
closed = 1;
nodes = (
(199,344,o),
(241,377,o),
(286,377,cs),
(333,377,o),
(375,338,o),
(375,239,cs),
(375,141,o),
(333,107,o),
(288,107,cs),
(240,107,o),
(199,149,o),
(199,239,cs)
);
}
);
width = 573;
},
{
layerId = "01F57539-F702-4EC8-9BFC-18F609AC6CA6";
shapes = (
{
closed = 1;
nodes = (
(33,78,o),
(139,-11,o),
(281,-11,cs),
(423,-11,o),
(533,85,o),
(533,243,cs),
(533,405,o),
(427,491,o),
(285,491,cs),
(143,491,o),
(33,397,o),
(33,233,cs)
);
},
{
closed = 1;
nodes = (
(185,349,o),
(232,383,o),
(282,383,cs),
(334,383,o),
(381,342,o),
(381,238,cs),
(381,133,o),
(334,97,o),
(284,97,cs),
(232,97,o),
(185,141,o),
(185,238,cs)
);
}
);
width = 566;
},
{
layerId = "7731FD6D-FAB0-4FA8-8A0E-241F62E50EBE";
shapes = (
{
closed = 1;
nodes = (
(39,75,o),
(137,-9,o),
(267,-9,cs),
(397,-9,o),
(499,82,o),
(499,240,cs),
(499,395,o),
(401,477,o),
(271,477,cs),
(141,477,o),
(39,388,o),
(39,230,cs)
);
},
{
closed = 1;
nodes = (
(131,370,o),
(198,409,o),
(268,409,cs),
(338,409,o),
(407,360,o),
(407,235,cs),
(407,100,o),
(340,59,o),
(270,59,cs),
(200,59,o),
(131,110,o),
(131,235,cs)
);
}
);
width = 538;
},
{
layerId = "34019E5C-CFBD-41F4-A079-921E83AB1F7F";
shapes = (
{
closed = 1;
nodes = (
(42,75,o),
(133,-8,o),
(251,-8,cs),
(370,-8,o),
(461,82,o),
(461,240,cs),
(461,395,o),
(373,476,o),
(255,476,cs),
(137,476,o),
(42,388,o),
(42,230,cs)
);
},
{
closed = 1;
nodes = (
(96,374,o),
(172,434,o),
(252,434,cs),
(332,434,o),
(407,374,o),
(407,235,cs),
(407,88,o),
(334,34,o),
(254,34,cs),
(174,34,o),
(96,89,o),
(96,235,cs)
);
}
);
width = 503;
}
);
leftKerningGroup = _o;
rightKerningGroup = _o;
unicode = 111;
},
{
glyphname = p;
layers = (
{
layerId = "A25775AA-C32B-429E-A370-B71F346E2F61";
shapes = (
{
closed = 1;
nodes = (
(57,-230,l),
(219,-230,l),
(219,4,l),
(237,-5,o),
(270,-12,o),
(301,-12,cs),
(442,-12,o),
(548,87,o),
(548,250,cs),
(548,398,o),
(469,495,o),
(345,495,cs),
(284,495,o),
(230,473,o),
(190,432,c),
(176,481,l),
(57,481,l)
);
},
{
closed = 1;
nodes = (
(219,338,l),
(230,355,o),
(261,375,o),
(297,375,cs),
(350,375,o),
(381,316,o),
(381,246,cs),
(381,145,o),
(329,107,o),
(280,107,cs),
(252,107,o),
(231,114,o),
(219,126,c)
);
}
);
width = 580;
},
{
layerId = "01F57539-F702-4EC8-9BFC-18F609AC6CA6";
shapes = (
{
closed = 1;
nodes = (
(58,-230,l),
(205,-230,l),
(205,8,l),
(225,-3,o),
(260,-11,o),
(293,-11,cs),
(429,-11,o),
(537,83,o),
(537,249,cs),
(537,397,o),
(458,491,o),
(334,491,cs),
(273,491,o),
(221,468,o),
(182,429,c),
(168,480,l),
(58,480,l)
);
},
{
closed = 1;
nodes = (
(205,339,l),
(219,358,o),
(252,381,o),
(292,381,cs),
(352,381,o),
(385,321,o),
(385,245,cs),
(385,137,o),
(328,97,o),
(274,97,cs),
(245,97,o),
(221,105,o),
(205,119,c)
);
}
);
width = 570;
},
{
layerId = "7731FD6D-FAB0-4FA8-8A0E-241F62E50EBE";
shapes = (
{
closed = 1;
nodes = (
(64,-230,l),
(151,-230,l),
(151,24,l),
(179,4,o),
(220,-9,o),
(263,-9,cs),
(379,-9,o),
(493,69,o),
(493,245,cs),
(493,393,o),
(415,477,o),
(291,477,cs),
(230,477,o),
(186,449,o),
(150,416,c),
(137,477,l),
(64,477,l)
);
},
{
closed = 1;
nodes = (
(151,343,l),
(174,371,o),
(217,405,o),
(272,405,cs),
(360,405,o),
(401,343,o),
(401,243,cs),
(401,107,o),
(325,59,o),
(252,59,cs),
(217,59,o),
(182,69,o),
(151,92,c)
);
}
);
width = 531;
},
{
layerId = "34019E5C-CFBD-41F4-A079-921E83AB1F7F";
shapes = (
{
closed = 1;
nodes = (
(80,-230,l),
(132,-230,l),
(132,24,l),
(160,4,o),
(200,-8,o),
(244,-8,cs),
(360,-8,o),
(474,71,o),
(474,247,cs),
(474,395,o),
(388,476,o),
(274,476,cs),
(208,476,o),
(161,447,o),
(131,416,c),
(123,476,l),
(80,476,l)
);
},
{
closed = 1;
nodes = (
(132,366,l),
(151,395,o),
(202,434,o),
(263,434,cs),
(369,434,o),
(420,365,o),
(420,247,cs),
(420,90,o),
(330,34,o),
(237,34,cs),
(200,34,o),
(161,44,o),
(132,67,c)
);
}
);
width = 516;
}
);
unicode = 112;
},
{
glyphname = q;
layers = (
{
layerId = "A25775AA-C32B-429E-A370-B71F346E2F61";
shapes = (
{
closed = 1;
nodes = (
(32,93,o),
(114,-12,o),
(256,-12,cs),
(292,-12,o),
(339,1,o),
(360,18,c),
(360,-230,l),
(523,-230,l),
(523,483,l),
(400,483,l),
(393,446,l),
(359,478,o),
(309,495,o),
(258,495,cs),
(116,495,o),
(32,388,o),
(32,241,cs)
);
},
{
closed = 1;
nodes = (
(196,340,o),
(238,378,o),
(289,378,cs),
(325,378,o),
(349,359,o),
(360,344,c),
(360,134,l),
(349,120,o),
(327,107,o),
(296,107,cs),
(243,107,o),
(196,153,o),
(196,244,cs)
);
}
);
width = 581;
},
{
layerId = "01F57539-F702-4EC8-9BFC-18F609AC6CA6";
shapes = (
{
closed = 1;
nodes = (
(33,92,o),
(115,-11,o),
(255,-11,cs),
(294,-11,o),
(340,1,o),
(364,21,c),
(364,-230,l),
(512,-230,l),
(512,480,l),
(399,480,l),
(391,441,l),
(358,474,o),
(306,491,o),
(257,491,cs),
(116,491,o),
(33,385,o),
(33,240,cs)
);
},
{
closed = 1;
nodes = (
(182,344,o),
(229,384,o),
(285,384,cs),
(323,384,o),
(350,364,o),
(364,345,c),
(364,129,l),
(350,112,o),
(324,97,o),
(289,97,cs),
(231,97,o),
(182,146,o),
(182,243,cs)
);
}
);
width = 572;
},
{
layerId = "7731FD6D-FAB0-4FA8-8A0E-241F62E50EBE";
shapes = (
{
closed = 1;
nodes = (
(39,87,o),
(118,-9,o),
(251,-9,cs),
(304,-9,o),
(345,3,o),
(380,34,c),
(380,-230,l),
(468,-230,l),
(468,470,l),
(395,470,l),
(385,422,l),
(354,458,o),
(296,477,o),
(255,477,cs),
(116,477,o),
(39,374,o),
(39,235,cs)
);
},
{
closed = 1;
nodes = (
(128,360,o),
(194,410,o),
(270,410,cs),
(317,410,o),
(356,383,o),
(380,350,c),
(380,111,l),
(353,80,o),
(312,59,o),
(263,59,cs),
(184,59,o),
(128,120,o),
(128,238,cs)
);
}
);
width = 536;
},
{
layerId = "34019E5C-CFBD-41F4-A079-921E83AB1F7F";
shapes = (
{
closed = 1;
nodes = (
(42,87,o),
(121,-8,o),
(254,-8,cs),
(307,-8,o),
(350,4,o),
(383,35,c),
(383,-230,l),
(435,-230,l),
(435,470,l),
(395,470,l),
(388,421,l),
(358,455,o),
(308,476,o),
(253,476,cs),
(118,476,o),
(42,374,o),
(42,235,cs)
);
},
{
closed = 1;
nodes = (
(96,373,o),
(171,434,o),
(261,434,cs),
(320,434,o),
(359,406,o),
(383,377,c),
(383,86,l),
(361,58,o),
(319,34,o),
(266,34,cs),
(163,34,o),
(96,99,o),
(96,238,cs)
);
}
);
width = 515;
}
);
unicode = 113;
},
{
glyphname = r;
layers = (
{
layerId = "F3DD9027-1EA0-47D2-8A1E-16FEA0668E69";
name = "#instance";
shapes = (
{
closed = 1;
nodes = (
(74,0,l),
(126,0,l),
(126,262,ls),
(126,376,o),
(192,430,o),
(268,430,cs),
(294,430,o),
(314,424,o),
(330,417,c),
(340,463,l),
(327,469,o),
(302,476,o),
(270,476,cs),
(202,476,o),
(143,435,o),
(120,376,c),
(108,470,l),
(74,470,l)
);
}
);
width = 354;
},
{
layerId = "A25775AA-C32B-429E-A370-B71F346E2F61";
shapes = (
{
closed = 1;
nodes = (
(56,0,l),
(218,0,l),
(218,239,ls),
(218,338,o),
(261,368,o),
(318,368,cs),
(353,368,o),
(377,359,o),
(390,351,c),
(416,476,l),
(402,485,o),
(375,495,o),
(347,495,cs),
(266,495,o),
(223,448,o),
(200,401,c),
(185,483,l),
(56,483,l)
);
}
);
width = 402;
},
{
layerId = "01F57539-F702-4EC8-9BFC-18F609AC6CA6";
shapes = (
{
closed = 1;
nodes = (
(58,0,l),
(205,0,l),
(205,240,ls),
(205,339,o),
(251,374,o),
(312,374,cs),
(345,374,o),
(368,366,o),
(382,358,c),
(406,473,l),
(391,482,o),
(365,491,o),
(336,491,cs),
(258,491,o),
(212,445,o),
(189,396,c),
(174,480,l),
(58,480,l)
);
}
);
width = 396;
},
{
layerId = "7731FD6D-FAB0-4FA8-8A0E-241F62E50EBE";
shapes = (
{
closed = 1;
nodes = (
(66,0,l),
(153,0,l),
(153,243,ls),
(153,345,o),
(213,400,o),
(289,400,cs),
(315,400,o),
(334,394,o),
(350,386,c),
(367,463,l),
(349,471,o),
(327,477,o),
(293,477,cs),
(225,477,o),
(170,435,o),
(147,376,c),
(132,470,l),
(66,470,l)
);
}
);
width = 372;
},
{
layerId = "34019E5C-CFBD-41F4-A079-921E83AB1F7F";
shapes = (
{
closed = 1;
nodes = (
(74,0,l),
(126,0,l),
(126,262,ls),
(126,376,o),
(192,430,o),
(268,430,cs),
(294,430,o),
(314,424,o),
(330,417,c),
(340,463,l),
(327,469,o),
(302,476,o),
(270,476,cs),
(202,476,o),
(143,435,o),
(120,376,c),
(108,470,l),
(74,470,l)
);
}
);
width = 354;
}
);
leftKerningGroup = _r;
rightKerningGroup = _r;
unicode = 114;
},
{
glyphname = s;
layers = (
{
layerId = "A25775AA-C32B-429E-A370-B71F346E2F61";
shapes = (
{
closed = 1;
nodes = (
(38,25,l),
(84,1,o),
(134,-12,o),
(203,-12,cs),
(332,-12,o),
(419,52,o),
(419,152,cs),
(419,224,o),
(379,270,o),
(301,294,cs),
(271,303,ls),
(212,320,o),
(195,331,o),
(195,352,cs),
(195,369,o),
(216,379,o),
(244,379,cs),
(282,379,o),
(326,367,o),
(360,351,c),
(392,462,l),
(351,482,o),
(297,495,o),
(232,495,cs),
(104,495,o),
(34,426,o),
(34,338,cs),
(34,261,o),
(68,217,o),
(144,193,c),
(175,184,ls),
(247,163,o),
(257,154,o),
(257,136,cs),
(257,123,o),
(243,107,o),
(196,107,cs),
(152,107,o),
(110,121,o),
(72,141,c)
);
}
);
width = 453;
},
{
layerId = "01F57539-F702-4EC8-9BFC-18F609AC6CA6";
shapes = (
{
closed = 1;
nodes = (
(37,24,l),
(82,1,o),
(134,-11,o),
(201,-11,cs),
(327,-11,o),
(410,51,o),
(410,148,cs),
(410,220,o),
(368,265,o),
(288,289,cs),
(258,298,ls),
(197,316,o),
(181,328,o),
(181,351,cs),
(181,372,o),
(204,385,o),
(239,385,cs),
(276,385,o),
(318,374,o),
(354,357,c),
(384,459,l),
(342,479,o),
(288,491,o),
(227,491,cs),
(105,491,o),
(35,426,o),
(35,339,cs),
(35,264,o),
(70,221,o),
(148,196,c),
(179,187,ls),
(248,167,o),
(263,157,o),
(263,134,cs),
(263,114,o),
(244,97,o),
(194,97,cs),
(150,97,o),
(107,111,o),
(69,131,c)
);
}
);
width = 444;
},
{
layerId = "7731FD6D-FAB0-4FA8-8A0E-241F62E50EBE";
shapes = (
{
closed = 1;
nodes = (
(35,21,l),
(75,2,o),
(133,-9,o),
(193,-9,cs),
(306,-9,o),
(373,48,o),
(373,133,cs),
(373,205,o),
(326,244,o),
(237,270,cs),
(207,279,ls),
(139,299,o),
(124,318,o),
(124,346,cs),
(124,385,o),
(155,410,o),
(218,410,cs),
(254,410,o),
(288,403,o),
(332,382,c),
(352,449,l),
(307,469,o),
(254,477,o),
(208,477,cs),
(110,477,o),
(38,425,o),
(38,344,cs),
(38,278,o),
(80,238,o),
(166,210,cs),
(197,200,ls),
(254,183,o),
(286,170,o),
(286,128,cs),
(286,79,o),
(247,59,o),
(188,59,cs),
(141,59,o),
(94,71,o),
(56,90,c)
);
}
);
width = 407;
},
{
layerId = "34019E5C-CFBD-41F4-A079-921E83AB1F7F";
shapes = (
{
closed = 1;
nodes = (
(44,19,l),
(78,3,o),
(123,-8,o),
(183,-8,cs),
(293,-8,o),
(351,50,o),
(351,125,cs),
(351,189,o),
(309,233,o),
(234,256,cs),
(204,265,ls),
(127,288,o),
(100,307,o),
(100,354,cs),
(100,400,o),
(136,434,o),
(208,434,cs),
(249,434,o),
(282,427,o),
(317,411,c),
(330,452,l),
(293,470,o),
(244,476,o),
(202,476,cs),
(110,476,o),
(46,424,o),
(46,349,cs),
(46,291,o),
(84,251,o),
(163,226,cs),
(195,216,ls),
(271,192,o),
(297,162,o),
(297,119,cs),
(297,65,o),
(253,34,o),
(178,34,cs),
(128,34,o),
(93,43,o),
(58,60,c)
);
}
);
width = 395;
}
);
leftKerningGroup = _s;
rightKerningGroup = _s;
unicode = 115;
},
{
glyphname = t;
layers = (
{
layerId = "F3DD9027-1EA0-47D2-8A1E-16FEA0668E69";
name = "#instance";
shapes = (
{
closed = 1;
nodes = (
(105,115,ls),
(105,38,o),
(148,0,o),
(227,0,cs),
(274,0,o),
(313,10,o),
(340,20,c),
(332,59,l),
(309,51,o),
(275,42,o),
(236,42,cs),
(187,42,o),
(157,59,o),
(157,122,cs),
(157,430,l),
(315,430,l),
(315,470,l),
(157,470,l),
(157,620,l),
(105,620,l),
(105,470,l),
(20,470,l),
(20,430,l),
(105,430,l)
);
}
);
width = 358;
},
{
layerId = "A25775AA-C32B-429E-A370-B71F346E2F61";
shapes = (
{
closed = 1;
nodes = (
(84,152,ls),
(84,50,o),
(131,0,o),
(263,0,cs),
(317,0,o),
(369,15,o),
(390,28,c),
(366,137,l),
(353,128,o),
(326,122,o),
(299,122,cs),
(266,122,o),
(246,138,o),
(246,181,cs),
(246,367,l),
(365,367,l),
(365,483,l),
(246,483,l),
(246,628,l),
(84,628,l),
(84,483,l),
(8,483,l),
(8,367,l),
(84,367,l)
);
}
);
width = 394;
},
{
layerId = "01F57539-F702-4EC8-9BFC-18F609AC6CA6";
shapes = (
{
closed = 1;
nodes = (
(85,145,ls),
(85,48,o),
(131,0,o),
(255,0,cs),
(307,0,o),
(358,14,o),
(380,26,c),
(358,127,l),
(343,118,o),
(314,112,o),
(287,112,cs),
(253,112,o),
(232,127,o),
(232,171,cs),
(232,374,l),
(355,374,l),
(355,480,l),
(232,480,l),
(232,626,l),
(85,626,l),
(85,480,l),
(10,480,l),
(10,374,l),
(85,374,l)
);
}
);
width = 388;
},
{
layerId = "7731FD6D-FAB0-4FA8-8A0E-241F62E50EBE";
shapes = (
{
closed = 1;
nodes = (
(90,119,ls),
(90,42,o),
(131,0,o),
(224,0,cs),
(269,0,o),
(313,10,o),
(340,20,c),
(326,87,l),
(302,79,o),
(267,72,o),
(240,72,cs),
(203,72,o),
(177,85,o),
(177,131,cs),
(177,404,l),
(315,404,l),
(315,470,l),
(177,470,l),
(177,620,l),
(90,620,l),
(90,470,l),
(20,470,l),
(20,404,l),
(90,404,l)
);
}
);
width = 364;
},
{
layerId = "34019E5C-CFBD-41F4-A079-921E83AB1F7F";
shapes = (
{
closed = 1;
nodes = (
(105,115,ls),
(105,38,o),
(148,0,o),
(227,0,cs),
(274,0,o),
(313,10,o),
(340,20,c),
(332,59,l),
(309,51,o),
(275,42,o),
(236,42,cs),
(187,42,o),
(157,59,o),
(157,122,cs),
(157,430,l),
(315,430,l),
(315,470,l),
(157,470,l),
(157,620,l),
(105,620,l),
(105,470,l),
(20,470,l),
(20,430,l),
(105,430,l)
);
}
);
width = 358;
}
);
leftKerningGroup = _t;
rightKerningGroup = _t;
unicode = 116;
},
{
glyphname = u;
layers = (
{
layerId = "F3DD9027-1EA0-47D2-8A1E-16FEA0668E69";
name = "#instance";
shapes = (
{
closed = 1;
nodes = (
(76,155,ls),
(76,44,o),
(141,-8,o),
(238,-8,cs),
(309,-8,o),
(364,24,o),
(396,59,c),
(398,59,l),
(406,0,l),
(443,0,l),
(443,470,l),
(391,470,l),
(391,105,l),
(365,66,o),
(309,34,o),
(249,34,cs),
(179,34,o),
(128,61,o),
(128,166,cs),
(128,470,l),
(76,470,l)
);
}
);
width = 519;
},
{
layerId = "A25775AA-C32B-429E-A370-B71F346E2F61";
shapes = (
{
closed = 1;
nodes = (
(56,159,ls),
(56,48,o),
(118,-12,o),
(222,-12,cs),
(311,-12,o),
(359,27,o),
(382,50,c),
(386,50,l),
(402,0,l),
(521,0,l),
(521,483,l),
(358,483,l),
(358,149,l),
(350,133,o),
(322,109,o),
(278,109,cs),
(242,109,o),
(219,131,o),
(219,172,cs),
(219,483,l),
(56,483,l)
);
}
);
width = 577;
},
{
layerId = "01F57539-F702-4EC8-9BFC-18F609AC6CA6";
shapes = (
{
closed = 1;
nodes = (
(58,159,ls),
(58,48,o),
(121,-11,o),
(224,-11,cs),
(309,-11,o),
(357,26,o),
(383,52,c),
(387,52,l),
(402,0,l),
(511,0,l),
(511,480,l),
(363,480,l),
(363,144,l),
(349,123,o),
(318,99,o),
(272,99,cs),
(233,99,o),
(206,122,o),
(206,171,cs),
(206,480,l),
(58,480,l)
);
}
);
width = 569;
},
{
layerId = "7731FD6D-FAB0-4FA8-8A0E-241F62E50EBE";
shapes = (
{
closed = 1;
nodes = (
(68,158,ls),
(68,47,o),
(135,-9,o),
(232,-9,cs),
(300,-9,o),
(351,21,o),
(386,59,c),
(390,59,l),
(402,0,l),
(471,0,l),
(471,470,l),
(383,470,l),
(383,125,l),
(345,85,o),
(303,61,o),
(250,61,cs),
(198,61,o),
(156,88,o),
(156,169,cs),
(156,470,l),
(68,470,l)
);
}
);
width = 539;
},
{
layerId = "34019E5C-CFBD-41F4-A079-921E83AB1F7F";
shapes = (
{
closed = 1;
nodes = (
(76,155,ls),
(76,44,o),
(141,-8,o),
(238,-8,cs),
(309,-8,o),
(364,24,o),
(396,59,c),
(398,59,l),
(406,0,l),
(443,0,l),
(443,470,l),
(391,470,l),
(391,105,l),
(365,66,o),
(309,34,o),
(249,34,cs),
(179,34,o),
(128,61,o),
(128,166,cs),
(128,470,l),
(76,470,l)
);
}
);
width = 519;
}
);
leftKerningGroup = _u;
rightKerningGroup = _u;
unicode = 117;
},
{
glyphname = v;
layers = (
{
layerId = "A25775AA-C32B-429E-A370-B71F346E2F61";
shapes = (
{
closed = 1;
nodes = (
(164,0,l),
(362,0,l),
(529,483,l),
(356,483,l),
(306,301,l),
(269,111,l),
(265,111,l),
(228,301,l),
(182,483,l),
(8,483,l)
);
}
);
width = 536;
},
{
layerId = "01F57539-F702-4EC8-9BFC-18F609AC6CA6";
shapes = (
{
closed = 1;
nodes = (
(169,0,l),
(345,0,l),
(513,480,l),
(356,480,l),
(295,270,l),
(262,103,l),
(258,103,l),
(225,270,l),
(167,480,l),
(9,480,l)
);
}
);
width = 521;
},
{
layerId = "7731FD6D-FAB0-4FA8-8A0E-241F62E50EBE";
shapes = (
{
closed = 1;
nodes = (
(190,0,l),
(276,0,l),
(451,470,l),
(357,470,l),
(253,146,l),
(236,73,l),
(232,73,l),
(214,147,l),
(108,470,l),
(13,470,l)
);
}
);
width = 463;
},
{
layerId = "34019E5C-CFBD-41F4-A079-921E83AB1F7F";
shapes = (
{
closed = 1;
nodes = (
(182,0,l),
(228,0,l),
(393,470,l),
(338,470,l),
(229,136,l),
(207,44,l),
(205,44,l),
(181,137,l),
(70,470,l),
(15,470,l)
);
}
);
width = 407;
}
);
unicode = 118;
},
{
glyphname = w;
layers = (
{
layerId = "A25775AA-C32B-429E-A370-B71F346E2F61";
shapes = (
{
closed = 1;
nodes = (
(134,0,l),
(329,0,l),
(377,238,l),
(397,353,l),
(416,238,l),
(466,0,l),
(659,0,l),
(783,483,l),
(618,483,l),
(571,258,l),
(552,119,l),
(548,119,l),
(527,258,l),
(483,483,l),
(313,483,l),
(268,258,l),
(247,119,l),
(243,119,l),
(225,258,l),
(178,483,l),
(9,483,l)
);
}
);
width = 791;
},
{
layerId = "01F57539-F702-4EC8-9BFC-18F609AC6CA6";
shapes = (
{
closed = 1;
nodes = (
(138,0,l),
(313,0,l),
(368,248,l),
(389,363,l),
(409,248,l),
(465,0,l),
(639,0,l),
(767,480,l),
(617,480,l),
(564,241,l),
(544,109,l),
(540,109,l),
(519,241,l),
(467,480,l),
(312,480,l),
(260,241,l),
(239,109,l),
(235,109,l),
(217,241,l),
(163,480,l),
(9,480,l)
);
}
);
width = 775;
},
{
layerId = "7731FD6D-FAB0-4FA8-8A0E-241F62E50EBE";
shapes = (
{
closed = 1;
nodes = (
(156,0,l),
(251,0,l),
(333,288,l),
(357,404,l),
(380,288,l),
(460,0,l),
(560,0,l),
(703,470,l),
(613,470,l),
(535,174,l),
(513,69,l),
(509,69,l),
(488,174,l),
(405,470,l),
(310,470,l),
(229,174,l),
(207,69,l),
(203,69,l),
(185,174,l),
(105,470,l),
(11,470,l)
);
}
);
width = 712;
},
{
layerId = "34019E5C-CFBD-41F4-A079-921E83AB1F7F";
shapes = (
{
closed = 1;
nodes = (
(146,0,l),
(201,0,l),
(293,308,l),
(327,434,l),
(360,308,l),
(450,0,l),
(510,0,l),
(643,470,l),
(593,470,l),
(512,174,l),
(479,44,l),
(477,44,l),
(443,174,l),
(355,470,l),
(300,470,l),
(209,174,l),
(176,44,l),
(174,44,l),
(145,174,l),
(63,470,l),
(11,470,l)
);
}
);
width = 657;
}
);
leftKerningGroup = _w;
rightKerningGroup = _w;
unicode = 119;
},
{
glyphname = x;
layers = (
{
layerId = "A25775AA-C32B-429E-A370-B71F346E2F61";
shapes = (
{
closed = 1;
nodes = (
(9,0,l),
(194,0,l),
(222,47,l),
(275,149,l),
(332,46,l),
(362,0,l),
(549,0,l),
(378,248,l),
(536,483,l),
(357,483,l),
(328,434,l),
(282,335,l),
(232,434,l),
(201,483,l),
(19,483,l),
(178,248,l)
);
}
);
width = 557;
},
{
layerId = "01F57539-F702-4EC8-9BFC-18F609AC6CA6";
shapes = (
{
closed = 1;
nodes = (
(9,0,l),
(177,0,l),
(215,61,l),
(264,155,l),
(317,60,l),
(357,0,l),
(527,0,l),
(357,246,l),
(514,480,l),
(352,480,l),
(315,418,l),
(271,327,l),
(224,418,l),
(184,480,l),
(19,480,l),
(177,246,l)
);
}
);
width = 535;
},
{
layerId = "7731FD6D-FAB0-4FA8-8A0E-241F62E50EBE";
shapes = (
{
closed = 1;
nodes = (
(11,0,l),
(109,0,l),
(187,119,l),
(221,179,l),
(258,118,l),
(339,0,l),
(439,0,l),
(274,238,l),
(428,470,l),
(332,470,l),
(263,355,l),
(228,295,l),
(192,355,l),
(118,470,l),
(19,470,l),
(174,238,l)
);
}
);
width = 448;
},
{
layerId = "34019E5C-CFBD-41F4-A079-921E83AB1F7F";
shapes = (
{
closed = 1;
nodes = (
(11,0,l),
(68,0,l),
(148,121,l),
(202,205,l),
(258,118,l),
(339,0,l),
(399,0,l),
(234,238,l),
(388,470,l),
(332,470,l),
(247,339,l),
(206,268,l),
(167,333,l),
(77,470,l),
(18,470,l),
(174,238,l)
);
}
);
width = 408;
}
);
unicode = 120;
},
{
glyphname = y;
layers = (
{
layerId = "A25775AA-C32B-429E-A370-B71F346E2F61";
shapes = (
{
closed = 1;
nodes = (
(129,-277,l),
(291,-224,o),
(346,-108,o),
(383,-1,cs),
(554,483,l),
(388,483,l),
(324,285,l),
(295,164,l),
(291,164,l),
(259,282,l),
(186,483,l),
(7,483,l),
(214,4,l),
(214,1,l),
(199,-63,o),
(144,-122,o),
(62,-151,c)
);
}
);
width = 560;
},
{
layerId = "01F57539-F702-4EC8-9BFC-18F609AC6CA6";
shapes = (
{
closed = 1;
nodes = (
(121,-270,l),
(267,-222,o),
(323,-117,o),
(361,-9,cs),
(534,480,l),
(383,480,l),
(314,268,l),
(284,149,l),
(280,149,l),
(248,266,l),
(169,480,l),
(7,480,l),
(211,3,l),
(209,-5,ls),
(192,-72,o),
(138,-127,o),
(60,-155,c)
);
}
);
width = 540;
},
{
layerId = "7731FD6D-FAB0-4FA8-8A0E-241F62E50EBE";
shapes = (
{
closed = 1;
nodes = (
(89,-243,l),
(172,-214,o),
(233,-153,o),
(273,-40,cs),
(454,470,l),
(364,470,l),
(273,201,l),
(239,89,l),
(237,89,l),
(203,201,l),
(103,470,l),
(9,470,l),
(200,0,l),
(191,-27,ls),
(164,-107,o),
(113,-149,o),
(51,-173,c)
);
}
);
width = 461;
},
{
layerId = "34019E5C-CFBD-41F4-A079-921E83AB1F7F";
shapes = (
{
closed = 1;
nodes = (
(66,-231,l),
(144,-200,o),
(200,-141,o),
(236,-40,cs),
(417,470,l),
(367,470,l),
(257,158,l),
(226,52,l),
(224,52,l),
(188,158,l),
(66,470,l),
(12,470,l),
(201,0,l),
(192,-27,ls),
(160,-122,o),
(113,-165,o),
(45,-193,c)
);
}
);
width = 427;
}
);
leftKerningGroup = _y;
rightKerningGroup = _y;
unicode = 121;
},
{
glyphname = z;
layers = (
{
layerId = "F3DD9027-1EA0-47D2-8A1E-16FEA0668E69";
name = "#instance";
shapes = (
{
closed = 1;
nodes = (
(25,0,l),
(387,0,l),
(387,43,l),
(88,43,l),
(382,441,l),
(382,470,l),
(42,470,l),
(42,427,l),
(314,427,l),
(25,34,l)
);
}
);
width = 411;
},
{
layerId = "A25775AA-C32B-429E-A370-B71F346E2F61";
shapes = (
{
closed = 1;
nodes = (
(19,0,l),
(406,0,l),
(406,116,l),
(196,116,l),
(401,382,l),
(401,483,l),
(30,483,l),
(30,367,l),
(224,367,l),
(19,104,l)
);
}
);
width = 425;
},
{
layerId = "01F57539-F702-4EC8-9BFC-18F609AC6CA6";
shapes = (
{
closed = 1;
nodes = (
(20,0,l),
(402,0,l),
(402,106,l),
(183,106,l),
(397,389,l),
(397,480,l),
(32,480,l),
(32,374,l),
(234,374,l),
(20,94,l)
);
}
);
width = 422;
},
{
layerId = "7731FD6D-FAB0-4FA8-8A0E-241F62E50EBE";
shapes = (
{
closed = 1;
nodes = (
(25,0,l),
(387,0,l),
(387,66,l),
(133,66,l),
(382,419,l),
(382,470,l),
(42,470,l),
(42,404,l),
(274,404,l),
(25,54,l)
);
}
);
width = 411;
},
{
layerId = "34019E5C-CFBD-41F4-A079-921E83AB1F7F";
shapes = (
{
closed = 1;
nodes = (
(25,0,l),
(387,0,l),
(387,43,l),
(88,43,l),
(382,441,l),
(382,470,l),
(42,470,l),
(42,427,l),
(314,427,l),
(25,34,l)
);
}
);
width = 411;
}
);
leftKerningGroup = _z;
rightKerningGroup = _z;
unicode = 122;
},
{
glyphname = Euro;
layers = (
{
layerId = "A25775AA-C32B-429E-A370-B71F346E2F61";
shapes = (
{
closed = 1;
nodes = (
(5,204,l),
(74,204,l),
(113,65,o),
(223,-12,o),
(373,-12,cs),
(460,-12,o),
(526,11,o),
(548,25,c),
(516,143,l),
(491,127,o),
(450,115,o),
(390,115,cs),
(332,115,o),
(283,142,o),
(255,204,c),
(465,204,l),
(465,280,l),
(238,280,l),
(237,289,o),
(237,302,o),
(237,316,cs),
(237,328,l),
(465,328,l),
(465,404,l),
(245,404,l),
(270,494,o),
(323,517,o),
(390,517,cs),
(440,517,o),
(487,499,o),
(512,484,c),
(549,605,l),
(520,620,o),
(462,643,o),
(374,643,cs),
(209,643,o),
(97,557,o),
(68,404,c),
(5,404,l),
(5,328,l),
(61,328,l),
(61,316,ls),
(61,303,o),
(61,289,o),
(62,280,c),
(5,280,l)
);
}
);
width = 580;
},
{
layerId = "01F57539-F702-4EC8-9BFC-18F609AC6CA6";
shapes = (
{
closed = 1;
nodes = (
(5,208,l),
(75,208,l),
(111,66,o),
(221,-11,o),
(368,-11,cs),
(454,-11,o),
(515,9,o),
(542,25,c),
(512,134,l),
(484,117,o),
(443,105,o),
(384,105,cs),
(320,105,o),
(265,135,o),
(239,208,c),
(461,208,l),
(461,279,l),
(224,279,l),
(223,291,o),
(223,303,o),
(223,317,cs),
(223,329,l),
(461,329,l),
(461,400,l),
(231,400,l),
(253,495,o),
(313,526,o),
(385,526,cs),
(435,526,o),
(479,510,o),
(509,493,c),
(543,604,l),
(511,621,o),
(457,642,o),
(370,642,cs),
(207,642,o),
(98,554,o),
(70,400,c),
(5,400,l),
(5,329,l),
(63,329,l),
(63,316,ls),
(63,303,o),
(63,291,o),
(64,279,c),
(5,279,l)
);
}
);
width = 572;
},
{
layerId = "7731FD6D-FAB0-4FA8-8A0E-241F62E50EBE";
shapes = (
{
closed = 1;
nodes = (
(5,223,l),
(78,223,l),
(104,69,o),
(215,-9,o),
(350,-9,cs),
(429,-9,o),
(471,2,o),
(518,24,c),
(497,98,l),
(455,78,o),
(416,67,o),
(360,67,cs),
(273,67,o),
(193,109,o),
(175,223,c),
(446,223,l),
(446,274,l),
(167,274,l),
(166,301,o),
(166,309,o),
(166,322,cs),
(166,334,l),
(446,334,l),
(446,385,l),
(174,385,l),
(184,501,o),
(275,563,o),
(367,563,cs),
(415,563,o),
(449,553,o),
(499,530,c),
(521,602,l),
(476,625,o),
(437,639,o),
(355,639,cs),
(200,639,o),
(102,542,o),
(79,385,c),
(5,385,l),
(5,334,l),
(70,334,l),
(70,316,ls),
(70,305,o),
(70,299,o),
(71,274,c),
(5,274,l)
);
}
);
width = 541;
},
{
layerId = "34019E5C-CFBD-41F4-A079-921E83AB1F7F";
shapes = (
{
closed = 1;
nodes = (
(5,234,l),
(76,234,l),
(104,75,o),
(215,-8,o),
(359,-8,cs),
(431,-8,o),
(478,4,o),
(518,24,c),
(506,66,l),
(472,48,o),
(430,34,o),
(366,34,cs),
(263,34,o),
(158,87,o),
(131,234,c),
(446,234,l),
(446,274,l),
(126,274,l),
(125,284,o),
(124,304,o),
(124,318,cs),
(124,345,l),
(446,345,l),
(446,385,l),
(129,385,l),
(153,533,o),
(253,596,o),
(368,596,cs),
(422,596,o),
(465,585,o),
(509,563,c),
(521,602,l),
(479,625,o),
(434,638,o),
(357,638,cs),
(207,638,o),
(99,547,o),
(75,385,c),
(5,385,l),
(5,345,l),
(70,345,l),
(70,317,ls),
(70,303,o),
(70,293,o),
(72,274,c),
(5,274,l)
);
}
);
width = 541;
}
);
unicode = 8364;
},
{
glyphname = quotesinglbase;
layers = (
{
layerId = "A25775AA-C32B-429E-A370-B71F346E2F61";
shapes = (
{
closed = 1;
nodes = (
(94,-191,l),
(165,-155,o),
(243,-66,o),
(243,39,cs),
(243,135,o),
(180,175,o),
(133,175,cs),
(73,175,o),
(38,130,o),
(38,82,cs),
(38,32,o),
(72,-1,o),
(122,-11,cs),
(144,-15,l),
(135,-62,o),
(94,-107,o),
(50,-131,c)
);
}
);
width = 260;
},
{
layerId = "01F57539-F702-4EC8-9BFC-18F609AC6CA6";
shapes = (
{
closed = 1;
nodes = (
(85,-182,l),
(155,-146,o),
(226,-62,o),
(226,36,cs),
(226,128,o),
(168,164,o),
(124,164,cs),
(68,164,o),
(35,122,o),
(35,77,cs),
(35,31,o),
(66,-1,o),
(113,-10,cs),
(134,-14,l),
(125,-61,o),
(86,-103,o),
(44,-126,c)
);
}
);
width = 246;
},
{
layerId = "7731FD6D-FAB0-4FA8-8A0E-241F62E50EBE";
shapes = (
{
closed = 1;
nodes = (
(50,-145,l),
(114,-110,o),
(160,-47,o),
(160,25,cs),
(160,101,o),
(119,120,o),
(88,120,cs),
(48,120,o),
(25,90,o),
(25,58,cs),
(25,27,o),
(43,-2,o),
(77,-6,c),
(95,-9,l),
(86,-56,o),
(56,-86,o),
(21,-105,c)
);
}
);
width = 190;
},
{
layerId = "34019E5C-CFBD-41F4-A079-921E83AB1F7F";
shapes = (
{
closed = 1;
nodes = (
(43,-125,l),
(94,-99,o),
(140,-44,o),
(140,16,cs),
(140,68,o),
(113,82,o),
(92,82,cs),
(68,82,o),
(51,64,o),
(51,40,cs),
(51,12,o),
(69,-4,o),
(91,-8,cs),
(96,-9,l),
(90,-42,o),
(63,-77,o),
(23,-97,c)
);
}
);
width = 190;
}
);
unicode = 8218;
},
{
glyphname = florin;
layers = (
{
layerId = "A25775AA-C32B-429E-A370-B71F346E2F61";
shapes = (
{
closed = 1;
nodes = (
(94,-225,l),
(188,-214,o),
(309,-160,o),
(334,18,cs),
(383,367,l),
(513,367,l),
(513,483,l),
(401,483,l),
(408,539,ls),
(416,601,o),
(440,628,o),
(486,628,cs),
(509,628,o),
(530,622,o),
(550,611,c),
(585,719,l),
(564,733,o),
(515,750,o),
(469,750,cs),
(350,750,o),
(266,680,o),
(247,552,cs),
(238,483,l),
(163,483,l),
(163,368,l),
(220,368,l),
(172,34,ls),
(162,-36,o),
(117,-72,o),
(41,-89,c)
);
}
);
width = 648;
},
{
layerId = "01F57539-F702-4EC8-9BFC-18F609AC6CA6";
shapes = (
{
closed = 1;
nodes = (
(75,-216,l),
(167,-204,o),
(282,-151,o),
(307,25,cs),
(356,374,l),
(489,374,l),
(489,480,l),
(372,480,l),
(380,539,ls),
(389,607,o),
(414,638,o),
(464,638,cs),
(487,638,o),
(509,632,o),
(529,622,c),
(562,721,l),
(539,735,o),
(493,750,o),
(450,750,cs),
(329,750,o),
(252,676,o),
(234,551,cs),
(224,480,l),
(149,480,l),
(149,375,l),
(208,375,l),
(159,36,ls),
(148,-41,o),
(101,-77,o),
(27,-94,c)
);
}
);
width = 607;
},
{
layerId = "7731FD6D-FAB0-4FA8-8A0E-241F62E50EBE";
shapes = (
{
closed = 1;
nodes = (
(-2,-180,l),
(85,-164,o),
(176,-115,o),
(200,55,c),
(249,404,l),
(392,404,l),
(392,470,l),
(258,470,l),
(267,539,ls),
(280,633,o),
(312,678,o),
(378,678,cs),
(401,678,o),
(426,674,o),
(446,665,c),
(469,728,l),
(440,742,o),
(406,750,o),
(373,750,cs),
(245,750,o),
(197,659,o),
(181,549,cs),
(170,470,l),
(92,470,l),
(92,405,l),
(161,405,l),
(109,46,ls),
(93,-61,o),
(39,-97,o),
(-27,-114,c)
);
}
);
width = 444;
},
{
layerId = "34019E5C-CFBD-41F4-A079-921E83AB1F7F";
shapes = (
{
closed = 1;
nodes = (
(-6,-169,l),
(74,-149,o),
(157,-105,o),
(180,55,cs),
(233,430,l),
(392,430,l),
(392,470,l),
(237,470,l),
(246,539,ls),
(261,657,o),
(300,708,o),
(378,708,cs),
(407,708,o),
(435,700,o),
(455,690,c),
(469,728,l),
(440,742,o),
(406,750,o),
(373,750,cs),
(259,750,o),
(214,659,o),
(200,549,cs),
(189,470,l),
(92,470,l),
(92,431,l),
(185,431,l),
(129,46,ls),
(113,-64,o),
(56,-111,o),
(-21,-130,c)
);
}
);
width = 444;
}
);
unicode = 402;
},
{
glyphname = quotedblbase;
layers = (
{
layerId = "A25775AA-C32B-429E-A370-B71F346E2F61";
shapes = (
{
closed = 1;
nodes = (
(94,-191,l),
(165,-155,o),
(243,-66,o),
(243,39,cs),
(243,135,o),
(180,175,o),
(133,175,cs),
(73,175,o),
(38,130,o),
(38,82,cs),
(38,32,o),
(72,-1,o),
(122,-11,cs),
(144,-15,l),
(135,-62,o),
(94,-107,o),
(50,-131,c)
);
},
{
closed = 1;
nodes = (
(370,-191,l),
(442,-155,o),
(519,-66,o),
(519,39,cs),
(519,135,o),
(457,175,o),
(409,175,cs),
(349,175,o),
(314,130,o),
(314,82,cs),
(314,32,o),
(348,-1,o),
(398,-11,cs),
(420,-15,l),
(411,-62,o),
(370,-107,o),
(326,-131,c)
);
}
);
width = 536;
},
{
layerId = "01F57539-F702-4EC8-9BFC-18F609AC6CA6";
shapes = (
{
closed = 1;
nodes = (
(85,-182,l),
(155,-146,o),
(226,-62,o),
(226,36,cs),
(226,128,o),
(168,164,o),
(124,164,cs),
(68,164,o),
(35,122,o),
(35,77,cs),
(35,31,o),
(66,-1,o),
(113,-10,cs),
(134,-14,l),
(125,-61,o),
(86,-103,o),
(44,-126,c)
);
},
{
closed = 1;
nodes = (
(345,-182,l),
(415,-146,o),
(486,-62,o),
(486,36,cs),
(486,128,o),
(428,164,o),
(384,164,cs),
(328,164,o),
(295,122,o),
(295,77,cs),
(295,31,o),
(326,-1,o),
(373,-10,cs),
(394,-14,l),
(385,-61,o),
(346,-103,o),
(304,-126,c)
);
}
);
width = 506;
},
{
layerId = "7731FD6D-FAB0-4FA8-8A0E-241F62E50EBE";
shapes = (
{
closed = 1;
nodes = (
(50,-145,l),
(114,-110,o),
(160,-47,o),
(160,25,cs),
(160,101,o),
(119,120,o),
(88,120,cs),
(48,120,o),
(25,90,o),
(25,58,cs),
(25,27,o),
(43,-2,o),
(77,-6,c),
(95,-9,l),
(86,-56,o),
(56,-86,o),
(21,-105,c)
);
},
{
closed = 1;
nodes = (
(245,-145,l),
(309,-110,o),
(355,-47,o),
(355,25,cs),
(355,101,o),
(314,120,o),
(283,120,cs),
(243,120,o),
(220,90,o),
(220,58,cs),
(220,27,o),
(238,-2,o),
(272,-6,c),
(290,-9,l),
(281,-56,o),
(251,-86,o),
(216,-105,c)
);
}
);
width = 385;
},
{
layerId = "34019E5C-CFBD-41F4-A079-921E83AB1F7F";
shapes = (
{
closed = 1;
nodes = (
(43,-125,l),
(94,-99,o),
(140,-44,o),
(140,16,cs),
(140,68,o),
(113,82,o),
(92,82,cs),
(68,82,o),
(51,64,o),
(51,40,cs),
(51,12,o),
(69,-4,o),
(91,-8,cs),
(96,-9,l),
(90,-42,o),
(63,-77,o),
(23,-97,c)
);
},
{
closed = 1;
nodes = (
(213,-125,l),
(264,-99,o),
(310,-44,o),
(310,16,cs),
(310,68,o),
(283,82,o),
(262,82,cs),
(238,82,o),
(221,64,o),
(221,40,cs),
(221,12,o),
(238,-4,o),
(261,-8,c),
(266,-9,l),
(260,-42,o),
(234,-77,o),
(193,-97,c)
);
}
);
width = 360;
}
);
unicode = 8222;
},
{
glyphname = dagger;
layers = (
{
layerId = "A25775AA-C32B-429E-A370-B71F346E2F61";
shapes = (
{
closed = 1;
nodes = (
(35,359,l),
(145,359,l),
(145,-40,l),
(308,-40,l),
(308,359,l),
(416,359,l),
(416,483,l),
(308,483,l),
(308,630,l),
(145,630,l),
(145,483,l),
(35,483,l)
);
}
);
width = 451;
},
{
layerId = "01F57539-F702-4EC8-9BFC-18F609AC6CA6";
shapes = (
{
closed = 1;
nodes = (
(30,366,l),
(142,366,l),
(142,-40,l),
(290,-40,l),
(290,366,l),
(401,366,l),
(401,480,l),
(290,480,l),
(290,630,l),
(142,630,l),
(142,480,l),
(30,480,l)
);
}
);
width = 431;
},
{
layerId = "7731FD6D-FAB0-4FA8-8A0E-241F62E50EBE";
shapes = (
{
closed = 1;
nodes = (
(10,396,l),
(132,396,l),
(132,-40,l),
(220,-40,l),
(220,396,l),
(341,396,l),
(341,470,l),
(220,470,l),
(220,630,l),
(132,630,l),
(132,470,l),
(10,470,l)
);
}
);
width = 351;
},
{
layerId = "34019E5C-CFBD-41F4-A079-921E83AB1F7F";
shapes = (
{
closed = 1;
nodes = (
(10,430,l),
(152,430,l),
(152,-40,l),
(200,-40,l),
(200,430,l),
(341,430,l),
(341,470,l),
(200,470,l),
(200,630,l),
(152,630,l),
(152,470,l),
(10,470,l)
);
}
);
width = 351;
}
);
unicode = 8224;
},
{
glyphname = daggerdbl;
layers = (
{
layerId = "A25775AA-C32B-429E-A370-B71F346E2F61";
shapes = (
{
closed = 1;
nodes = (
(35,95,l),
(145,95,l),
(145,-40,l),
(308,-40,l),
(308,95,l),
(416,95,l),
(416,219,l),
(308,219,l),
(308,359,l),
(416,359,l),
(416,483,l),
(308,483,l),
(308,630,l),
(145,630,l),
(145,483,l),
(35,483,l),
(35,359,l),
(145,359,l),
(145,219,l),
(35,219,l)
);
}
);
width = 451;
},
{
layerId = "01F57539-F702-4EC8-9BFC-18F609AC6CA6";
shapes = (
{
closed = 1;
nodes = (
(30,100,l),
(142,100,l),
(142,-40,l),
(290,-40,l),
(290,100,l),
(401,100,l),
(401,214,l),
(290,214,l),
(290,366,l),
(401,366,l),
(401,480,l),
(290,480,l),
(290,630,l),
(142,630,l),
(142,480,l),
(30,480,l),
(30,366,l),
(142,366,l),
(142,214,l),
(30,214,l)
);
}
);
width = 431;
},
{
layerId = "7731FD6D-FAB0-4FA8-8A0E-241F62E50EBE";
shapes = (
{
closed = 1;
nodes = (
(10,120,l),
(132,120,l),
(132,-40,l),
(220,-40,l),
(220,120,l),
(341,120,l),
(341,194,l),
(220,194,l),
(220,396,l),
(341,396,l),
(341,470,l),
(220,470,l),
(220,630,l),
(132,630,l),
(132,470,l),
(10,470,l),
(10,396,l),
(132,396,l),
(132,194,l),
(10,194,l)
);
}
);
width = 351;
},
{
layerId = "34019E5C-CFBD-41F4-A079-921E83AB1F7F";
shapes = (
{
closed = 1;
nodes = (
(10,154,l),
(152,154,l),
(152,-40,l),
(200,-40,l),
(200,154,l),
(341,154,l),
(341,194,l),
(200,194,l),
(200,430,l),
(341,430,l),
(341,470,l),
(200,470,l),
(200,630,l),
(152,630,l),
(152,470,l),
(10,470,l),
(10,430,l),
(152,430,l),
(152,194,l),
(10,194,l)
);
}
);
width = 351;
}
);
unicode = 8225;
},
{
glyphname = circumflex;
layers = (
{
layerId = "A25775AA-C32B-429E-A370-B71F346E2F61";
shapes = (
{
closed = 1;
nodes = (
(18,544,l),
(137,544,l),
(192,607,l),
(249,544,l),
(362,544,l),
(234,683,l),
(150,683,l)
);
}
);
width = 381;
},
{
layerId = "01F57539-F702-4EC8-9BFC-18F609AC6CA6";
shapes = (
{
closed = 1;
nodes = (
(20,546,l),
(130,546,l),
(190,620,l),
(250,546,l),
(356,546,l),
(229,690,l),
(150,690,l)
);
}
);
width = 376;
},
{
layerId = "7731FD6D-FAB0-4FA8-8A0E-241F62E50EBE";
shapes = (
{
closed = 1;
nodes = (
(27,555,l),
(104,555,l),
(182,672,l),
(256,555,l),
(332,555,l),
(211,720,l),
(152,720,l)
);
}
);
width = 355;
},
{
layerId = "34019E5C-CFBD-41F4-A079-921E83AB1F7F";
shapes = (
{
closed = 1;
nodes = (
(37,555,l),
(94,555,l),
(182,672,l),
(266,555,l),
(322,555,l),
(201,720,l),
(162,720,l)
);
}
);
width = 355;
}
);
unicode = 710;
},
{
glyphname = perthousand;
layers = (
{
layerId = "A25775AA-C32B-429E-A370-B71F346E2F61";
shapes = (
{
closed = 1;
nodes = (
(136,0,l),
(226,0,l),
(663,750,l),
(573,750,l)
);
},
{
closed = 1;
nodes = (
(415,80,o),
(477,-12,o),
(589,-12,cs),
(706,-12,o),
(767,80,o),
(767,182,cs),
(767,283,o),
(704,374,o),
(592,374,cs),
(481,374,o),
(415,283,o),
(415,182,cs)
);
},
{
closed = 1;
nodes = (
(537,235,o),
(553,285,o),
(592,285,cs),
(631,285,o),
(645,232,o),
(645,182,cs),
(645,124,o),
(627,78,o),
(589,78,cs),
(550,78,o),
(537,128,o),
(537,182,cs)
);
},
{
closed = 1;
nodes = (
(26,456,o),
(88,365,o),
(201,365,cs),
(318,365,o),
(378,456,o),
(378,558,cs),
(378,659,o),
(315,750,o),
(204,750,cs),
(92,750,o),
(26,659,o),
(26,558,cs)
);
},
{
closed = 1;
nodes = (
(148,605,o),
(165,648,o),
(204,648,cs),
(243,648,o),
(256,602,o),
(256,558,cs),
(256,500,o),
(239,454,o),
(201,454,cs),
(162,454,o),
(148,504,o),
(148,558,cs)
);
},
{
closed = 1;
nodes = (
(837,80,o),
(899,-12,o),
(1012,-12,cs),
(1128,-12,o),
(1189,80,o),
(1189,182,cs),
(1189,283,o),
(1126,374,o),
(1015,374,cs),
(903,374,o),
(837,283,o),
(837,182,cs)
);
},
{
closed = 1;
nodes = (
(959,235,o),
(976,285,o),
(1015,285,cs),
(1054,285,o),
(1067,232,o),
(1067,182,cs),
(1067,124,o),
(1049,78,o),
(1012,78,cs),
(973,78,o),
(959,128,o),
(959,182,cs)
);
}
);
width = 1215;
},
{
layerId = "01F57539-F702-4EC8-9BFC-18F609AC6CA6";
shapes = (
{
closed = 1;
nodes = (
(142,0,l),
(227,0,l),
(664,750,l),
(579,750,l)
);
},
{
closed = 1;
nodes = (
(424,79,o),
(485,-11,o),
(596,-11,cs),
(711,-11,o),
(771,79,o),
(771,181,cs),
(771,282,o),
(709,372,o),
(599,372,cs),
(489,372,o),
(424,282,o),
(424,181,cs)
);
},
{
closed = 1;
nodes = (
(536,238,o),
(555,290,o),
(599,290,cs),
(644,290,o),
(659,235,o),
(659,181,cs),
(659,119,o),
(639,71,o),
(596,71,cs),
(552,71,o),
(536,123,o),
(536,181,cs)
);
},
{
closed = 1;
nodes = (
(27,457,o),
(88,367,o),
(199,367,cs),
(314,367,o),
(374,457,o),
(374,559,cs),
(374,660,o),
(312,750,o),
(202,750,cs),
(92,750,o),
(27,660,o),
(27,559,cs)
);
},
{
closed = 1;
nodes = (
(139,611,o),
(158,658,o),
(202,658,cs),
(247,658,o),
(262,608,o),
(262,559,cs),
(262,497,o),
(242,449,o),
(199,449,cs),
(155,449,o),
(139,501,o),
(139,559,cs)
);
},
{
closed = 1;
nodes = (
(844,79,o),
(905,-11,o),
(1016,-11,cs),
(1131,-11,o),
(1191,79,o),
(1191,181,cs),
(1191,282,o),
(1129,372,o),
(1019,372,cs),
(909,372,o),
(844,282,o),
(844,181,cs)
);
},
{
closed = 1;
nodes = (
(956,238,o),
(975,290,o),
(1019,290,cs),
(1064,290,o),
(1079,235,o),
(1079,181,cs),
(1079,119,o),
(1059,71,o),
(1016,71,cs),
(972,71,o),
(956,123,o),
(956,181,cs)
);
}
);
width = 1218;
},
{
layerId = "7731FD6D-FAB0-4FA8-8A0E-241F62E50EBE";
shapes = (
{
closed = 1;
nodes = (
(165,0,l),
(230,0,l),
(667,750,l),
(602,750,l)
);
},
{
closed = 1;
nodes = (
(462,76,o),
(519,-9,o),
(624,-9,cs),
(732,-9,o),
(789,76,o),
(789,178,cs),
(789,279,o),
(731,364,o),
(627,364,cs),
(523,364,o),
(462,279,o),
(462,178,cs)
);
},
{
closed = 1;
nodes = (
(534,250,o),
(562,312,o),
(627,312,cs),
(695,312,o),
(717,247,o),
(717,178,cs),
(717,98,o),
(688,43,o),
(624,43,cs),
(559,43,o),
(534,105,o),
(534,178,cs)
);
},
{
closed = 1;
nodes = (
(30,462,o),
(87,377,o),
(192,377,cs),
(300,377,o),
(357,462,o),
(357,564,cs),
(357,665,o),
(299,750,o),
(195,750,cs),
(91,750,o),
(30,665,o),
(30,564,cs)
);
},
{
closed = 1;
nodes = (
(102,636,o),
(130,698,o),
(195,698,cs),
(263,698,o),
(285,633,o),
(285,564,cs),
(285,484,o),
(256,429,o),
(192,429,cs),
(127,429,o),
(102,491,o),
(102,564,cs)
);
},
{
closed = 1;
nodes = (
(872,76,o),
(929,-9,o),
(1034,-9,cs),
(1142,-9,o),
(1199,76,o),
(1199,178,cs),
(1199,279,o),
(1141,364,o),
(1037,364,cs),
(933,364,o),
(872,279,o),
(872,178,cs)
);
},
{
closed = 1;
nodes = (
(944,250,o),
(972,312,o),
(1037,312,cs),
(1105,312,o),
(1127,247,o),
(1127,178,cs),
(1127,98,o),
(1098,43,o),
(1034,43,cs),
(969,43,o),
(944,105,o),
(944,178,cs)
);
}
);
width = 1229;
},
{
layerId = "34019E5C-CFBD-41F4-A079-921E83AB1F7F";
shapes = (
{
closed = 1;
nodes = (
(170,0,l),
(215,0,l),
(652,750,l),
(607,750,l)
);
},
{
closed = 1;
nodes = (
(462,77,o),
(514,-8,o),
(619,-8,cs),
(727,-8,o),
(779,77,o),
(779,179,cs),
(779,280,o),
(726,365,o),
(622,365,cs),
(518,365,o),
(462,280,o),
(462,179,cs)
);
},
{
closed = 1;
nodes = (
(508,266,o),
(548,331,o),
(622,329,cs),
(701,327,o),
(733,263,o),
(733,179,cs),
(733,83,o),
(693,28,o),
(619,28,cs),
(545,28,o),
(508,91,o),
(508,179,cs)
);
},
{
closed = 1;
nodes = (
(30,462,o),
(82,377,o),
(187,377,cs),
(295,377,o),
(347,462,o),
(347,564,cs),
(347,665,o),
(294,750,o),
(190,750,cs),
(86,750,o),
(30,665,o),
(30,564,cs)
);
},
{
closed = 1;
nodes = (
(76,651,o),
(116,716,o),
(190,714,cs),
(269,712,o),
(301,648,o),
(301,564,cs),
(301,468,o),
(261,413,o),
(187,413,cs),
(113,413,o),
(76,476,o),
(76,564,cs)
);
},
{
closed = 1;
nodes = (
(872,77,o),
(924,-8,o),
(1029,-8,cs),
(1137,-8,o),
(1189,77,o),
(1189,179,cs),
(1189,280,o),
(1136,365,o),
(1032,365,cs),
(928,365,o),
(872,280,o),
(872,179,cs)
);
},
{
closed = 1;
nodes = (
(918,266,o),
(958,331,o),
(1032,329,cs),
(1111,327,o),
(1143,263,o),
(1143,179,cs),
(1143,83,o),
(1103,28,o),
(1029,28,cs),
(955,28,o),
(918,91,o),
(918,179,cs)
);
}
);
width = 1219;
}
);
unicode = 8240;
},
